<?xml version="1.0" standalone="no"?>
<!DOCTYPE svg PUBLIC "-//W3C//DTD SVG 20010904//EN"
 "http://www.w3.org/TR/2001/REC-SVG-20010904/DTD/svg10.dtd">
<svg version="1.0" xmlns="http://www.w3.org/2000/svg"
 width="1200.000000pt" height="1132.000000pt" viewBox="0 0 1200.000000 1132.000000"
 preserveAspectRatio="xMidYMid meet">

<g transform="translate(0.000000,1132.000000) scale(0.100000,-0.100000)"
fill="#000000" stroke="none">
<path d="M9952 11302 c-35 -35 -70 -88 -76 -117 -4 -16 -29 -82 -56 -145 -46
-109 -48 -122 -59 -255 -18 -231 20 -375 99 -375 14 0 50 16 80 36 30 19 96
55 145 79 112 55 418 282 457 340 62 92 77 271 29 348 -24 40 -91 77 -137 77
-69 -1 -104 -28 -263 -210 -26 -29 -32 -33 -41 -20 -5 8 -10 27 -10 41 0 57
-31 130 -74 174 -46 49 -66 55 -94 27z m67 -71 c11 -11 29 -50 41 -88 20 -62
21 -81 15 -211 l-7 -144 23 4 c20 2 38 31 104 165 102 207 162 273 249 273 74
0 114 -112 86 -244 -17 -81 -65 -126 -355 -333 -86 -61 -242 -135 -290 -137
-25 -1 -33 5 -48 36 -26 52 -28 284 -4 380 37 148 118 318 152 318 8 0 24 -9
34 -19z"/>
<path d="M5985 11134 c-33 -8 -125 -19 -205 -24 -91 -6 -186 -19 -255 -35 -60
-14 -191 -44 -290 -66 -266 -59 -397 -95 -453 -123 -28 -14 -131 -72 -229
-129 -98 -57 -224 -130 -281 -161 -157 -88 -245 -160 -424 -349 -172 -181
-225 -248 -303 -387 -79 -138 -168 -267 -272 -394 -211 -256 -257 -316 -342
-441 -162 -239 -451 -725 -507 -852 -81 -183 -154 -552 -138 -698 16 -136 7
-154 -121 -266 -116 -100 -177 -178 -250 -321 -66 -128 -94 -233 -102 -383 -7
-141 6 -196 97 -417 39 -93 70 -172 70 -177 0 -4 -62 -45 -139 -90 -76 -45
-157 -100 -179 -121 -57 -55 -167 -216 -203 -297 -16 -37 -45 -98 -64 -134
-54 -102 -68 -180 -62 -339 4 -94 12 -157 26 -208 21 -73 67 -173 101 -222 10
-14 34 -70 54 -125 103 -279 146 -355 274 -477 99 -94 185 -146 338 -201 116
-43 184 -73 184 -82 0 -3 -37 -23 -82 -46 -130 -65 -213 -116 -278 -169 -250
-209 -439 -672 -457 -1125 -4 -111 -2 -153 11 -205 24 -95 70 -183 132 -249
30 -32 54 -65 54 -74 0 -8 -11 -40 -25 -72 -70 -157 -85 -312 -46 -462 64
-246 161 -428 290 -545 33 -29 108 -83 168 -118 l108 -65 135 -5 c149 -6 161
-9 230 -75 50 -47 186 -132 306 -193 144 -72 416 -152 589 -172 50 -5 132 -17
184 -26 176 -31 327 -6 502 81 90 46 298 186 395 267 169 141 184 151 200 137
30 -24 54 -89 80 -211 27 -129 35 -148 64 -148 26 0 47 30 65 95 9 33 27 98
40 145 13 47 29 130 35 185 25 227 51 377 79 452 16 43 41 137 56 210 22 106
33 137 52 155 l25 23 346 -3 c277 -3 377 -8 497 -24 83 -11 211 -22 285 -25
160 -6 228 7 363 68 49 22 91 39 93 37 9 -9 64 -149 78 -198 8 -30 22 -98 30
-150 9 -52 22 -120 31 -150 15 -54 21 -223 9 -267 -5 -18 -14 -23 -37 -23
l-30 0 20 -22 c45 -50 46 -57 33 -288 -7 -119 -10 -229 -6 -245 7 -26 8 -27
20 -9 7 10 34 89 60 174 68 224 68 225 95 228 12 2 55 -6 94 -18 124 -38 177
-41 327 -20 155 22 187 32 308 94 150 78 314 224 403 359 21 33 59 114 84 180
106 277 167 369 298 451 147 92 317 153 616 222 186 43 263 70 394 135 210
104 393 263 486 422 46 79 52 97 60 170 4 45 16 97 25 116 24 46 64 213 76
318 10 95 0 233 -24 318 -28 99 -125 315 -185 412 -62 101 -177 334 -225 455
-36 91 -36 191 -1 284 48 126 105 214 255 389 254 297 379 501 466 760 54 163
65 242 71 525 6 276 10 218 -83 1088 -28 265 -50 383 -92 498 -37 101 -73 239
-112 426 -53 257 -195 536 -390 768 -39 47 -80 101 -90 121 -19 35 -92 109
-109 109 -19 0 -111 81 -127 113 -11 20 -20 71 -25 139 -9 124 -36 201 -100
285 -55 73 -385 413 -457 471 -31 25 -115 102 -187 171 -211 202 -259 234
-440 290 -121 37 -210 55 -372 76 -155 19 -251 50 -365 115 -87 51 -94 53
-211 66 -67 8 -167 13 -223 12 l-101 -3 -64 52 c-35 29 -95 68 -134 86 -96 47
-285 113 -424 150 -105 27 -133 30 -301 33 -140 3 -200 0 -245 -12z m441 -105
c85 -16 333 -85 387 -108 124 -53 223 -138 332 -283 103 -136 132 -195 219
-434 87 -241 109 -322 125 -449 13 -107 15 -425 2 -425 -14 0 -32 34 -120 225
-118 255 -177 360 -243 430 -96 103 -254 197 -383 229 -79 19 -410 40 -522 33
-96 -6 -212 -41 -392 -121 -187 -82 -252 -138 -486 -420 -134 -161 -201 -233
-242 -262 -103 -70 -187 -216 -336 -584 -108 -266 -133 -345 -213 -655 -66
-261 -158 -541 -186 -572 -11 -12 -126 -64 -261 -119 -133 -53 -273 -111 -312
-129 -94 -43 -223 -156 -225 -197 0 -5 14 -8 30 -8 21 0 48 14 88 47 31 26
104 68 161 95 184 86 395 175 434 182 37 7 37 7 37 -28 0 -44 -132 -311 -187
-378 -21 -25 -54 -72 -73 -103 -19 -32 -71 -89 -115 -129 -44 -39 -136 -125
-205 -191 -144 -140 -186 -174 -292 -239 -190 -116 -321 -359 -368 -685 -20
-133 3 -272 59 -365 28 -46 105 -229 135 -321 14 -44 49 -174 78 -290 45 -178
52 -224 52 -300 -1 -180 -55 -409 -115 -497 -48 -69 -181 -217 -218 -242 -85
-59 -249 -94 -381 -81 -266 26 -615 193 -812 388 -104 103 -152 201 -200 401
-27 117 -20 223 26 403 38 149 63 199 134 265 97 91 228 138 387 138 163 0
284 -49 383 -154 133 -143 198 -370 140 -486 -27 -54 -59 -72 -112 -66 -50 6
-218 87 -272 132 -53 43 -65 44 -53 2 15 -53 68 -97 187 -155 209 -103 286
-80 327 99 31 139 17 224 -70 396 -46 91 -68 122 -116 166 -67 60 -155 107
-244 131 -123 32 -351 11 -465 -42 -74 -35 -184 -148 -232 -238 -20 -39 -51
-119 -68 -180 -18 -60 -34 -111 -35 -113 -8 -9 -35 14 -45 39 -19 44 -7 249
18 319 66 188 226 406 357 489 73 46 196 83 280 84 77 1 118 -13 199 -67 28
-18 66 -41 84 -50 l33 -17 -11 23 c-7 13 -81 91 -164 173 -232 228 -254 261
-337 510 -52 154 -54 164 -54 265 1 71 7 126 19 170 26 91 88 221 140 293 97
136 310 309 701 569 225 149 394 289 516 428 123 139 209 332 225 505 5 50 1
75 -24 150 -26 78 -33 120 -48 305 -26 338 -9 490 68 618 19 31 40 78 47 104
16 65 135 296 173 336 63 64 64 33 2 -89 -103 -207 -111 -374 -35 -804 20
-112 46 -417 56 -668 l6 -137 -42 -98 c-108 -253 -136 -301 -228 -392 -48 -47
-114 -101 -146 -120 -32 -19 -84 -58 -114 -86 -31 -28 -90 -74 -131 -101 -41
-28 -109 -87 -150 -131 -41 -43 -107 -100 -145 -125 -88 -57 -182 -156 -295
-312 -24 -33 -59 -76 -77 -96 -53 -56 -174 -291 -197 -383 -26 -100 -40 -269
-27 -322 38 -149 155 -326 345 -522 78 -81 154 -167 168 -192 40 -68 186 -394
206 -458 14 -47 17 -94 16 -262 0 -246 -6 -272 -77 -347 -66 -70 -104 -89
-230 -115 -117 -23 -194 -21 -277 11 -113 43 -235 146 -273 229 -25 58 -28
153 -5 197 30 57 104 110 158 115 64 6 75 0 148 -77 51 -53 76 -73 84 -65 15
15 -43 119 -97 176 -51 52 -92 64 -163 46 -69 -17 -127 -54 -171 -110 -80
-101 -89 -185 -33 -297 40 -79 94 -137 191 -206 139 -101 215 -118 408 -93
147 19 219 45 283 103 72 65 88 98 115 236 60 305 42 441 -97 757 -101 228
-133 272 -370 495 -91 86 -192 228 -230 324 -19 48 -22 74 -22 186 0 238 60
390 244 620 62 77 129 159 149 181 20 23 51 60 69 82 18 23 58 58 89 79 31 20
98 78 148 129 59 58 122 109 174 139 185 111 399 298 472 413 62 98 157 287
174 346 8 28 19 132 24 231 10 200 -3 400 -40 600 -19 106 -41 317 -55 531 -8
127 -2 147 122 402 87 179 99 198 164 262 39 38 121 102 183 143 99 66 176
109 532 298 177 94 386 165 655 223 216 47 330 64 470 70 63 3 153 12 200 20
105 17 247 20 326 5z m1077 -375 c44 -8 136 -35 205 -60 94 -33 164 -50 267
-65 514 -74 576 -110 1106 -639 282 -281 339 -351 379 -458 30 -80 38 -183 16
-201 -21 -18 -138 -26 -550 -41 -530 -19 -976 -72 -1253 -150 -127 -36 -173
-39 -173 -11 0 10 12 45 28 77 27 58 27 61 30 297 5 318 -8 468 -52 627 -53
191 -143 446 -181 515 -73 131 -41 150 178 109z m-855 -495 c197 -23 369 -133
485 -309 20 -30 86 -158 146 -285 118 -246 147 -331 158 -472 5 -67 11 -92 32
-122 42 -62 178 -218 281 -321 177 -176 308 -343 460 -587 95 -151 210 -394
210 -444 0 -36 -16 -40 -86 -24 -33 8 -131 30 -219 49 -88 20 -209 47 -270 61
-138 33 -349 43 -517 26 -123 -13 -339 -61 -364 -82 -21 -17 -17 -34 12 -48
21 -9 37 -8 89 8 142 44 411 69 551 52 128 -16 636 -117 713 -143 37 -12 80
-35 102 -55 62 -56 104 -190 149 -473 16 -102 41 -257 55 -345 15 -88 29 -227
32 -309 l6 -148 -24 7 c-28 8 -56 36 -159 164 -155 192 -402 367 -568 402
-120 25 -326 -19 -487 -104 -70 -37 -86 -51 -125 -109 -25 -36 -69 -100 -98
-142 -97 -139 -123 -234 -103 -378 7 -45 16 -222 20 -393 l8 -310 30 -80 c18
-47 34 -112 38 -155 9 -93 29 -136 80 -172 89 -62 184 -80 292 -58 26 6 98 17
158 24 125 17 204 38 233 64 27 23 117 229 138 317 32 132 15 443 -29 532 -13
26 -39 93 -57 147 -27 81 -40 107 -74 140 -49 49 -133 95 -241 132 -104 35
-228 37 -325 6 -81 -27 -80 -27 -80 3 0 27 159 244 215 294 44 38 161 66 247
58 103 -9 146 -39 334 -229 94 -95 188 -199 208 -230 43 -69 90 -181 116 -281
10 -40 25 -91 33 -113 26 -70 30 -148 16 -291 -12 -135 -14 -142 -99 -373 -48
-129 -108 -301 -134 -381 -58 -181 -117 -283 -226 -389 -43 -42 -112 -96 -159
-123 -156 -93 -664 -328 -796 -370 -103 -32 -435 -118 -555 -142 -69 -15 -145
-31 -169 -36 -24 -5 -47 -7 -50 -4 -2 3 5 45 17 93 32 128 42 212 42 353 0
114 -2 129 -23 160 -31 47 -80 68 -189 80 -112 13 -388 6 -441 -10 -65 -21
-72 -43 -72 -221 0 -108 6 -189 19 -268 15 -84 17 -115 8 -124 -8 -8 -43 1
-139 37 -224 84 -374 145 -543 222 -247 113 -287 135 -396 216 -54 40 -142
100 -194 132 -170 105 -217 168 -323 435 -47 117 -58 166 -92 425 -9 66 -32
183 -52 260 -31 123 -34 150 -30 225 10 167 96 474 174 622 19 37 58 90 86
118 56 56 97 72 340 130 123 30 138 31 190 20 113 -23 298 -175 357 -293 26
-53 29 -62 15 -65 -9 -2 -24 3 -33 12 -38 33 -106 56 -175 56 -117 0 -247 -56
-352 -151 -94 -87 -123 -135 -157 -266 -31 -115 -32 -123 -32 -348 -1 -250 5
-295 55 -400 15 -33 55 -93 89 -134 l60 -74 -26 -34 c-21 -27 -23 -37 -14 -48
16 -19 42 -19 105 1 41 13 80 14 221 9 158 -6 175 -5 216 13 33 14 58 18 96
14 72 -6 91 10 145 120 62 127 95 228 109 340 21 170 -31 504 -107 683 -30 72
-75 186 -75 193 0 1 5 2 10 2 6 0 10 -8 10 -18 0 -25 45 -66 64 -59 23 9 20
28 -20 125 -84 205 -188 364 -286 440 -193 149 -469 173 -698 61 -68 -34 -102
-59 -171 -128 -77 -78 -92 -100 -157 -228 -40 -79 -75 -143 -77 -143 -12 0
-34 63 -44 125 -6 39 -13 84 -17 101 -8 40 27 81 112 135 74 47 161 137 226
234 178 268 279 451 337 610 46 127 57 149 91 168 40 24 233 37 385 26 66 -5
167 -11 225 -15 l105 -6 -34 22 c-64 41 -134 61 -267 76 -105 12 -149 13 -204
5 -104 -17 -177 -14 -184 5 -3 9 19 116 50 238 122 485 121 482 293 658 119
122 304 275 381 314 62 31 120 24 282 -35 144 -52 196 -60 167 -25 -7 9 -49
34 -94 55 -44 21 -102 51 -130 66 -70 38 -193 45 -252 15 -58 -30 -273 -212
-335 -284 -29 -34 -68 -77 -85 -97 l-32 -36 -1 37 c0 50 26 123 63 178 59 87
278 293 445 419 174 131 243 168 407 221 124 40 185 38 281 -10 97 -48 172
-124 279 -284 111 -165 132 -193 140 -185 3 3 -4 28 -15 55 -12 27 -30 76 -41
108 -30 87 -80 158 -194 271 -161 161 -236 184 -420 125 -210 -67 -272 -105
-547 -333 -218 -179 -228 -185 -228 -135 0 48 177 335 285 461 71 83 114 117
335 259 234 152 314 181 485 182 187 0 392 -69 504 -170 106 -96 173 -208 280
-470 78 -192 112 -264 135 -283 20 -16 20 -23 -4 89 -42 197 -143 452 -231
581 -59 89 -155 187 -209 214 -75 38 -211 82 -293 95 -103 17 -281 8 -372 -19
-38 -11 -116 -43 -173 -71 -57 -27 -108 -50 -114 -50 -20 0 76 102 136 144 98
70 305 162 416 186 52 11 366 4 488 -11z m-3212 -826 c-17 -207 -17 -258 -1
-410 26 -241 23 -332 -19 -493 -44 -172 -67 -229 -124 -310 -62 -88 -267 -291
-374 -371 -115 -85 -436 -265 -449 -252 -14 14 16 240 40 307 43 115 64 180
121 369 34 109 69 221 80 249 24 63 300 524 383 640 93 130 202 253 269 303
33 25 65 45 70 45 7 0 8 -28 4 -77z m1644 8 c0 -11 -4 -23 -10 -26 -6 -4 -10
5 -10 19 0 14 5 26 10 26 6 0 10 -9 10 -19z m4404 -202 c15 -12 57 -34 94 -49
85 -36 125 -69 168 -135 50 -79 142 -266 232 -475 44 -102 134 -307 201 -457
66 -149 132 -304 145 -345 25 -77 97 -446 118 -608 17 -133 16 -1113 -1 -1229
-31 -211 -95 -378 -203 -538 -31 -44 -126 -167 -211 -271 -189 -233 -236 -297
-287 -399 -77 -155 -100 -341 -61 -495 22 -86 50 -145 117 -248 25 -39 65
-118 89 -174 58 -139 66 -154 126 -228 59 -72 109 -173 133 -268 9 -36 21
-133 27 -217 15 -203 4 -257 -88 -440 -79 -158 -104 -187 -256 -316 -102 -86
-127 -102 -253 -157 -76 -34 -157 -75 -178 -91 -28 -20 -52 -29 -78 -29 -41 0
-400 -87 -503 -122 -71 -24 -178 -92 -337 -216 -64 -50 -125 -92 -135 -94 -48
-8 -4 131 61 197 35 34 80 58 283 144 133 56 267 118 300 137 142 86 228 172
334 332 100 152 129 257 129 466 0 197 -37 309 -137 417 -80 87 -116 134 -147
196 -14 29 -47 84 -71 123 -80 123 -115 239 -141 467 -17 150 -14 219 17 378
37 191 184 622 291 849 131 280 167 396 203 663 31 228 31 325 0 509 -91 529
-200 826 -430 1174 -63 95 -328 358 -499 496 -307 247 -389 319 -481 423 -109
125 -176 185 -337 304 -121 89 -140 115 -99 137 29 15 264 68 428 96 80 13
267 33 416 44 362 27 487 38 577 50 108 14 140 16 286 18 120 2 134 0 158 -19z
m-1121 -977 c39 -26 392 -359 492 -464 103 -108 172 -212 265 -397 136 -272
210 -485 250 -720 11 -64 30 -165 42 -225 18 -96 20 -133 15 -295 -9 -313 -36
-412 -208 -777 -61 -130 -130 -295 -154 -367 -24 -73 -57 -170 -74 -216 -17
-46 -54 -176 -82 -290 -50 -200 -51 -209 -44 -306 15 -235 56 -417 121 -548
50 -99 179 -286 259 -377 120 -136 147 -233 126 -446 -17 -171 -30 -213 -98
-322 -145 -229 -235 -311 -434 -396 -306 -130 -416 -175 -434 -178 -18 -3 -20
2 -17 37 7 81 35 110 189 201 86 51 155 99 175 123 44 52 132 230 152 307 20
78 20 229 1 312 -22 95 -62 180 -174 375 -130 227 -178 321 -190 377 -16 68
-13 275 4 348 20 82 33 108 117 221 39 51 78 112 88 135 31 69 40 155 28 262
-10 90 -10 99 12 152 39 98 136 283 199 381 67 103 95 170 115 270 23 112 27
192 15 301 -7 58 -13 156 -14 218 -2 102 -4 114 -25 137 -17 18 -30 58 -50
147 -32 149 -228 844 -277 983 -44 127 -72 218 -117 378 -32 116 -48 151 -175
381 -76 139 -142 262 -145 274 -9 28 8 29 47 4z m472 -1616 c30 -45 122 -455
108 -478 -8 -15 -88 -7 -130 11 -65 30 -68 44 -44 180 12 64 24 160 27 214 3
53 10 97 15 97 5 0 15 -11 24 -24z m-4650 4 c-3 -5 -11 -10 -16 -10 -6 0 -7 5
-4 10 3 6 11 10 16 10 6 0 7 -4 4 -10z m-566 -221 c61 -91 114 -277 97 -342
-9 -39 -56 -78 -142 -118 -76 -36 -212 -69 -285 -69 -30 0 -59 -23 -59 -45 0
-23 56 -45 138 -55 102 -11 180 -42 254 -98 55 -42 65 -56 100 -136 21 -49 38
-96 36 -104 -2 -8 -21 -21 -43 -29 -22 -7 -50 -24 -61 -37 -32 -37 -71 -166
-89 -296 -16 -118 -24 -140 -43 -118 -6 7 -56 121 -112 253 -223 526 -224 530
-218 654 4 69 12 103 40 172 38 93 105 203 172 282 42 51 151 147 166 147 5 0
27 -27 49 -61z m3928 -199 c30 -13 52 -34 73 -67 48 -75 54 -112 40 -233 -27
-233 -74 -300 -212 -300 -71 0 -121 15 -159 48 -48 39 -67 93 -75 208 -9 130
7 188 72 262 83 94 172 123 261 82z m-2680 -135 c97 -123 96 -121 88 -249 -8
-122 -24 -177 -60 -200 -31 -20 -229 -76 -269 -76 -50 1 -108 33 -157 87 -69
78 -86 163 -53 273 30 101 127 210 188 210 17 0 49 9 71 20 24 11 58 18 85 17
43 -2 46 -5 107 -82z m4135 -192 c44 -131 47 -394 7 -510 -17 -51 -205 -398
-252 -466 -11 -16 -23 -25 -28 -20 -5 5 -15 38 -23 73 -8 36 -26 97 -40 135
-14 39 -26 87 -26 108 0 21 -7 54 -15 74 -22 53 -19 95 16 185 48 123 99 297
99 334 0 33 3 35 108 89 59 30 114 53 122 52 8 -1 23 -25 32 -54z m-1087 -243
c26 -29 44 -109 33 -143 -13 -37 -22 -40 -57 -23 -70 37 -92 111 -46 160 29
31 46 33 70 6z m-229 -11 c10 -17 -13 -36 -27 -22 -12 12 -4 33 11 33 5 0 12
-5 16 -11z m-2537 -78 c29 -29 37 -101 16 -145 -9 -19 -26 -38 -36 -41 -44
-14 -109 62 -109 128 0 31 5 40 33 57 41 25 72 25 96 1z m2209 -28 c3 -27 -2
-35 -34 -57 -42 -28 -54 -22 -54 28 0 39 27 68 59 64 21 -2 27 -9 29 -35z
m-3023 -212 c-5 -13 -7 -14 -15 -1 -13 21 -12 68 3 115 l12 40 3 -69 c2 -38 0
-76 -3 -85z m3143 128 c22 -8 35 -22 50 -57 43 -101 40 -172 -8 -197 -64 -33
-93 -16 -139 82 -29 63 -23 113 19 155 32 32 35 32 78 17z m362 -108 c0 -11
-4 -23 -10 -26 -6 -4 -10 5 -10 19 0 14 5 26 10 26 6 0 10 -9 10 -19z m-4036
-30 c9 -16 51 -145 95 -287 71 -231 79 -265 74 -316 -5 -52 -1 -65 47 -172
124 -275 245 -370 700 -551 80 -32 153 -66 164 -74 16 -14 18 -27 14 -89 -4
-63 -13 -88 -62 -190 -60 -122 -89 -162 -115 -162 -9 1 -92 29 -186 63 l-170
62 -12 40 c-7 22 -15 56 -18 76 -11 75 -76 135 -172 160 -40 11 -349 191 -422
246 -40 31 -56 67 -82 182 -32 144 -35 275 -10 431 12 74 32 221 45 325 25
193 35 236 63 267 22 25 30 23 47 -11z m893 -3 c32 -30 33 -106 1 -135 -46
-40 -92 -36 -123 11 -14 22 -15 28 -1 60 18 44 59 86 82 86 10 0 28 -10 41
-22z m3867 -143 c24 -50 54 -602 38 -689 -22 -118 -40 -140 -382 -487 -231
-234 -319 -330 -318 -344 4 -28 49 -32 73 -5 20 22 60 27 72 8 4 -7 18 -53 31
-103 12 -49 47 -147 77 -217 53 -123 147 -400 179 -523 8 -33 27 -124 41 -203
l26 -143 -46 -142 c-26 -78 -66 -182 -90 -232 -23 -49 -55 -117 -69 -149 -33
-73 -91 -151 -132 -177 -45 -27 -92 -24 -213 17 -133 44 -328 161 -338 203 -3
14 -30 49 -59 78 -82 82 -95 128 -95 335 1 302 39 672 112 1088 22 124 36 170
51 170 16 0 308 -119 331 -135 12 -8 37 -15 56 -15 l35 0 -30 31 c-61 64 -140
115 -208 133 -53 15 -78 29 -122 68 -58 54 -74 88 -53 114 7 9 44 31 81 50
177 89 315 192 463 345 166 171 204 242 240 451 15 90 20 104 119 332 83 191
98 208 130 141z m-3606 -227 c-3 -7 -15 -13 -28 -13 -13 0 -25 6 -27 13 -3 8
6 12 27 12 21 0 30 -4 28 -12z m1157 -630 c72 -12 109 -30 131 -64 15 -21 16
-45 11 -167 -8 -204 -56 -369 -113 -396 -35 -16 -282 -14 -312 2 -25 14 -74
82 -99 137 -8 19 -19 69 -23 110 -5 41 -13 104 -20 138 -8 48 -8 78 1 120 6
32 14 72 16 90 4 25 11 33 32 38 14 3 31 7 36 9 18 7 278 -6 340 -17z m-2499
-34 c-5 -13 -10 -14 -18 -6 -6 6 -8 18 -4 28 5 13 10 14 18 6 6 -6 8 -18 4
-28z m162 -344 c100 -56 182 -104 182 -106 0 -2 -20 -15 -44 -29 -38 -22 -49
-36 -74 -98 -53 -128 -90 -272 -117 -452 -8 -60 -18 -118 -21 -128 -9 -29 -27
-14 -39 34 -17 65 -39 103 -129 222 -103 138 -170 193 -326 270 -69 33 -127
63 -130 65 -10 8 35 32 69 37 160 26 239 91 330 273 l32 63 42 -24 c23 -13
124 -70 225 -127z m4712 -50 c-31 -202 -26 -255 36 -375 182 -353 275 -545
294 -608 31 -101 36 -189 15 -263 -24 -84 -118 -274 -152 -306 -31 -29 -175
-119 -181 -113 -3 2 13 53 33 112 31 87 38 122 38 183 0 86 -31 185 -242 771
-134 371 -150 432 -127 476 8 15 76 88 151 162 101 99 139 131 147 123 9 -9 5
-51 -12 -162z m-3472 -84 c2 -19 -8 -47 -31 -85 -35 -56 -56 -102 -83 -175
-14 -39 -14 -39 6 -21 11 10 45 68 76 129 31 61 68 123 82 138 l25 27 51 -19
c188 -71 402 -161 417 -177 29 -29 126 -310 169 -487 63 -261 180 -787 180
-808 0 -13 -6 -18 -17 -16 -11 2 -37 42 -68 103 -28 55 -86 155 -130 222 -44
67 -104 160 -133 206 -77 121 -228 279 -298 312 -30 14 -54 31 -52 37 2 6 36
29 76 51 103 58 164 107 187 150 l20 38 -24 20 c-17 14 -39 19 -85 19 -74 0
-321 -26 -394 -41 -62 -13 -97 -6 -136 24 l-28 23 35 69 c19 39 49 87 66 109
17 22 31 51 31 66 0 39 30 122 44 117 6 -2 12 -16 14 -31z m2384 -25 l32 -28
-17 -74 c-9 -41 -21 -108 -27 -149 -6 -41 -15 -79 -20 -84 -15 -15 -82 38
-185 145 -109 114 -121 132 -100 149 19 16 210 68 252 69 22 1 43 -8 65 -28z
m-3159 -39 c15 -16 40 -72 33 -72 -2 0 -20 7 -39 15 -75 31 -99 13 -77 -55 15
-46 4 -80 -111 -358 -65 -155 -74 -186 -71 -241 3 -36 16 -18 55 79 126 303
199 430 247 430 34 0 469 -155 488 -173 20 -20 19 -46 -5 -172 -12 -60 -26
-157 -33 -215 -6 -59 -39 -213 -75 -355 -34 -137 -84 -342 -110 -455 -26 -113
-56 -222 -67 -243 -24 -49 -81 -89 -182 -129 -69 -27 -94 -32 -171 -32 -82 -1
-95 2 -143 29 -70 38 -154 129 -191 208 -66 139 -77 276 -36 484 13 71 49 269
80 441 113 640 143 730 268 802 60 34 116 39 140 12z m2844 -173 c132 -132
182 -193 168 -207 -11 -11 -187 -4 -340 14 -77 8 -210 18 -295 21 -145 5 -156
4 -173 -14 -34 -38 -12 -59 106 -99 64 -22 157 -69 157 -79 0 -3 -56 -32 -124
-64 -99 -48 -131 -69 -159 -103 -69 -86 -122 -218 -177 -445 -40 -165 -65
-241 -77 -230 -9 10 16 257 52 517 19 135 46 334 59 443 13 109 30 205 37 213
23 27 69 45 167 64 53 10 160 39 237 64 205 68 196 70 362 -95z m-4062 46
c150 -32 270 -101 397 -231 145 -149 163 -183 209 -390 36 -164 36 -182 -16
-463 -54 -301 -47 -439 33 -601 54 -111 168 -223 285 -280 101 -50 164 -59
269 -40 50 10 72 10 80 2 8 -8 21 -2 49 22 22 18 83 57 136 86 180 98 226 134
345 267 l112 125 24 -28 c38 -47 69 -116 83 -183 18 -94 6 -273 -27 -396 -15
-55 -30 -124 -35 -153 -18 -121 -94 -427 -114 -456 -11 -17 -36 -40 -54 -51
-19 -11 -59 -43 -90 -71 -31 -28 -85 -70 -121 -94 -36 -24 -121 -87 -190 -140
-231 -179 -329 -233 -494 -275 -192 -48 -322 -41 -603 36 -228 62 -274 80
-518 199 -212 103 -232 115 -295 178 -73 73 -127 171 -150 272 -17 74 -15 220
5 306 21 90 86 221 133 266 38 37 162 90 286 122 136 36 301 30 387 -14 73
-38 145 -153 180 -288 10 -41 19 -81 19 -88 0 -8 -20 -2 -57 17 -102 52 -271
60 -355 18 -66 -33 -83 -70 -86 -186 -5 -135 9 -200 58 -265 89 -117 227 -200
365 -218 44 -6 130 -18 191 -27 102 -15 116 -15 170 -1 209 56 417 179 331
196 -9 2 -59 -19 -109 -46 -145 -78 -181 -86 -383 -79 -244 8 -332 35 -430
132 -73 74 -109 152 -113 245 -8 176 60 227 247 185 38 -9 78 -25 90 -36 26
-25 55 -81 70 -137 21 -77 41 -48 41 59 0 38 5 78 12 88 18 29 -14 203 -51
286 -39 85 -124 175 -194 205 -130 56 -452 26 -634 -59 -120 -57 -193 -160
-240 -340 -48 -185 -34 -320 54 -499 25 -51 43 -96 40 -98 -8 -8 -60 -8 -86 1
-52 16 -193 108 -244 158 -147 145 -252 352 -276 547 -21 161 16 308 121 493
130 228 356 415 577 476 91 25 338 45 451 36 156 -13 353 -74 429 -134 21 -17
68 -74 104 -128 36 -54 78 -109 93 -123 l27 -25 -7 29 c-18 74 -106 237 -157
291 -127 135 -351 188 -689 165 -253 -18 -379 -60 -544 -184 -96 -73 -229
-205 -281 -281 -23 -33 -45 -55 -54 -53 -25 5 -98 103 -119 160 -30 80 -52
197 -52 276 0 97 37 331 67 427 43 136 130 291 212 379 20 21 94 92 166 158
112 104 142 126 230 168 55 27 147 63 205 80 101 29 111 30 255 26 86 -2 184
-11 230 -21z m2795 -54 c53 -25 62 -26 235 -26 l180 0 -1 -55 c-1 -30 -8 -100
-17 -154 -20 -140 -20 -140 -207 -134 -84 2 -154 9 -167 16 -12 6 -29 33 -38
59 -10 27 -42 103 -71 171 -54 123 -60 143 -47 155 11 11 73 -4 133 -32z
m-515 -150 c70 -15 36 -65 -95 -143 -110 -66 -160 -99 -160 -108 0 -3 39 -21
88 -39 48 -18 108 -46 133 -62 57 -36 132 -114 185 -194 105 -155 528 -896
582 -1018 31 -70 105 -88 131 -31 6 13 26 120 45 237 34 203 93 461 134 577
11 30 43 113 72 183 83 202 159 269 345 300 74 12 80 15 92 44 l12 31 -134 77
c-74 42 -135 80 -135 85 0 21 51 18 274 -20 131 -22 265 -40 298 -40 64 0 145
-16 167 -34 18 -14 10 -240 -18 -511 -25 -237 -28 -295 -17 -417 7 -82 6 -98
-5 -98 -30 0 -90 64 -145 153 -83 133 -97 170 -91 231 2 28 -2 85 -11 126 -14
68 -13 87 3 218 16 123 16 145 4 153 -21 13 -34 11 -53 -10 -14 -15 -18 -54
-25 -232 -7 -183 -11 -223 -30 -274 -12 -33 -35 -105 -51 -161 -35 -121 -60
-186 -99 -256 -35 -64 -81 -255 -81 -336 1 -31 8 -75 17 -97 8 -22 16 -56 17
-75 1 -34 -1 -36 -68 -68 -38 -18 -94 -40 -125 -48 -85 -22 -271 -18 -496 11
-183 24 -207 25 -319 14 -124 -12 -300 -7 -431 11 -112 16 -102 2 -107 163 -7
206 -42 374 -124 595 -80 216 -113 286 -164 351 -22 28 -45 63 -50 77 -6 14
-10 81 -10 149 0 101 -4 133 -21 178 -20 53 -20 57 -4 113 23 78 69 124 156
153 134 44 239 58 314 42z m870 -301 c10 -31 -3 -150 -40 -390 -19 -118 -41
-300 -50 -405 -9 -104 -19 -201 -22 -214 l-6 -24 -19 22 c-10 13 -18 32 -18
42 0 10 -22 137 -49 281 -26 145 -54 310 -60 368 -6 58 -23 148 -36 199 -14
51 -25 99 -25 106 0 19 84 32 212 34 99 1 107 0 113 -19z m-1370 -328 c1 -79
10 -105 51 -154 42 -51 41 -96 -6 -200 -91 -199 -219 -403 -241 -381 -5 5 32
193 81 418 50 226 90 412 90 415 0 2 5 -1 12 -8 8 -8 13 -43 13 -90z m185
-418 c0 -25 -17 -23 -29 2 -14 33 -3 54 16 29 7 -11 13 -24 13 -31z m2057
-106 c11 -13 38 -50 61 -83 54 -82 197 -218 374 -358 126 -100 148 -121 152
-149 22 -135 37 -313 33 -371 -11 -125 -67 -216 -200 -324 -111 -89 -146 -105
-238 -111 -117 -7 -119 -5 -119 133 0 101 -5 133 -44 287 -23 95 -66 229 -93
298 -28 69 -56 149 -62 178 -16 75 -14 227 4 297 17 67 89 225 103 225 5 0 18
-10 29 -22z m1175 -623 c0 -43 -15 -70 -51 -91 l-29 -17 30 -29 c28 -26 30
-32 25 -78 -12 -99 -102 -267 -202 -378 -63 -70 -284 -241 -360 -279 -113 -57
-305 -90 -424 -73 -96 13 -111 22 -111 65 l0 35 74 0 c128 0 171 13 277 85
114 77 212 177 248 254 26 55 26 59 26 286 0 148 4 229 10 229 6 -1 42 -7 82
-13 149 -23 268 -9 342 39 51 33 63 27 63 -35z"/>
<path d="M5768 5003 c-43 -49 -28 -137 34 -208 68 -77 135 -97 71 -21 -39 46
-53 88 -53 159 0 80 -20 106 -52 70z"/>
<path d="M7764 4634 c-16 -8 -54 -39 -85 -69 -80 -77 -113 -80 -179 -20 -32
29 -70 41 -70 23 1 -32 41 -99 72 -118 67 -41 133 -21 218 65 30 30 58 55 63
55 5 0 30 -18 55 -41 49 -43 111 -79 136 -79 38 0 115 97 130 165 7 28 4 27
-51 -27 -76 -76 -95 -76 -171 -5 -68 64 -81 70 -118 51z"/>
<path d="M4338 4550 c-38 -31 -71 -78 -83 -117 -9 -32 21 -31 65 2 19 14 39
25 46 25 7 0 30 -26 51 -57 34 -52 42 -58 76 -61 43 -4 59 5 135 73 l53 47 59
-56 c48 -46 65 -56 93 -56 42 0 81 29 95 70 13 34 9 36 -50 18 -39 -11 -39
-11 -91 39 -92 90 -101 89 -199 -3 -31 -30 -62 -54 -68 -54 -16 0 -50 39 -90
104 -19 31 -39 56 -45 56 -6 0 -27 -14 -47 -30z"/>
<path d="M4248 1456 c-26 -19 -84 -208 -113 -363 -14 -74 -25 -145 -25 -157 0
-13 -23 -69 -50 -126 -28 -56 -49 -105 -47 -107 8 -8 75 78 106 136 39 73 59
150 72 276 11 105 37 224 69 306 19 51 17 57 -12 35z"/>
<path d="M964 9008 c-12 -5 -27 -20 -33 -32 -18 -35 -40 -159 -51 -289 -29
-331 -29 -329 -71 -306 -13 7 -50 35 -81 62 -84 74 -294 222 -363 256 -103 51
-235 57 -294 13 -38 -27 -71 -81 -71 -113 0 -47 58 -208 92 -256 42 -58 192
-184 327 -275 58 -38 216 -125 351 -193 136 -68 260 -135 277 -149 l31 -26 27
32 c25 29 26 36 20 93 -5 48 0 89 25 198 85 384 97 813 26 920 -40 61 -151 95
-212 65z m119 -78 c55 -48 87 -162 87 -309 0 -109 -27 -327 -56 -460 -28 -125
-81 -312 -92 -323 -17 -16 -479 202 -597 281 -138 92 -274 231 -319 326 -35
74 -51 156 -37 184 21 38 70 61 134 61 64 0 141 -33 271 -117 69 -44 85 -57
243 -191 123 -105 139 -115 162 -102 26 13 28 30 40 285 7 151 16 231 30 285
30 112 71 136 134 80z"/>
<path d="M11073 8476 c-73 -62 -125 -238 -147 -501 -12 -140 -12 -165 1 -198
34 -84 74 -78 264 36 188 112 231 146 326 260 107 128 126 190 81 257 -33 48
-70 72 -121 77 -64 8 -107 -10 -178 -74 l-63 -56 -27 89 c-19 61 -36 96 -54
112 -33 28 -47 28 -82 -2z m73 -87 c9 -18 17 -73 21 -144 4 -67 11 -123 19
-133 11 -16 14 -15 34 3 12 11 32 40 45 65 29 56 98 136 136 155 41 22 105 19
129 -5 27 -27 26 -79 -3 -121 -12 -19 -35 -55 -49 -80 -53 -91 -203 -211 -365
-293 -85 -42 -136 -47 -154 -14 -22 41 -6 248 31 378 42 153 49 170 83 202 32
31 51 28 73 -13z"/>
<path d="M862 5351 c-91 -67 -134 -166 -130 -304 2 -51 -1 -98 -5 -104 -14
-21 -61 -15 -156 22 -153 59 -298 68 -348 22 -44 -40 -36 -58 95 -207 135
-154 220 -219 401 -310 134 -67 221 -95 257 -83 55 18 62 42 73 243 6 102 18
272 26 377 14 191 11 264 -15 312 -35 67 -128 82 -198 32z m113 -43 c15 -7 34
-26 43 -42 24 -45 28 -268 8 -433 -18 -148 -53 -343 -66 -363 -20 -32 -208 34
-363 127 -113 68 -193 138 -260 226 -63 81 -67 103 -27 125 56 29 253 -10 365
-73 56 -31 71 -35 90 -27 23 10 23 15 27 169 3 146 5 162 29 208 26 51 77 95
110 95 10 0 30 -5 44 -12z"/>
<path d="M11307 5072 c-15 -17 -70 -181 -108 -324 -42 -156 -52 -433 -20 -504
23 -50 67 -70 134 -59 136 22 382 114 485 182 64 43 115 101 152 173 66 129
64 186 -6 257 -82 82 -195 114 -278 79 -19 -8 -70 -39 -115 -70 -45 -31 -86
-56 -90 -56 -12 0 -21 37 -21 86 0 71 -64 236 -95 248 -22 8 -20 9 -38 -12z
m82 -230 c7 -61 16 -151 19 -199 6 -79 9 -88 27 -88 15 0 29 19 57 75 61 124
154 194 259 194 45 1 64 -5 98 -27 71 -47 99 -119 68 -173 -7 -12 -40 -55 -73
-96 -122 -148 -346 -258 -525 -258 -50 0 -60 3 -78 25 -52 67 -55 237 -7 451
33 148 52 200 85 237 15 18 16 18 37 -6 17 -19 24 -49 33 -135z"/>
</g>
</svg>
