<?xml version="1.0" standalone="no"?>
<!DOCTYPE svg PUBLIC "-//W3C//DTD SVG 20010904//EN"
 "http://www.w3.org/TR/2001/REC-SVG-20010904/DTD/svg10.dtd">
<svg version="1.0" xmlns="http://www.w3.org/2000/svg"
 width="564.000000pt" height="564.000000pt" viewBox="0 0 564.000000 564.000000"
 preserveAspectRatio="xMidYMid meet">

<g transform="translate(0.000000,564.000000) scale(0.100000,-0.100000)"
fill="#000000" stroke="none">
<path d="M2477 5471 c-65 -10 -121 -22 -125 -26 -4 -4 9 -5 28 -1 207 36 435
41 575 12 170 -36 386 -121 539 -215 38 -23 71 -40 73 -37 7 7 -106 74 -212
125 -113 56 -243 103 -360 132 -118 30 -362 34 -518 10z"/>
<path d="M2185 5413 c-11 -2 -44 -9 -73 -14 -30 -6 -51 -13 -49 -15 3 -3 42 2
88 10 46 8 100 17 119 19 25 3 20 4 -15 4 -27 0 -59 -1 -70 -4z"/>
<path d="M1694 5182 c-67 -49 -229 -228 -298 -331 -36 -54 -83 -136 -105 -182
-60 -130 -58 -148 2 -24 105 213 229 372 422 538 40 35 28 34 -21 -1z"/>
<path d="M3666 5131 c5 -5 54 -45 109 -88 118 -94 189 -167 274 -283 72 -97
79 -105 61 -70 -24 47 -139 195 -192 247 -63 61 -239 203 -252 203 -6 0 -6 -3
0 -9z"/>
<path d="M4125 4613 c29 -45 87 -114 92 -109 3 2 -19 34 -47 70 -53 68 -76 88
-45 39z"/>
<path d="M3200 4505 c0 -3 11 -33 25 -66 52 -123 69 -219 69 -404 0 -129 -4
-186 -17 -238 -25 -101 -73 -209 -113 -256 -20 -22 -31 -41 -25 -41 20 0 80
94 110 171 51 133 64 223 58 399 -3 85 -12 181 -20 213 -16 65 -8 73 23 21 12
-19 25 -33 27 -30 7 7 -21 52 -53 86 -12 14 -32 51 -44 82 -18 49 -40 83 -40
63z"/>
<path d="M3670 4486 c0 -2 13 -18 29 -35 66 -71 103 -189 121 -386 21 -227 -2
-345 -93 -482 -74 -110 -74 -111 -55 -95 24 19 105 144 127 195 11 25 25 72
30 103 22 117 8 354 -29 492 -24 87 -24 91 -4 66 8 -10 12 -12 7 -4 -28 53
-133 168 -133 146z"/>
<path d="M4280 4427 c0 -5 18 -30 41 -55 58 -66 162 -225 198 -302 75 -161 88
-323 37 -475 -3 -11 3 0 15 25 16 32 23 71 27 135 8 159 -43 307 -169 493 -59
88 -148 194 -149 179z"/>
<path d="M1168 4403 c-21 -24 -61 -104 -55 -110 3 -3 11 6 18 19 6 12 23 42
36 66 26 44 26 54 1 25z"/>
<path d="M4080 4388 c0 -4 13 -29 30 -56 54 -89 78 -156 96 -267 40 -259 -24
-495 -160 -596 -43 -31 -38 -40 6 -11 67 44 137 167 164 290 13 56 15 106 12
201 -5 133 1 134 28 6 9 -39 15 -119 15 -180 0 -120 -24 -223 -76 -315 l-25
-45 25 30 c39 47 84 184 91 278 11 156 -37 369 -121 537 -39 78 -84 145 -85
128z"/>
<path d="M2950 4308 c0 -7 -3 -24 -7 -37 -4 -16 -3 -22 5 -17 48 29 23 -384
-35 -567 -14 -45 -43 -105 -70 -145 -25 -37 -37 -59 -25 -49 68 61 114 175
142 350 28 178 33 271 20 362 -6 44 -12 88 -13 98 -1 19 -17 24 -17 5z"/>
<path d="M1074 4224 c-4 -10 -16 -41 -26 -68 -43 -111 -59 -208 -65 -378 -3
-96 -2 -168 3 -168 5 0 10 69 10 153 1 166 14 242 64 386 16 46 28 87 25 89
-2 3 -8 -4 -11 -14z"/>
<path d="M3421 4103 c-1 -7 9 -48 21 -90 18 -63 23 -104 23 -213 0 -153 -12
-203 -71 -293 -33 -50 -34 -50 -5 -18 89 102 117 286 73 486 -20 89 -40 151
-41 128z"/>
<path d="M2557 4077 c-14 -22 -123 -244 -182 -372 -30 -64 -125 -214 -148
-233 -11 -10 -24 -4 -60 29 l-47 40 22 30 c12 16 19 31 16 35 -4 3 -14 -6 -23
-20 -10 -14 -21 -26 -25 -26 -5 0 -50 37 -102 81 -162 142 -245 184 -278 144
-9 -11 -11 -36 -7 -83 10 -113 96 -292 192 -398 24 -27 44 -52 45 -55 0 -4 18
-19 41 -35 23 -15 36 -30 30 -32 -24 -8 -9 -20 32 -26 127 -18 144 -18 175 -2
34 17 78 84 88 132 4 23 15 33 50 48 25 10 43 21 40 23 -3 3 -21 -2 -40 -11
-38 -18 -56 -20 -56 -7 0 5 -21 32 -46 60 l-47 52 21 22 c25 27 112 168 136
222 10 22 59 121 108 219 81 163 105 224 65 163z m-705 -328 c91 -63 277 -226
391 -341 58 -59 67 -74 67 -105 0 -46 -42 -118 -80 -138 -115 -59 -301 86
-423 331 -73 146 -98 261 -60 282 21 12 63 0 105 -29z"/>
<path d="M3948 3935 c7 -191 -20 -321 -88 -421 -18 -26 -28 -44 -22 -40 26 16
71 95 92 161 25 80 38 306 22 385 -7 33 -8 10 -4 -85z"/>
<path d="M2851 4019 c-5 -70 -252 -468 -364 -586 -17 -18 -27 -33 -23 -33 10
0 78 76 117 130 149 205 286 448 276 488 -4 14 -5 14 -6 1z"/>
<path d="M990 3498 c0 -26 4 -38 8 -30 8 12 4 72 -4 72 -2 0 -4 -19 -4 -42z"/>
<path d="M4445 3443 c-22 -19 -57 -44 -77 -54 -38 -20 -46 -33 -28 -44 6 -3
10 0 10 7 0 7 23 26 51 43 50 29 96 71 88 79 -2 2 -22 -12 -44 -31z"/>
<path d="M955 3293 c-33 -92 -58 -148 -93 -213 -20 -36 -29 -59 -21 -53 34 27
150 295 135 310 -2 2 -12 -17 -21 -44z"/>
<path d="M3024 3292 l-31 -47 -109 -6 c-101 -5 -214 -28 -256 -50 -10 -5 -15
-16 -11 -25 4 -10 -2 -17 -16 -21 -27 -7 -27 -17 0 -44 19 -19 29 -21 93 -16
97 8 338 36 354 42 24 9 12 59 -26 107 -12 14 -11 21 11 50 32 44 40 58 30 57
-4 0 -22 -21 -39 -47z"/>
<path d="M4334 3199 c4 -46 18 -110 31 -144 27 -72 147 -306 154 -299 2 2 -30
73 -72 157 -85 171 -97 206 -97 294 0 35 -5 65 -11 69 -9 5 -10 -15 -5 -77z"/>
<path d="M4206 3243 c-16 -33 -46 -162 -45 -195 0 -13 9 15 20 62 10 47 26
102 34 123 17 43 12 50 -9 10z"/>
<path d="M4053 3200 l-33 -37 -57 12 c-32 7 -90 16 -129 19 -62 6 -73 4 -97
-14 -22 -17 -25 -26 -20 -53 3 -18 10 -35 15 -38 13 -9 258 -32 293 -28 28 4
30 7 29 44 -1 21 -7 41 -13 43 -6 2 5 23 25 48 44 54 32 58 -13 4z"/>
<path d="M1885 3135 c-51 -18 -110 -82 -148 -164 -24 -51 -30 -76 -30 -130 1
-77 29 -160 74 -217 66 -83 211 -171 297 -179 45 -5 44 -4 -19 15 -150 44
-281 152 -318 261 -25 76 -27 158 -4 221 19 53 74 131 114 160 61 45 162 40
239 -13 l45 -31 -36 35 c-25 24 -52 38 -88 46 -65 14 -77 13 -126 -4z"/>
<path d="M4144 2980 c18 -89 36 -209 36 -244 -1 -118 -62 -258 -146 -335 -98
-89 -340 -237 -486 -296 -113 -45 -161 -56 -288 -64 -102 -6 -105 -7 -118 -34
-8 -15 -15 -60 -17 -100 -1 -40 -1 -58 2 -42 8 59 60 72 100 25 22 -26 31 -30
78 -30 57 0 85 -7 85 -21 0 -4 -15 -25 -32 -46 l-33 -38 32 25 c39 31 56 63
40 79 -6 6 -39 11 -74 11 -50 0 -67 4 -83 20 -11 11 -20 25 -20 31 0 7 -15 10
-40 7 -37 -3 -40 -2 -40 22 0 14 6 36 13 50 12 24 18 25 127 32 137 8 213 29
360 102 262 131 438 264 494 374 34 67 56 158 56 233 0 68 -26 225 -42 249 -7
11 -8 9 -4 -10z"/>
<path d="M778 2938 c-26 -50 -58 -128 -58 -141 1 -7 11 13 24 44 13 30 31 67
40 82 10 14 16 31 14 37 -2 6 -11 -4 -20 -22z"/>
<path d="M705 2736 c-4 -26 -3 -52 4 -63 8 -14 10 -5 11 45 0 34 -2 62 -4 62
-3 0 -8 -20 -11 -44z"/>
<path d="M4542 2643 c18 -90 -3 -204 -76 -411 -40 -115 -44 -168 -17 -227 24
-49 27 -32 5 21 -22 52 -14 105 34 234 54 143 75 243 70 335 -2 41 -8 79 -15
86 -8 8 -8 -2 -1 -38z"/>
<path d="M3100 2595 c0 -12 110 -58 170 -71 50 -10 82 -11 119 -4 48 9 157 57
149 65 -2 2 -28 -8 -58 -23 -76 -37 -175 -42 -263 -13 -35 12 -73 28 -83 36
-19 15 -34 19 -34 10z"/>
<path d="M2170 2402 c0 -11 99 -105 173 -164 27 -21 91 -59 142 -84 l92 -46 6
-71 c4 -39 5 -73 3 -74 -2 -2 -22 4 -46 12 -70 25 -104 20 -137 -19 -18 -22
-40 -36 -60 -39 -64 -10 -67 -26 -21 -116 29 -57 33 -90 6 -63 -18 18 -77 14
-126 -8 -48 -22 -204 -132 -196 -139 2 -2 17 5 32 16 92 68 167 114 202 123
43 12 83 5 101 -16 6 -8 15 -14 19 -14 14 0 -10 83 -36 128 -14 24 -23 49 -21
56 3 8 23 17 44 21 26 4 47 18 66 41 32 39 52 41 125 18 36 -12 52 -23 56 -38
3 -11 3 23 1 77 -3 85 -1 97 13 97 9 1 -32 25 -93 54 -127 61 -167 89 -270
187 -41 40 -75 67 -75 61z"/>
<path d="M3934 2202 c-45 -33 -74 -84 -74 -130 0 -28 -2 -29 -59 -35 -141 -15
-276 -108 -318 -219 -14 -36 -13 -35 42 50 59 91 184 154 312 156 35 1 63 4
63 9 0 4 -7 7 -15 7 -23 0 -19 62 8 100 32 48 69 72 120 77 58 7 108 -10 147
-50 53 -53 78 -126 64 -182 -5 -22 -11 -26 -30 -22 -35 6 -30 0 24 -27 80 -40
164 -111 216 -179 l49 -65 20 25 c28 35 61 45 107 33 84 -23 129 -91 130 -198
0 -34 -6 -78 -14 -96 -14 -35 -53 -69 -68 -60 -4 3 -8 0 -8 -5 0 -6 -17 -11
-37 -11 -28 0 -34 -3 -23 -10 8 -5 26 -6 39 -3 24 6 24 6 19 -58 -3 -39 -17
-93 -36 -137 -16 -39 -27 -72 -23 -72 19 0 66 137 76 218 5 44 12 65 25 72 69
37 84 210 26 300 -26 40 -98 80 -145 80 -31 0 -32 2 -26 29 3 17 2 32 -4 36
-7 4 -11 -8 -11 -33 0 -28 -7 -45 -25 -62 l-25 -24 -17 25 c-35 50 -117 129
-172 166 l-57 38 0 71 c1 60 -3 76 -26 111 -46 70 -91 97 -167 101 -60 3 -70
1 -107 -26z"/>
<path d="M893 2048 c-18 -24 -24 -38 -16 -38 11 1 46 50 35 50 -5 0 -14 -6
-19 -12z"/>
<path d="M797 1888 c-45 -92 -82 -219 -75 -255 2 -10 12 22 22 71 13 59 35
121 67 183 26 51 44 93 39 93 -4 0 -28 -42 -53 -92z"/>
<path d="M2634 1922 c-6 -4 -16 -17 -23 -29 -15 -30 -66 -31 -124 -3 -40 20
-41 20 -20 1 32 -27 119 -47 138 -31 8 7 15 18 15 26 0 21 37 36 59 24 19 -10
23 -18 35 -72 7 -29 42 -46 71 -34 13 5 13 9 3 25 -18 29 -4 36 62 36 61 -1
106 -25 96 -51 -11 -28 46 -47 61 -20 4 8 15 15 23 17 23 4 80 -11 80 -22 0
-6 4 -8 10 -4 5 3 18 0 29 -7 16 -10 27 -8 61 7 23 11 52 18 64 18 18 -2 18 0
5 7 -12 7 -31 3 -64 -11 -40 -18 -49 -19 -68 -7 -59 37 -147 45 -147 12 0 -8
-8 -14 -19 -14 -13 0 -20 10 -25 30 -9 47 -90 73 -164 53 -20 -5 -23 -11 -20
-34 3 -22 0 -29 -12 -29 -24 0 -40 21 -40 51 0 18 -9 35 -26 48 -28 22 -42 25
-60 13z"/>
<path d="M3999 1792 c-50 -52 -79 -94 -79 -114 1 -16 96 87 117 125 23 44 11
41 -38 -11z"/>
<path d="M2522 1770 c0 -14 2 -19 5 -12 2 6 2 18 0 25 -3 6 -5 1 -5 -13z"/>
<path d="M2572 1760 c0 -14 2 -19 5 -12 2 6 2 18 0 25 -3 6 -5 1 -5 -13z"/>
<path d="M3385 1771 c-14 -7 0 -10 53 -10 56 -1 83 -6 120 -25 101 -52 172
-161 172 -264 0 -67 -17 -97 -62 -108 -27 -6 -28 -5 -30 37 l-1 44 -4 -38 c-4
-34 -7 -38 -26 -33 -12 3 -25 6 -29 6 -5 0 -8 14 -8 30 0 17 -5 30 -11 30 -6
0 -8 -9 -4 -20 8 -26 1 -25 -36 3 -38 27 -72 84 -95 161 -16 50 -20 55 -25 35
-4 -13 -7 -74 -8 -136 -1 -68 -9 -155 -22 -220 -22 -118 -93 -369 -140 -496
-16 -44 -27 -82 -25 -84 13 -13 135 371 172 542 9 44 20 148 24 230 4 83 7
143 8 135 5 -38 63 -138 97 -169 54 -47 120 -74 161 -68 33 6 34 5 34 -31 0
-94 -47 -289 -110 -457 -62 -168 -118 -271 -207 -385 -24 -31 -25 -33 -4 -15
136 116 331 615 331 849 0 33 6 61 17 76 12 17 18 44 17 80 0 108 -86 237
-186 280 -57 24 -142 35 -173 21z"/>
<path d="M2762 1720 c0 -14 2 -19 5 -12 2 6 2 18 0 25 -3 6 -5 1 -5 -13z"/>
<path d="M2941 1684 c0 -11 3 -14 6 -6 3 7 2 16 -1 19 -3 4 -6 -2 -5 -13z"/>
<path d="M2320 1676 c0 -16 60 -127 121 -225 81 -129 197 -273 319 -396 55
-56 100 -107 100 -114 0 -6 4 -10 9 -7 9 6 111 -102 211 -221 28 -35 54 -63
57 -63 17 0 -119 155 -261 300 -257 261 -359 389 -485 609 -39 69 -71 121 -71
117z"/>
<path d="M3320 1663 c0 -9 -10 -28 -22 -42 l-23 -24 27 19 c16 11 28 29 28 42
0 12 -2 22 -5 22 -3 0 -5 -8 -5 -17z"/>
<path d="M3001 1654 c0 -11 3 -14 6 -6 3 7 2 16 -1 19 -3 4 -6 -2 -5 -13z"/>
<path d="M2728 1583 c7 -3 16 -2 19 1 4 3 -2 6 -13 5 -11 0 -14 -3 -6 -6z"/>
<path d="M2318 1573 c6 -2 18 -2 25 0 6 3 1 5 -13 5 -14 0 -19 -2 -12 -5z"/>
<path d="M2556 1567 c3 -10 9 -15 12 -12 3 3 0 11 -7 18 -10 9 -11 8 -5 -6z"/>
<path d="M2521 1554 c0 -11 3 -14 6 -6 3 7 2 16 -1 19 -3 4 -6 -2 -5 -13z"/>
<path d="M1890 1530 c-78 -25 -126 -47 -195 -88 -76 -45 -167 -113 -161 -120
3 -2 23 10 44 27 22 17 42 31 45 31 3 0 8 -19 10 -42 3 -43 4 -43 5 8 l2 50
73 42 c79 45 160 79 216 90 20 5 31 11 26 14 -6 3 -35 -2 -65 -12z"/>
<path d="M2208 1520 c-24 -16 -53 -39 -64 -52 -10 -12 4 -4 32 18 28 21 60 44
70 51 11 6 16 12 13 12 -3 1 -26 -12 -51 -29z"/>
<path d="M4080 1531 c0 -21 66 -84 83 -78 23 7 17 29 -16 62 -39 39 -67 45
-67 16z"/>
<path d="M4353 1498 c-61 -64 -87 -108 -63 -108 11 0 130 137 130 150 0 20
-17 9 -67 -42z"/>
<path d="M2888 1533 c6 -2 18 -2 25 0 6 3 1 5 -13 5 -14 0 -19 -2 -12 -5z"/>
<path d="M736 1505 c7 -38 45 -104 75 -130 17 -15 15 -9 -10 27 -17 26 -41 67
-51 90 -17 35 -19 38 -14 13z"/>
<path d="M2571 1514 c0 -11 3 -14 6 -6 3 7 2 16 -1 19 -3 4 -6 -2 -5 -13z"/>
<path d="M2973 1523 c20 -2 54 -2 75 0 20 2 3 4 -38 4 -41 0 -58 -2 -37 -4z"/>
<path d="M2058 1495 c-3 -3 1 -20 9 -36 8 -17 13 -33 10 -35 -3 -3 1 -13 10
-22 8 -9 34 -52 58 -95 52 -93 141 -219 213 -299 28 -32 52 -64 52 -70 0 -6 3
-9 6 -5 6 6 140 -119 254 -238 201 -208 299 -371 357 -590 16 -64 21 -76 17
-41 -13 111 -80 273 -165 397 -70 104 -139 181 -336 377 -193 192 -293 313
-378 456 -39 67 -85 159 -96 194 -3 7 -7 10 -11 7z"/>
<path d="M2772 1480 c0 -14 2 -19 5 -12 2 6 2 18 0 25 -3 6 -5 1 -5 -13z"/>
<path d="M3321 1484 c0 -11 3 -14 6 -6 3 7 2 16 -1 19 -3 4 -6 -2 -5 -13z"/>
<path d="M3184 1395 c0 -55 1 -76 3 -47 2 29 2 74 0 100 -2 26 -3 2 -3 -53z"/>
<path d="M3223 1435 c0 -33 2 -45 4 -27 2 18 2 45 0 60 -2 15 -4 0 -4 -33z"/>
<path d="M2583 1440 c0 -25 2 -35 4 -22 2 12 2 32 0 45 -2 12 -4 2 -4 -23z"/>
<path d="M1923 1415 c0 -27 2 -38 4 -22 2 15 2 37 0 50 -2 12 -4 0 -4 -28z"/>
<path d="M2963 1385 c0 -38 2 -53 4 -32 2 20 2 52 0 70 -2 17 -4 1 -4 -38z"/>
<path d="M2008 1433 c6 -2 18 -2 25 0 6 3 1 5 -13 5 -14 0 -19 -2 -12 -5z"/>
<path d="M2366 1431 c-4 -5 3 -7 14 -4 23 6 26 13 6 13 -8 0 -17 -4 -20 -9z"/>
<path d="M3011 1414 c0 -11 3 -14 6 -6 3 7 2 16 -1 19 -3 4 -6 -2 -5 -13z"/>
<path d="M2763 1385 c0 -22 2 -30 4 -17 2 12 2 30 0 40 -3 9 -5 -1 -4 -23z"/>
<path d="M4545 1331 c0 -89 10 -107 22 -38 6 39 -4 127 -15 127 -4 0 -7 -40
-7 -89z"/>
<path d="M2290 1380 c-19 -17 -30 -30 -24 -30 6 0 23 14 39 30 36 38 30 38
-15 0z"/>
<path d="M2812 1380 c0 -14 2 -19 5 -12 2 6 2 18 0 25 -3 6 -5 1 -5 -13z"/>
<path d="M2592 1350 c0 -14 2 -19 5 -12 2 6 2 18 0 25 -3 6 -5 1 -5 -13z"/>
<path d="M3495 1336 c22 -7 50 -18 63 -25 12 -6 22 -9 22 -6 0 10 -83 45 -105
44 -11 0 -2 -6 20 -13z"/>
<path d="M3835 1337 c48 -29 142 -128 187 -196 26 -40 48 -77 48 -80 0 -4 -16
-13 -35 -20 -60 -21 -94 -102 -73 -173 10 -34 8 -40 -15 -71 -14 -19 -41 -41
-59 -50 -18 -9 -26 -17 -16 -17 9 0 19 -9 21 -20 4 -18 5 -17 4 2 0 14 17 41
44 69 l44 46 40 -28 c22 -16 45 -28 50 -29 6 0 28 -9 50 -20 21 -11 41 -18 43
-15 3 3 -30 21 -72 40 -98 45 -126 74 -126 131 0 45 7 51 41 34 11 -6 19 -7
19 -1 0 5 -12 12 -26 15 -17 5 -24 12 -22 24 4 18 21 20 73 8 23 -5 25 -4 10
3 -11 5 -29 12 -39 15 -30 10 -5 27 48 33 59 7 158 -12 217 -42 57 -29 122
-102 145 -161 9 -24 23 -44 30 -44 16 0 19 16 4 25 -6 4 -19 23 -29 44 -11 20
-41 60 -68 88 -56 58 -129 91 -230 100 -48 5 -64 10 -68 24 -26 81 -204 281
-249 278 -6 0 -2 -6 9 -12z"/>
<path d="M2443 1313 c-10 -10 -14 -15 -8 -11 6 4 22 12 36 17 15 6 18 10 8 10
-9 1 -25 -7 -36 -16z"/>
<path d="M2771 1294 c0 -11 3 -14 6 -6 3 7 2 16 -1 19 -3 4 -6 -2 -5 -13z"/>
<path d="M2821 1284 c0 -11 3 -14 6 -6 3 7 2 16 -1 19 -3 4 -6 -2 -5 -13z"/>
<path d="M2971 1284 c0 -11 3 -14 6 -6 3 7 2 16 -1 19 -3 4 -6 -2 -5 -13z"/>
<path d="M1702 1270 c0 -14 2 -19 5 -12 2 6 2 18 0 25 -3 6 -5 1 -5 -13z"/>
<path d="M2369 1253 l-34 -38 38 34 c34 33 42 41 34 41 -2 0 -19 -17 -38 -37z"/>
<path d="M3011 1274 c0 -11 3 -14 6 -6 3 7 2 16 -1 19 -3 4 -6 -2 -5 -13z"/>
<path d="M3635 1260 c10 -11 20 -20 23 -20 3 0 -3 9 -13 20 -10 11 -20 20 -23
20 -3 0 3 -9 13 -20z"/>
<path d="M1469 1241 c-60 -59 -188 -219 -242 -300 -83 -126 -94 -144 -166
-285 -34 -65 -90 -163 -125 -216 -35 -54 -69 -107 -76 -119 -10 -19 -49 -259
-50 -305 0 -49 11 2 29 132 22 155 25 162 110 290 31 48 87 143 123 212 117
224 232 400 257 392 8 -3 11 0 7 7 -8 12 7 33 98 135 32 37 57 68 55 70 -2 2
-11 -4 -20 -13z"/>
<path d="M1650 1253 c0 -6 8 -17 18 -24 16 -13 16 -13 2 6 -8 11 -16 22 -17
24 -2 2 -3 0 -3 -6z"/>
<path d="M2780 1255 c0 -5 5 -17 10 -25 5 -8 10 -10 10 -5 0 6 -5 17 -10 25
-5 8 -10 11 -10 5z"/>
<path d="M3445 1249 c11 -7 46 -30 78 -51 31 -21 57 -36 57 -34 0 8 -117 86
-137 92 -14 4 -13 3 2 -7z"/>
<path d="M2530 1179 l-45 -41 48 37 c41 33 53 45 45 45 -2 0 -23 -18 -48 -41z"/>
<path d="M976 1175 c3 -16 8 -57 11 -90 4 -53 1 -67 -26 -117 -33 -64 -29 -80
5 -20 12 20 27 62 33 92 11 49 10 61 -8 110 -12 30 -19 42 -15 25z"/>
<path d="M1712 1180 c0 -14 2 -19 5 -12 2 6 2 18 0 25 -3 6 -5 1 -5 -13z"/>
<path d="M2735 1190 c11 -5 27 -9 35 -9 9 0 8 4 -5 9 -11 5 -27 9 -35 9 -9 0
-8 -4 5 -9z"/>
<path d="M2958 1193 c7 -3 16 -2 19 1 4 3 -2 6 -13 5 -11 0 -14 -3 -6 -6z"/>
<path d="M4485 1145 c-37 -64 -80 -110 -115 -125 -17 -7 -29 -15 -26 -17 11
-11 87 43 119 86 32 42 63 101 53 101 -2 0 -16 -20 -31 -45z"/>
<path d="M2828 1163 c6 -2 18 -2 25 0 6 3 1 5 -13 5 -14 0 -19 -2 -12 -5z"/>
<path d="M1731 1100 c0 -15 38 -91 39 -79 0 4 -9 26 -20 50 -11 24 -19 37 -19
29z"/>
<path d="M2091 1094 c0 -11 3 -14 6 -6 3 7 2 16 -1 19 -3 4 -6 -2 -5 -13z"/>
<path d="M3868 1083 c-32 -36 -58 -75 -58 -88 0 -5 10 6 21 25 12 19 33 47 47
63 14 15 23 27 21 27 -3 0 -17 -12 -31 -27z"/>
<path d="M3370 1096 c0 -2 7 -7 16 -10 8 -3 12 -2 9 4 -6 10 -25 14 -25 6z"/>
<path d="M2101 1044 c0 -11 3 -14 6 -6 3 7 2 16 -1 19 -3 4 -6 -2 -5 -13z"/>
<path d="M2640 1010 c-23 -27 -40 -50 -37 -50 3 0 24 23 47 50 23 28 40 50 37
50 -3 0 -24 -22 -47 -50z"/>
<path d="M3460 1047 c0 -2 19 -17 43 -32 23 -16 37 -22 30 -14 -12 15 -73 53
-73 46z"/>
<path d="M4556 999 c-14 -82 14 -139 94 -192 13 -10 31 -17 40 -17 8 1 -1 9
-20 20 -19 10 -48 32 -65 49 -25 27 -30 41 -35 109 -6 76 -6 77 -14 31z"/>
<path d="M1323 980 c0 -25 2 -35 4 -22 2 12 2 32 0 45 -2 12 -4 2 -4 -23z"/>
<path d="M1443 1003 c9 -2 23 -2 30 0 6 3 -1 5 -18 5 -16 0 -22 -2 -12 -5z"/>
<path d="M1806 967 c15 -21 41 -47 58 -58 l31 -21 -27 24 c-16 13 -42 39 -59
58 l-30 35 27 -38z"/>
<path d="M1510 985 c0 -5 5 -17 10 -25 5 -8 10 -10 10 -5 0 6 -5 17 -10 25 -5
8 -10 11 -10 5z"/>
<path d="M2093 925 c0 -22 2 -30 4 -17 2 12 2 30 0 40 -3 9 -5 -1 -4 -23z"/>
<path d="M1532 910 c0 -19 2 -27 5 -17 2 9 2 25 0 35 -3 9 -5 1 -5 -18z"/>
<path d="M1330 917 c0 -21 52 -77 72 -77 7 1 0 8 -15 16 -16 9 -35 30 -42 47
-9 20 -14 25 -15 14z"/>
<path d="M2789 872 l-54 -57 55 50 c30 28 57 51 59 53 2 1 2 4 0 7 -3 2 -30
-21 -60 -53z"/>
<path d="M3345 923 c6 -5 33 -26 60 -47 l50 -38 -40 37 c-22 20 -49 41 -60 47
-11 6 -15 6 -10 1z"/>
<path d="M2404 906 c-3 -8 -4 -27 -2 -43 3 -23 5 -20 9 15 5 43 2 53 -7 28z"/>
<path d="M2090 839 c0 -19 5 -41 10 -49 7 -10 8 -1 4 30 -8 56 -14 64 -14 19z"/>
<path d="M1990 836 c14 -7 41 -16 60 -19 33 -5 33 -5 10 6 -14 6 -27 14 -30
17 -3 3 -18 6 -35 7 l-30 2 25 -13z"/>
<path d="M2391 814 c0 -11 3 -14 6 -6 3 7 2 16 -1 19 -3 4 -6 -2 -5 -13z"/>
<path d="M1432 785 c0 -16 2 -22 5 -12 2 9 2 23 0 30 -3 6 -5 -1 -5 -18z"/>
<path d="M1550 797 c8 -7 21 -19 29 -27 11 -13 12 -12 3 6 -7 12 -19 24 -29
28 -16 5 -16 4 -3 -7z"/>
<path d="M735 784 l-30 -14 30 6 c17 3 34 10 40 15 14 13 -5 11 -40 -7z"/>
<path d="M989 764 c-20 -22 -26 -32 -14 -26 25 13 72 62 59 62 -6 0 -26 -16
-45 -36z"/>
<path d="M2460 793 c8 -3 30 -14 48 -25 17 -11 32 -17 32 -15 0 9 -67 47 -81
46 -11 0 -10 -2 1 -6z"/>
<path d="M2990 755 c-7 -9 -11 -17 -9 -20 3 -2 10 5 17 15 14 24 10 26 -8 5z"/>
<path d="M3260 757 c0 -2 15 -16 33 -33 l32 -29 -29 33 c-28 30 -36 37 -36 29z"/>
<path d="M1441 742 c-1 -14 27 -72 35 -72 2 0 -2 12 -9 28 -8 15 -17 34 -20
42 -4 10 -6 11 -6 2z"/>
<path d="M2022 715 c0 -16 2 -22 5 -12 2 9 2 23 0 30 -3 6 -5 -1 -5 -18z"/>
<path d="M2550 720 c6 -11 13 -20 16 -20 2 0 0 9 -6 20 -6 11 -13 20 -16 20
-2 0 0 -9 6 -20z"/>
<path d="M2361 723 c-1 -6 -4 -20 -7 -30 -5 -17 -5 -17 6 0 6 10 9 23 6 30 -3
9 -5 9 -5 0z"/>
<path d="M3818 723 c6 -2 18 -2 25 0 6 3 1 5 -13 5 -14 0 -19 -2 -12 -5z"/>
<path d="M1603 645 c0 -44 2 -61 4 -37 2 23 2 59 0 80 -2 20 -4 1 -4 -43z"/>
<path d="M3758 713 c7 -3 16 -2 19 1 4 3 -2 6 -13 5 -11 0 -14 -3 -6 -6z"/>
<path d="M4462 675 c-2 -25 -11 -65 -22 -90 -11 -25 -17 -45 -14 -45 3 0 13
19 24 43 21 48 36 137 24 137 -5 0 -10 -20 -12 -45z"/>
<path d="M3705 700 c-3 -6 1 -7 9 -4 18 7 21 14 7 14 -6 0 -13 -4 -16 -10z"/>
<path d="M4210 692 c13 -9 44 -34 68 -54 41 -36 72 -54 42 -24 -37 36 -116 96
-125 95 -5 0 1 -8 15 -17z"/>
<path d="M2571 674 c0 -11 3 -14 6 -6 3 7 2 16 -1 19 -3 4 -6 -2 -5 -13z"/>
<path d="M2916 662 l-19 -27 24 22 c12 12 21 24 18 27 -2 2 -13 -8 -23 -22z"/>
<path d="M3891 664 c0 -11 3 -14 6 -6 3 7 2 16 -1 19 -3 4 -6 -2 -5 -13z"/>
<path d="M2031 660 c0 -8 4 -22 9 -30 12 -18 12 -2 0 25 -6 13 -9 15 -9 5z"/>
<path d="M4121 635 c-17 -20 -31 -39 -31 -42 0 -4 3 -3 8 3 4 5 20 24 36 42
17 17 27 32 24 32 -3 0 -20 -16 -37 -35z"/>
<path d="M1490 656 c0 -2 8 -10 18 -17 15 -13 16 -12 3 4 -13 16 -21 21 -21
13z"/>
<path d="M3365 640 c10 -11 20 -20 23 -20 3 0 -3 9 -13 20 -10 11 -20 20 -23
20 -3 0 3 -9 13 -20z"/>
<path d="M1670 645 c0 -5 5 -17 10 -25 5 -8 10 -10 10 -5 0 6 -5 17 -10 25 -5
8 -10 11 -10 5z"/>
<path d="M2581 602 c-1 -28 1 -31 13 -20 8 7 10 15 6 18 -4 3 -10 12 -13 20
-3 8 -6 0 -6 -18z"/>
<path d="M3170 623 c0 -5 11 -20 25 -33 61 -57 129 -196 216 -440 26 -74 48
-130 48 -124 1 19 -85 263 -127 360 -21 50 -57 117 -79 150 -42 61 -83 104
-83 87z"/>
<path d="M3841 561 c-19 -25 -27 -40 -17 -32 20 17 60 71 55 75 -2 2 -19 -18
-38 -43z"/>
<path d="M1691 584 c0 -11 3 -14 6 -6 3 7 2 16 -1 19 -3 4 -6 -2 -5 -13z"/>
<path d="M2064 575 c23 -49 109 -125 140 -125 6 0 -10 13 -35 28 -41 26 -75
60 -107 108 -7 11 -6 6 2 -11z"/>
<path d="M3521 584 c0 -11 3 -14 6 -6 3 7 2 16 -1 19 -3 4 -6 -2 -5 -13z"/>
<path d="M4076 565 c-3 -9 -5 -33 -5 -53 2 -33 2 -32 9 13 8 53 6 66 -4 40z"/>
<path d="M2660 566 c0 -3 9 -10 20 -16 11 -6 20 -8 20 -6 0 3 -9 10 -20 16
-11 6 -20 8 -20 6z"/>
<path d="M3099 523 c-28 -26 -55 -56 -61 -68 -5 -11 2 -6 16 12 15 17 45 48
69 67 23 20 38 36 34 36 -4 0 -31 -21 -58 -47z"/>
<path d="M1702 535 c0 -16 2 -22 5 -12 2 9 2 23 0 30 -3 6 -5 -1 -5 -18z"/>
<path d="M3513 515 c0 -27 2 -38 4 -22 2 15 2 37 0 50 -2 12 -4 0 -4 -28z"/>
<path d="M1602 530 c0 -14 2 -19 5 -12 2 6 2 18 0 25 -3 6 -5 1 -5 -13z"/>
<path d="M2744 500 c53 -61 63 -71 39 -35 -12 17 -34 41 -49 55 -19 17 -15 10
10 -20z"/>
<path d="M4393 502 c3 -15 16 -54 28 -87 19 -51 37 -75 127 -162 l105 -102 -5
-76 c-3 -43 -1 -71 3 -63 5 7 9 43 9 81 0 74 4 69 -144 207 -54 50 -77 89
-101 173 -17 59 -32 78 -22 29z"/>
<path d="M2050 483 c18 -24 35 -43 37 -43 7 0 -35 56 -54 71 -9 8 -2 -5 17
-28z"/>
<path d="M2572 485 c0 -16 2 -22 5 -12 2 9 2 23 0 30 -3 6 -5 -1 -5 -18z"/>
<path d="M1223 445 c0 -27 2 -38 4 -22 2 15 2 37 0 50 -2 12 -4 0 -4 -28z"/>
<path d="M1760 471 c0 -6 4 -13 10 -16 6 -3 7 1 4 9 -7 18 -14 21 -14 7z"/>
<path d="M3699 463 c-13 -16 -12 -17 4 -4 16 13 21 21 13 21 -2 0 -10 -8 -17
-17z"/>
<path d="M4130 438 c-11 -18 -20 -37 -20 -42 0 -12 1 -10 28 37 26 45 19 50
-8 5z"/>
<path d="M1642 430 c0 -19 2 -27 5 -17 2 9 2 25 0 35 -3 9 -5 1 -5 -18z"/>
<path d="M2228 443 c7 -3 16 -2 19 1 4 3 -2 6 -13 5 -11 0 -14 -3 -6 -6z"/>
<path d="M2302 425 c0 -16 2 -22 5 -12 2 9 2 23 0 30 -3 6 -5 -1 -5 -18z"/>
<path d="M3484 418 c-36 -38 -74 -92 -74 -104 0 -5 12 9 26 31 39 58 76 95 87
88 6 -3 7 -1 3 5 -9 16 -8 17 -42 -20z"/>
<path d="M1384 411 c16 -11 35 -30 42 -43 8 -13 13 -17 14 -10 0 17 -54 72
-72 72 -7 0 0 -9 16 -19z"/>
<path d="M2093 423 c3 -5 26 -42 51 -83 25 -41 46 -70 46 -65 0 10 -90 155
-96 155 -3 0 -3 -3 -1 -7z"/>
<path d="M1791 404 c0 -11 3 -14 6 -6 3 7 2 16 -1 19 -3 4 -6 -2 -5 -13z"/>
<path d="M1803 320 c0 -36 2 -50 4 -32 2 17 2 47 0 65 -2 17 -4 3 -4 -33z"/>
<path d="M2311 364 c0 -11 3 -14 6 -6 3 7 2 16 -1 19 -3 4 -6 -2 -5 -13z"/>
<path d="M4102 360 c0 -14 2 -19 5 -12 2 6 2 18 0 25 -3 6 -5 1 -5 -13z"/>
<path d="M4202 355 c0 -16 2 -22 5 -12 2 9 2 23 0 30 -3 6 -5 -1 -5 -18z"/>
<path d="M3175 344 l-30 -26 33 22 c17 12 32 23 32 26 0 7 -4 5 -35 -22z"/>
<path d="M3811 354 c0 -11 3 -14 6 -6 3 7 2 16 -1 19 -3 4 -6 -2 -5 -13z"/>
<path d="M4022 335 c0 -16 2 -22 5 -12 2 9 2 23 0 30 -3 6 -5 -1 -5 -18z"/>
<path d="M1660 344 c0 -6 7 -19 16 -30 14 -18 14 -18 3 6 -14 31 -19 36 -19
24z"/>
<path d="M1240 333 c0 -16 59 -83 73 -83 6 0 1 7 -12 16 -12 9 -31 30 -42 48
-10 17 -19 26 -19 19z"/>
<path d="M1442 315 c0 -16 2 -22 5 -12 2 9 2 23 0 30 -3 6 -5 -1 -5 -18z"/>
<path d="M2836 316 c3 -9 12 -16 19 -16 7 0 32 -21 56 -47 36 -42 42 -35 7 7
-24 30 -89 74 -82 56z"/>
<path d="M3821 304 c0 -11 3 -14 6 -6 3 7 2 16 -1 19 -3 4 -6 -2 -5 -13z"/>
<path d="M1852 295 c15 -8 38 -34 52 -58 14 -23 26 -38 26 -33 0 30 -69 107
-95 106 -5 -1 2 -7 17 -15z"/>
<path d="M4396 270 c-20 -22 -36 -43 -36 -47 0 -4 3 -3 8 3 4 5 23 26 41 47
19 20 32 37 29 37 -3 0 -22 -18 -42 -40z"/>
<path d="M2330 293 c0 -33 102 -133 135 -133 6 0 -8 10 -30 23 -22 12 -55 44
-72 71 -18 26 -33 44 -33 39z"/>
<path d="M2842 270 c0 -14 2 -19 5 -12 2 6 2 18 0 25 -3 6 -5 1 -5 -13z"/>
<path d="M1481 263 c7 -12 15 -20 18 -17 3 2 -3 12 -13 22 -17 16 -18 16 -5
-5z"/>
<path d="M3811 263 c-1 -6 -4 -20 -7 -30 -5 -17 -5 -17 6 0 6 10 9 23 6 30 -3
9 -5 9 -5 0z"/>
<path d="M4032 250 c0 -14 2 -19 5 -12 2 6 2 18 0 25 -3 6 -5 1 -5 -13z"/>
<path d="M2196 247 c3 -10 9 -15 12 -12 3 3 0 11 -7 18 -10 9 -11 8 -5 -6z"/>
<path d="M4160 240 c-6 -11 -8 -20 -6 -20 3 0 10 9 16 20 6 11 8 20 6 20 -3 0
-10 -9 -16 -20z"/>
<path d="M1760 229 c0 -13 5 -31 10 -39 7 -11 8 -5 4 20 -8 43 -14 51 -14 19z"/>
<path d="M4427 209 c3 -24 7 -46 9 -48 9 -10 3 65 -5 78 -6 10 -8 -1 -4 -30z"/>
<path d="M1351 208 c-1 -26 6 -44 22 -60 12 -13 16 -16 8 -6 -8 10 -18 38 -22
61 l-6 42 -2 -37z"/>
<path d="M1503 185 c0 -27 2 -38 4 -22 2 15 2 37 0 50 -2 12 -4 0 -4 -28z"/>
<path d="M2210 215 c0 -5 5 -17 10 -25 5 -8 10 -10 10 -5 0 6 -5 17 -10 25 -5
8 -10 11 -10 5z"/>
<path d="M2832 190 c0 -19 2 -27 5 -17 2 9 2 25 0 35 -3 9 -5 1 -5 -18z"/>
<path d="M3559 193 l-24 -28 28 24 c15 14 27 26 27 28 0 8 -8 1 -31 -24z"/>
<path d="M4042 200 c0 -14 2 -19 5 -12 2 6 2 18 0 25 -3 6 -5 1 -5 -13z"/>
<path d="M2525 180 c-9 -16 -12 -30 -7 -30 4 0 13 14 19 30 6 17 10 30 7 30
-2 0 -10 -13 -19 -30z"/>
<path d="M3750 168 c-25 -23 -39 -38 -31 -33 9 5 19 1 29 -11 13 -18 14 -18 7
4 -5 18 0 31 21 53 40 42 26 35 -26 -13z"/>
<path d="M4096 183 c-6 -14 -5 -15 5 -6 7 7 10 15 7 18 -3 3 -9 -2 -12 -12z"/>
<path d="M1932 140 c0 -19 2 -27 5 -17 2 9 2 25 0 35 -3 9 -5 1 -5 -18z"/>
<path d="M2231 165 c1 -19 18 -51 18 -35 0 8 -4 22 -9 30 -5 8 -9 11 -9 5z"/>
<path d="M3288 163 c6 -2 18 -2 25 0 6 3 1 5 -13 5 -14 0 -19 -2 -12 -5z"/>
<path d="M4051 154 c0 -11 3 -14 6 -6 3 7 2 16 -1 19 -3 4 -6 -2 -5 -13z"/>
<path d="M3248 153 c7 -3 16 -2 19 1 4 3 -2 6 -13 5 -11 0 -14 -3 -6 -6z"/>
<path d="M4421 141 c-1 -8 -9 -24 -18 -35 -16 -20 -16 -20 6 0 13 12 21 28 18
35 -4 11 -6 11 -6 0z"/>
<path d="M1555 120 c10 -11 20 -20 23 -20 3 0 -3 9 -13 20 -10 11 -20 20 -23
20 -3 0 3 -9 13 -20z"/>
<path d="M2513 105 c0 -22 2 -30 4 -17 2 12 2 30 0 40 -3 9 -5 -1 -4 -23z"/>
<path d="M2821 124 c0 -11 3 -14 6 -6 3 7 2 16 -1 19 -3 4 -6 -2 -5 -13z"/>
<path d="M3145 130 c-13 -5 -14 -9 -5 -9 8 0 24 4 35 9 13 5 14 9 5 9 -8 0
-24 -4 -35 -9z"/>
<path d="M1453 85 c0 -27 2 -38 4 -22 2 15 2 37 0 50 -2 12 -4 0 -4 -28z"/>
<path d="M3521 123 c-1 -6 -4 -20 -7 -30 -5 -17 -5 -17 6 0 6 10 9 23 6 30 -3
9 -5 9 -5 0z"/>
<path d="M1883 75 c0 -27 2 -38 4 -22 2 15 2 37 0 50 -2 12 -4 0 -4 -28z"/>
<path d="M3065 100 c-3 -6 1 -7 9 -4 18 7 21 14 7 14 -6 0 -13 -4 -16 -10z"/>
<path d="M3763 65 c0 -22 2 -30 4 -17 2 12 2 30 0 40 -3 9 -5 -1 -4 -23z"/>
<path d="M1586 77 c3 -10 9 -15 12 -12 3 3 0 11 -7 18 -10 9 -11 8 -5 -6z"/>
<path d="M4309 53 l-24 -28 30 25 c17 14 32 26 34 28 2 1 0 2 -6 2 -5 0 -20
-12 -34 -27z"/>
<path d="M2520 51 c0 -6 4 -13 10 -16 6 -3 7 1 4 9 -7 18 -14 21 -14 7z"/>
<path d="M1601 34 c0 -11 3 -14 6 -6 3 7 2 16 -1 19 -3 4 -6 -2 -5 -13z"/>
</g>
</svg>
