<?xml version="1.0" standalone="no"?>
<!DOCTYPE svg PUBLIC "-//W3C//DTD SVG 20010904//EN"
 "http://www.w3.org/TR/2001/REC-SVG-20010904/DTD/svg10.dtd">
<svg version="1.0" xmlns="http://www.w3.org/2000/svg"
 width="1080.000000pt" height="1080.000000pt" viewBox="0 0 1080.000000 1080.000000"
 preserveAspectRatio="xMidYMid meet">

<g transform="translate(0.000000,1080.000000) scale(0.100000,-0.100000)"
fill="#000000" stroke="none">
<path d="M5770 9694 c-108 -10 -410 -76 -625 -135 -306 -84 -528 -177 -698
-290 -63 -42 -98 -59 -121 -59 -147 0 -457 -131 -750 -318 -419 -268 -756
-591 -1016 -977 -48 -71 -186 -331 -217 -410 -30 -75 -75 -230 -99 -340 -46
-219 -32 -477 37 -695 53 -165 167 -380 203 -380 29 0 25 32 -10 87 -70 110
-145 307 -176 463 -7 38 -12 137 -12 240 1 155 4 188 28 285 42 174 65 242
119 365 198 446 514 822 994 1181 226 169 540 345 718 400 63 20 188 40 213
34 21 -4 39 3 81 35 145 109 453 245 731 324 346 97 493 121 720 120 214 -1
309 -14 625 -80 234 -49 648 -207 887 -337 145 -79 389 -282 439 -365 13 -20
41 -58 64 -83 148 -167 377 -575 499 -886 100 -255 151 -428 276 -918 154
-606 226 -1260 191 -1740 -14 -191 -58 -563 -76 -639 -3 -12 -12 -64 -20 -116
-8 -52 -37 -205 -65 -340 -125 -602 -134 -663 -134 -865 0 -139 3 -173 26
-260 47 -183 139 -337 317 -530 323 -350 341 -572 78 -946 -140 -198 -157
-224 -157 -241 0 -44 40 -12 130 104 221 284 280 406 280 579 0 176 -84 341
-286 559 -194 209 -269 349 -309 574 -29 162 -12 342 69 742 19 93 50 247 70
341 56 275 109 618 136 878 17 169 23 558 11 729 -29 414 -107 878 -197 1171
-13 44 -51 186 -84 315 -110 427 -180 620 -350 965 -204 415 -524 810 -780
963 -301 179 -755 363 -1055 425 -277 59 -547 86 -705 71z"/>
<path d="M4072 8328 c-26 -32 -58 -238 -68 -433 -10 -211 30 -485 103 -705 67
-201 173 -382 309 -529 71 -77 223 -200 247 -201 37 0 15 39 -59 105 -88 77
-183 178 -235 250 -113 158 -210 401 -261 655 -21 104 -23 142 -23 390 1 222
4 292 18 363 14 68 15 92 6 103 -14 17 -24 18 -37 2z"/>
<path d="M1640 7831 c-84 -26 -146 -78 -179 -151 -32 -69 -29 -226 4 -326 43
-128 59 -154 239 -389 44 -57 76 -133 76 -181 0 -12 7 -27 15 -34 25 -21 45 5
45 59 0 86 80 217 223 366 84 87 120 156 119 228 -2 164 -143 310 -257 267
-28 -11 -32 -9 -50 16 -30 42 -107 124 -125 133 -26 14 -84 20 -110 12z m115
-112 c23 -21 54 -65 70 -97 16 -31 33 -60 39 -64 22 -15 44 -8 50 16 8 31 47
41 84 22 79 -41 129 -159 103 -239 -14 -40 -41 -77 -131 -174 -72 -78 -160
-199 -160 -220 0 -26 -16 -10 -113 118 -146 193 -188 292 -190 443 -1 100 13
142 61 188 71 68 123 70 187 7z"/>
<path d="M6486 7324 c-3 -9 -6 -99 -6 -202 0 -102 -7 -402 -16 -666 -17 -520
-15 -740 11 -881 22 -122 76 -282 134 -390 38 -73 195 -322 282 -446 26 -39
105 -196 127 -256 17 -45 18 -53 5 -53 -8 0 -44 -31 -80 -70 -158 -171 -473
-327 -1047 -519 -130 -43 -243 -84 -252 -91 -33 -29 -56 -93 -61 -175 -5 -72
-3 -83 17 -108 37 -46 110 -77 327 -136 45 -12 44 -10 62 -131 24 -157 33
-252 32 -354 0 -59 -2 -111 -5 -114 -3 -2 -43 -16 -88 -30 -245 -73 -563 -111
-773 -93 -138 11 -152 15 -161 44 -29 95 -250 490 -350 628 -38 52 -42 69 -16
69 9 0 40 13 67 29 38 22 58 43 80 82 29 52 30 58 29 178 -1 148 -3 151 -115
170 -226 39 -541 132 -734 218 -288 127 -380 202 -470 388 -80 163 -86 200
-95 540 -9 316 -24 458 -75 700 -34 159 -40 184 -77 292 -31 92 -50 115 -75
90 -11 -10 -9 -27 11 -97 42 -144 78 -305 115 -520 31 -177 33 -213 35 -488 2
-243 3 -262 28 -353 29 -107 78 -210 148 -314 53 -79 81 -105 177 -171 192
-131 603 -275 943 -329 58 -9 108 -20 113 -24 12 -12 11 -172 -2 -218 -16 -58
-38 -75 -150 -120 -139 -55 -441 -210 -580 -298 -134 -85 -295 -229 -366 -330
-59 -82 -120 -211 -146 -310 -18 -66 -22 -109 -23 -247 -1 -143 1 -170 16
-184 31 -31 38 -8 38 126 0 328 108 558 360 771 65 55 173 129 188 129 13 0
49 -62 127 -219 116 -232 202 -476 235 -662 15 -87 19 -99 34 -99 33 0 38 26
21 122 -45 267 -183 630 -321 845 -28 44 -31 53 -18 64 27 23 387 199 395 193
14 -8 156 -228 233 -359 38 -66 101 -182 138 -257 68 -135 70 -138 101 -137
18 1 79 -4 137 -11 154 -17 353 -3 555 40 110 23 275 72 335 99 l44 20 4 128
c3 132 -9 277 -34 397 -8 38 -13 70 -11 72 2 2 25 -3 53 -10 79 -21 215 -89
263 -133 41 -36 45 -44 48 -94 6 -110 79 -373 165 -593 53 -136 92 -210 149
-288 19 -26 55 -76 81 -111 26 -36 57 -90 68 -120 22 -58 41 -75 60 -52 21 26
-20 122 -109 255 -92 136 -151 252 -206 405 -42 114 -119 371 -129 429 -7 37
-6 39 10 25 26 -21 114 -159 114 -179 0 -23 26 -44 45 -36 46 17 -42 196 -157
320 -140 151 -271 219 -543 282 -125 29 -249 68 -282 90 -20 12 -23 23 -23 78
0 64 17 123 42 143 7 6 51 22 98 36 47 14 135 40 195 58 314 92 704 266 865
386 63 47 147 130 171 170 11 18 22 33 24 33 8 0 26 -80 41 -185 18 -127 14
-279 -10 -370 -9 -33 -63 -154 -120 -270 -148 -299 -196 -457 -196 -651 0
-158 56 -386 132 -539 36 -72 113 -155 145 -155 39 0 36 21 -11 68 -54 53 -94
132 -129 252 -51 171 -61 239 -61 380 1 211 30 309 182 620 135 276 137 286
136 515 0 173 -3 199 -27 290 -53 199 -121 337 -293 597 -153 229 -202 321
-248 458 -70 209 -83 360 -67 770 15 377 26 1109 17 1143 -7 30 -40 37 -50 11z"/>
<path d="M5540 7273 c0 -69 86 -327 166 -499 30 -65 40 -96 31 -99 -6 -2 -30
-6 -52 -10 -63 -10 -168 -45 -194 -64 -16 -13 -22 -24 -17 -36 7 -20 18 -19
141 14 44 11 103 21 130 21 50 0 50 -1 80 -52 36 -62 134 -183 178 -219 52
-42 74 -51 98 -39 27 15 23 24 -36 68 -50 38 -166 187 -180 231 -7 23 -7 24
51 17 123 -15 262 -68 339 -132 42 -34 75 -40 75 -14 0 24 -100 109 -161 138
-83 39 -195 70 -288 78 l-74 7 -54 113 c-66 139 -116 266 -158 404 -27 87 -36
106 -54 108 -18 3 -21 -2 -21 -35z"/>
<path d="M9308 6707 c-60 -23 -115 -73 -145 -135 -25 -51 -28 -67 -27 -152 2
-98 5 -113 73 -302 17 -47 36 -110 41 -138 9 -47 7 -56 -15 -94 -28 -49 -32
-78 -10 -96 19 -16 32 -6 49 35 21 50 104 88 252 116 193 35 254 55 295 99 53
55 61 135 22 227 -35 86 -138 151 -219 138 -49 -7 -47 -9 -59 92 -7 67 -45
150 -84 187 -24 23 -42 30 -83 33 -29 2 -70 -3 -90 -10z m142 -99 c46 -75 57
-144 48 -278 -3 -30 0 -35 20 -38 12 -2 34 6 48 17 19 15 41 21 75 21 40 0 55
-5 84 -31 46 -41 66 -79 67 -133 1 -82 -32 -107 -177 -132 -138 -24 -219 -42
-256 -58 l-36 -15 -12 54 c-7 29 -30 105 -53 167 -34 97 -41 127 -45 218 -5
124 6 155 75 207 36 27 53 33 93 33 45 0 51 -3 69 -32z"/>
<path d="M3139 6604 c-70 -84 153 -419 336 -504 36 -17 41 -18 55 -4 13 14 11
19 -25 47 -168 133 -291 300 -319 434 -8 36 -29 48 -47 27z"/>
<path d="M3828 6585 c-150 -25 -320 -100 -326 -143 -2 -12 3 -24 10 -27 8 -3
63 15 123 41 182 76 368 104 491 73 38 -10 48 -9 61 4 14 13 13 17 -8 30 -57
37 -205 47 -351 22z"/>
<path d="M5577 6037 c-9 -24 22 -76 62 -104 27 -19 38 -33 34 -43 -35 -86 -44
-262 -19 -357 24 -91 57 -143 112 -180 67 -44 109 -51 161 -25 110 57 184 233
154 372 -17 78 -71 180 -111 208 -54 36 -130 54 -181 43 -40 -9 -48 -8 -92 21
-27 17 -55 42 -64 55 -17 25 -48 31 -56 10z"/>
<path d="M2702 5953 c-6 -15 -13 -61 -17 -102 -22 -251 -91 -425 -329 -835
-184 -316 -251 -464 -302 -661 -26 -98 -29 -127 -29 -260 0 -180 19 -261 93
-398 62 -115 138 -203 290 -338 270 -239 371 -349 441 -480 123 -231 128 -518
12 -701 -16 -25 -64 -87 -108 -139 -167 -199 -213 -274 -242 -399 -25 -103
-26 -156 -5 -258 36 -177 148 -364 270 -452 43 -30 47 -31 62 -16 16 15 13 20
-34 64 -174 162 -273 430 -231 628 26 120 71 197 219 371 121 143 163 210 195
310 24 78 25 92 20 231 -6 165 -25 247 -85 367 -74 148 -164 255 -359 426
-372 325 -457 460 -470 744 -11 248 70 493 287 865 40 69 88 152 107 185 189
327 258 532 266 790 2 75 1 80 -19 83 -15 2 -24 -5 -32 -25z"/>
<path d="M3564 5915 c-7 -18 58 -101 86 -110 19 -6 20 -15 20 -137 0 -229 36
-351 125 -416 84 -63 164 -52 221 30 59 84 80 259 45 373 -47 155 -110 223
-217 231 -46 4 -67 1 -94 -14 -34 -19 -36 -19 -70 -2 -19 10 -44 27 -54 39
-22 25 -54 28 -62 6z"/>
<path d="M985 5700 c-55 -14 -80 -28 -112 -62 -108 -115 -72 -358 78 -523 68
-73 159 -134 336 -224 184 -93 255 -145 289 -212 21 -43 24 -56 15 -76 -14
-31 -14 -30 9 -43 49 -26 80 30 55 100 -33 95 -14 192 76 379 74 152 88 216
72 329 -36 246 -152 340 -316 255 -16 -8 -46 -30 -67 -49 l-38 -35 -27 36
c-72 94 -253 155 -370 125z m132 -74 c79 -17 142 -54 190 -112 77 -94 92 -107
108 -94 8 7 17 27 21 46 10 53 94 114 157 114 70 0 112 -68 137 -222 15 -95 7
-136 -55 -263 -55 -114 -83 -185 -96 -247 l-11 -49 -44 36 c-24 20 -110 70
-191 112 -255 131 -341 200 -402 324 -69 140 -62 282 15 330 29 18 72 33 104
38 3 0 33 -6 67 -13z"/>
<path d="M7370 5310 c-106 -18 -214 -77 -250 -135 -24 -39 -25 -68 -4 -86 14
-11 18 -10 30 6 8 10 14 24 14 30 0 13 43 54 80 76 49 29 144 52 215 52 171
-2 275 -96 275 -251 0 -169 -167 -382 -355 -452 -51 -18 -76 -21 -165 -18 -99
3 -105 2 -105 -17 0 -47 192 -58 300 -17 146 55 292 198 353 345 27 64 32 88
32 160 0 75 -3 91 -32 148 -65 128 -214 189 -388 159z"/>
<path d="M7323 4912 c-50 -21 -83 -49 -83 -73 0 -31 20 -32 83 -4 104 45 108
47 105 69 -4 27 -48 30 -105 8z"/>
<path d="M5138 4851 c-72 -84 -162 -97 -269 -40 -59 32 -62 32 -75 15 -16 -23
-6 -46 33 -74 35 -25 115 -52 152 -52 44 0 119 26 157 55 56 43 90 135 49 135
-7 0 -28 -17 -47 -39z"/>
</g>
</svg>
