<?xml version="1.0" standalone="no"?>
<!DOCTYPE svg PUBLIC "-//W3C//DTD SVG 20010904//EN"
 "http://www.w3.org/TR/2001/REC-SVG-20010904/DTD/svg10.dtd">
<svg version="1.0" xmlns="http://www.w3.org/2000/svg"
 width="564.000000pt" height="564.000000pt" viewBox="0 0 564.000000 564.000000"
 preserveAspectRatio="xMidYMid meet">

<g transform="translate(0.000000,564.000000) scale(0.100000,-0.100000)"
fill="#000000" stroke="none">
<path d="M2555 5306 c-95 -41 -156 -166 -172 -350 l-6 -75 -46 -17 c-214 -79
-322 -134 -456 -229 -188 -134 -344 -316 -444 -520 -73 -148 -114 -269 -148
-445 -23 -120 -26 -159 -26 -350 0 -181 4 -233 22 -330 13 -63 26 -182 31
-265 10 -180 28 -260 86 -382 100 -209 296 -346 574 -400 l45 -9 -78 -51 c-74
-47 -81 -49 -116 -40 -88 24 -168 -28 -191 -123 -18 -76 1 -157 52 -221 23
-28 98 -78 129 -84 25 -6 29 -10 23 -28 -7 -24 -111 -217 -124 -231 -5 -4 -51
-9 -104 -10 l-96 -1 -36 -37 c-32 -31 -38 -45 -41 -90 -4 -44 0 -62 22 -103
l27 -50 -43 -37 c-24 -20 -73 -61 -109 -90 -92 -77 -113 -110 -108 -174 10
-117 117 -177 318 -178 284 0 627 139 809 328 l63 67 72 -30 c128 -53 188 -64
346 -65 80 -1 170 3 201 7 l57 8 3 -83 c5 -109 34 -170 102 -215 64 -43 115
-56 212 -57 96 -1 157 19 204 68 27 28 34 45 41 97 9 76 29 122 104 249 41 70
70 106 109 136 124 96 174 239 121 345 -11 22 -9 39 11 120 34 131 55 271 60
391 l4 103 38 28 c133 99 246 228 302 348 16 35 32 71 34 80 3 9 30 28 61 43
291 143 410 590 300 1134 -76 382 -252 728 -509 1002 -51 54 -52 57 -63 140
-15 118 -45 195 -102 254 -41 43 -52 49 -98 54 -43 4 -58 0 -97 -22 -25 -15
-55 -40 -67 -56 -12 -17 -26 -30 -32 -30 -6 0 -51 16 -101 36 -88 35 -91 37
-109 82 -21 53 -86 165 -114 199 -11 12 -36 33 -57 47 -98 67 -215 4 -277
-147 l-23 -58 -77 -2 -77 -2 -24 55 c-37 86 -107 172 -177 218 -91 61 -169 77
-235 48z m163 -70 c92 -47 201 -190 227 -298 6 -24 2 -29 -46 -57 -122 -69
-359 -101 -438 -58 l-33 19 7 76 c14 165 58 283 119 322 43 27 106 26 164 -4z
m725 -114 c36 -35 117 -164 117 -188 0 -7 -25 -4 -72 7 -40 10 -119 24 -176
31 -103 12 -103 13 -97 38 10 43 59 114 95 138 46 31 82 23 133 -26z m-153
-207 c414 -48 763 -235 1027 -549 110 -131 170 -223 248 -381 241 -489 283
-1065 102 -1384 -42 -73 -122 -158 -177 -186 l-28 -14 -4 87 c-5 109 -38 179
-111 232 l-48 35 8 55 c14 99 8 328 -11 435 -24 133 -92 338 -151 455 -257
513 -711 772 -1276 730 -674 -51 -1122 -383 -1234 -915 -26 -123 -30 -319 -10
-445 20 -118 19 -104 10 -260 -9 -140 8 -230 61 -338 128 -260 444 -381 898
-343 76 6 143 13 149 14 7 1 14 -18 17 -43 3 -25 12 -56 19 -68 7 -13 11 -25
9 -26 -13 -11 -216 -29 -385 -33 -223 -6 -338 4 -492 43 -270 68 -457 244
-516 484 -9 36 -22 144 -30 240 -7 96 -21 213 -31 260 -14 66 -18 136 -18 320
0 219 2 244 27 365 35 165 76 284 139 408 165 322 426 549 793 688 l99 37 33
-28 c41 -36 84 -45 198 -43 176 3 405 96 405 165 0 16 9 18 78 18 42 0 133 -7
202 -15z m775 -51 c30 -19 71 -97 90 -169 25 -98 22 -103 -32 -58 -55 46 -153
113 -200 137 -39 19 -41 35 -10 64 55 52 101 60 152 26z m-825 -509 c47 -9 88
-20 93 -24 8 -8 -128 -110 -175 -131 -14 -7 -37 -10 -51 -7 -26 7 -197 162
-197 179 0 15 221 3 330 -17z m-442 -47 c-52 -78 -116 -148 -134 -148 -18 0
-234 111 -234 120 0 17 292 84 383 89 l28 1 -43 -62z m168 -71 c93 -88 132
-111 175 -102 18 4 81 40 141 81 60 41 111 74 113 74 2 0 27 -44 54 -97 59
-115 91 -153 128 -153 14 0 60 18 101 41 l75 41 91 -93 c217 -223 363 -533
407 -864 12 -91 8 -345 -6 -377 -5 -13 -19 -18 -52 -18 -90 0 -161 -60 -171
-145 -4 -38 -12 -52 -46 -81 -139 -120 -543 -235 -894 -255 -178 -9 -226 -20
-268 -60 -42 -40 -389 -63 -571 -38 -91 12 -227 56 -298 95 -115 64 -218 207
-246 342 -9 45 -8 234 2 317 1 6 -7 53 -16 105 -25 138 -17 380 17 505 44 159
128 325 200 392 22 21 25 21 83 7 85 -20 137 -18 167 6 26 20 122 156 172 243
15 26 29 47 32 47 3 0 56 -27 118 -60 150 -80 184 -91 222 -75 30 12 101 90
149 162 15 24 31 40 36 37 5 -3 43 -38 85 -77z m567 22 c66 -34 157 -91 157
-100 0 -4 -23 -21 -52 -37 -37 -22 -57 -28 -69 -22 -14 8 -99 157 -99 174 0
11 21 6 63 -15z m-1327 -142 c-31 -46 -67 -94 -81 -107 -22 -21 -27 -22 -86
-11 -34 6 -65 13 -68 17 -7 7 25 35 116 100 82 59 167 106 171 94 2 -6 -21
-48 -52 -93z m2075 -1424 c126 -64 158 -211 88 -399 -44 -118 -174 -275 -300
-360 l-69 -48 0 -100 c0 -110 -18 -248 -51 -386 l-20 -89 -48 6 c-28 3 -64 0
-85 -7 -35 -11 -42 -10 -96 19 -100 53 -166 72 -260 72 -97 1 -143 -12 -138
-39 3 -15 14 -17 94 -13 110 4 176 -13 283 -71 l74 -40 52 18 c45 15 57 16 84
4 90 -37 76 -195 -25 -292 -79 -75 -193 -112 -427 -137 -54 -6 -178 -30 -275
-53 -162 -38 -188 -41 -312 -41 -107 0 -152 4 -218 22 -197 51 -324 144 -392
285 -45 95 -60 166 -60 292 0 133 4 145 60 183 26 18 60 46 76 62 26 27 27 31
12 45 -15 15 -20 14 -60 -18 -69 -57 -154 -108 -224 -134 -184 -69 -364 23
-364 186 0 100 53 148 141 128 45 -10 49 -9 110 27 35 21 85 53 111 71 l48 34
152 -7 c154 -6 336 5 533 32 61 9 134 12 190 8 304 -19 723 102 868 252 102
104 157 164 206 223 47 55 52 66 47 95 -17 82 -17 95 -1 126 20 39 70 71 111
71 17 0 55 -12 85 -27z m-265 -205 c-18 -26 -157 -179 -226 -248 -80 -81 -245
-152 -450 -196 -147 -32 -394 -43 -455 -22 -71 25 -91 109 -39 162 32 31 94
46 198 46 257 0 692 106 888 216 35 19 70 42 78 50 21 21 23 17 6 -8z m-1890
-1166 c1 -199 48 -326 168 -447 l69 -70 -75 -70 c-91 -85 -207 -156 -330 -202
-274 -103 -539 -116 -641 -32 -32 26 -37 36 -37 71 0 36 6 47 48 87 26 25 87
78 135 116 139 111 265 277 380 503 l56 109 58 7 c32 4 78 16 103 26 25 10 50
18 55 19 6 1 10 -45 11 -117z m-470 -235 c7 -7 -42 -79 -93 -137 l-40 -44 -16
31 c-34 64 -22 127 26 149 30 13 111 14 123 1z m2064 -273 c0 -4 -16 -33 -36
-65 -49 -81 -85 -175 -88 -228 -2 -35 -9 -50 -34 -72 -66 -59 -205 -65 -309
-13 -81 41 -108 90 -108 197 0 55 4 80 14 86 25 16 211 51 345 66 72 8 145 19
161 24 37 11 55 13 55 5z"/>
<path d="M3387 4730 c-36 -28 -35 -64 2 -101 39 -39 91 -40 120 -3 27 35 26
48 -6 84 -38 41 -80 48 -116 20z"/>
<path d="M2100 4603 c-70 -26 -87 -117 -26 -145 47 -21 116 30 116 85 0 35
-56 72 -90 60z"/>
<path d="M3330 3378 c-60 -74 -62 -76 -51 -82 9 -6 101 100 101 117 0 17 -18
4 -50 -35z"/>
<path d="M2330 3322 c0 -8 133 -112 144 -112 20 0 -2 25 -60 70 -65 48 -84 58
-84 42z"/>
<path d="M3381 3263 c-49 -25 -72 -62 -74 -115 -2 -56 16 -92 61 -120 60 -37
151 -20 188 37 74 113 -56 261 -175 198z"/>
<path d="M2273 3179 c-17 -5 -43 -23 -57 -39 -73 -87 -12 -220 101 -220 73 0
138 72 129 143 -10 88 -89 141 -173 116z"/>
<path d="M3023 2991 c-7 -29 -35 -34 -83 -15 -41 17 -43 17 -59 -4 -28 -36
-101 -51 -101 -21 0 5 -7 9 -15 9 -24 0 -18 -28 10 -46 23 -15 25 -22 25 -93
1 -154 90 -246 175 -179 54 42 70 135 40 233 -13 44 -13 50 3 61 9 8 20 14 25
14 11 0 8 48 -4 55 -6 4 -13 -2 -16 -14z m-80 -63 c41 -32 61 -171 32 -228
-28 -55 -84 -51 -114 8 -43 86 -37 174 13 209 37 25 47 27 69 11z"/>
</g>
</svg>
