<?xml version="1.0" standalone="no"?>
<!DOCTYPE svg PUBLIC "-//W3C//DTD SVG 20010904//EN"
 "http://www.w3.org/TR/2001/REC-SVG-20010904/DTD/svg10.dtd">
<svg version="1.0" xmlns="http://www.w3.org/2000/svg"
 width="195.000000pt" height="109.000000pt" viewBox="0 0 195.000000 109.000000"
 preserveAspectRatio="xMidYMid meet">

<g transform="translate(0.000000,109.000000) scale(0.100000,-0.100000)"
fill="#000000" stroke="none">
<path d="M0 865 l0 -226 32 17 c30 16 31 18 13 25 -15 6 -16 8 -4 8 9 1 19 11
22 23 5 18 8 19 21 8 9 -7 24 -10 35 -7 10 2 23 2 28 -2 22 -15 43 -58 43 -88
0 -30 2 -32 29 -27 35 7 46 -8 29 -38 -7 -13 -11 -29 -9 -36 3 -19 -29 -41
-61 -42 -21 0 -28 -5 -28 -20 0 -26 -17 -25 -41 3 -10 12 -18 17 -19 10 0 -6
5 -15 10 -18 17 -10 -10 -36 -30 -30 -13 4 -20 -4 -30 -35 -7 -22 -19 -45 -27
-51 -7 -6 -13 -28 -13 -48 0 -25 3 -32 9 -22 5 8 7 20 4 28 -3 7 0 14 6 15 30
4 36 2 37 -12 1 -8 2 -21 3 -27 0 -7 8 -13 17 -13 8 0 22 -6 30 -14 19 -19 18
-75 -1 -82 -19 -8 -20 -24 -1 -24 21 0 30 -20 17 -33 -16 -16 -14 -37 3 -37 8
0 21 -9 29 -21 8 -11 18 -16 21 -11 3 5 -3 21 -14 35 -22 27 -26 42 -10 32 14
-9 13 38 -2 53 -19 19 0 27 20 9 23 -21 36 -21 52 -2 19 23 28 18 24 -12 -2
-16 -1 -21 2 -12 6 19 46 39 79 39 13 0 26 4 29 9 3 5 15 7 26 4 13 -4 20 -1
18 7 -3 13 65 23 94 14 10 -3 30 -26 44 -52 15 -26 42 -62 61 -79 l34 -33 25
26 c29 33 31 44 4 37 -14 -4 -20 0 -20 10 0 8 -4 17 -10 19 -5 2 -6 9 -1 16
10 17 41 5 41 -17 0 -13 2 -14 9 -2 7 12 13 12 24 3 7 -7 17 -9 20 -5 4 3 7 1
7 -6 0 -7 5 -9 10 -6 6 4 10 3 9 -2 -3 -19 2 -33 12 -33 6 0 8 9 4 21 -6 18
-5 19 14 7 12 -7 23 -20 26 -28 3 -8 16 -16 31 -16 31 -2 34 -5 40 -40 7 -41
11 -40 18 6 3 22 8 40 10 40 1 0 18 -7 36 -16 26 -14 34 -14 40 -3 5 7 7 16 4
20 -2 4 3 10 12 13 8 3 12 2 9 -3 -3 -5 -1 -12 5 -16 5 -3 10 1 10 9 0 9 5 17
10 17 12 2 21 4 40 11 128 48 189 68 204 68 9 0 15 4 12 8 -3 5 8 9 24 9 18 0
27 -4 23 -11 -3 -6 0 -6 7 1 17 15 22 64 7 62 -7 -1 -21 0 -32 1 -15 1 -16 3
-5 7 18 7 84 73 73 73 -4 0 -1 5 7 10 12 8 10 10 -10 10 -20 0 -22 2 -10 10
13 9 13 10 0 10 -8 0 8 9 36 18 56 20 108 64 124 107 14 38 12 140 -4 178 -28
65 -116 125 -210 143 -51 9 -95 31 -75 38 37 11 59 13 59 5 0 -5 12 -9 26 -9
39 0 209 -94 199 -110 -3 -5 3 -23 14 -42 22 -39 34 -142 22 -186 -7 -22 -5
-36 7 -53 12 -17 12 -21 1 -14 -10 5 -11 5 -4 -3 6 -6 24 -12 40 -14 l30 -4
-30 -14 c-28 -13 -29 -14 -7 -17 27 -5 28 -18 2 -36 -18 -13 -19 -15 -5 -21
21 -8 10 -26 -16 -26 -10 0 -19 -4 -19 -10 0 -5 5 -10 11 -10 5 0 7 -5 3 -11
-3 -6 -15 -8 -26 -6 -14 4 -18 2 -14 -9 3 -8 -1 -14 -9 -14 -8 0 -15 -5 -15
-11 0 -5 -4 -8 -9 -5 -5 4 -11 2 -13 -3 -2 -6 -22 -7 -46 -4 -30 4 -42 10 -38
19 3 8 -2 12 -15 11 -12 -1 -17 -7 -14 -14 2 -7 -7 -32 -21 -56 -33 -56 -57
-107 -61 -132 -6 -34 -12 -47 -22 -40 -5 3 -12 1 -16 -5 -4 -6 27 -10 88 -10
75 0 96 3 101 15 7 19 40 19 56 0 10 -12 49 -15 231 -15 l219 0 0 50 c0 43 -3
50 -20 50 -11 0 -20 5 -20 11 0 6 8 9 19 6 18 -4 18 8 20 309 2 289 1 313 -15
307 -13 -5 -15 -2 -9 15 3 12 3 32 -1 44 -6 21 -7 21 -20 3 -8 -10 -14 -29
-14 -41 0 -30 -25 -50 -44 -35 -10 8 -16 9 -21 1 -10 -15 -35 -12 -35 5 0 16
6 19 51 29 l27 6 -21 40 -20 41 -21 -20 c-12 -12 -34 -21 -47 -21 -20 0 -25
-5 -25 -22 1 -33 -47 -33 -49 -1 -2 32 -15 41 -26 20 -13 -23 -29 -22 -29 3 0
11 -5 29 -12 39 -6 10 -8 26 -5 35 5 13 15 15 47 10 41 -7 44 -4 43 42 0 6 15
17 34 23 26 10 37 10 48 1 12 -10 16 -8 24 11 7 20 4 27 -20 42 -15 10 -31 27
-34 38 -8 25 -26 24 -49 -2 -13 -15 -20 -18 -25 -10 -9 15 -27 -4 -33 -34 -4
-24 -38 -33 -50 -12 -12 22 -58 -1 -55 -27 1 -10 -4 -21 -10 -23 -9 -3 -13 5
-13 24 0 20 11 40 34 62 23 22 32 39 29 52 -5 17 -15 19 -107 19 -70 0 -110
-5 -130 -15 -26 -14 -27 -14 -15 1 11 14 9 15 -22 12 -30 -3 -34 -7 -37 -35
-4 -44 -22 -42 -22 2 l0 35 -157 -1 c-95 -1 -146 -4 -128 -9 17 -4 50 -15 75
-25 25 -9 63 -21 85 -25 68 -14 129 -33 142 -42 7 -5 17 -7 23 -3 5 3 10 2 10
-4 0 -18 -19 -22 -55 -12 -23 6 -33 6 -29 0 3 -6 -4 -13 -16 -16 -15 -4 -20
-11 -17 -24 3 -12 0 -19 -9 -19 -37 0 -67 -17 -60 -35 3 -8 -6 -30 -19 -49
-14 -20 -22 -36 -19 -36 4 0 -1 -12 -11 -26 -9 -15 -18 -36 -20 -48 -4 -28
-38 -120 -47 -127 -5 -3 -9 -17 -10 -32 -3 -32 -5 -32 -38 -7 -23 18 -18 26
12 21 4 0 5 12 2 28 -3 16 -1 32 5 35 5 4 8 13 5 20 -3 8 1 37 10 65 9 30 11
53 5 56 -5 4 -7 16 -4 28 3 12 7 57 8 100 3 87 -5 101 -60 109 -29 4 -40 -7
-22 -22 11 -9 18 -69 9 -75 -5 -3 -17 6 -26 20 -28 43 -98 70 -184 70 -81 0
-105 -4 -164 -29 -21 -9 -40 -16 -42 -16 -2 0 11 16 29 35 27 29 43 37 95 46
50 9 62 15 62 30 0 18 -10 19 -189 19 -142 0 -191 -3 -195 -12 -5 -10 -7 -10
-12 0 -3 6 -18 12 -33 12 -15 0 -33 -6 -40 -12 -11 -10 -13 -10 -7 0 5 8 0 12
-15 12 -18 0 -19 -2 -9 -15 7 -8 10 -15 7 -15 -3 0 -12 -3 -21 -6 -12 -4 -16
0 -16 15 0 20 -5 21 -80 21 l-80 0 0 -225z m240 144 c0 -5 -7 -9 -15 -9 -15 0
-20 12 -9 23 8 8 24 -1 24 -14z m-177 -10 c4 -16 3 -18 -9 -8 -16 13 -19 29
-5 29 5 0 11 -9 14 -21z m1691 -4 c-3 -7 -14 -15 -25 -18 -10 -3 -17 -2 -16 1
2 4 7 15 10 24 4 10 12 15 21 12 8 -3 12 -12 10 -19z m-1314 -20 c0 -8 -7 -15
-15 -15 -16 0 -20 12 -8 23 11 12 23 8 23 -8z m-76 -38 c8 -13 6 -21 -7 -34
-22 -22 -37 -7 -30 30 6 30 20 31 37 4z m415 -10 c9 -8 23 -17 32 -20 9 -3 30
-22 45 -43 25 -32 29 -46 29 -103 -1 -110 -13 -161 -39 -161 -21 0 -109 87
-101 99 4 7 2 17 -3 24 -6 7 -12 26 -14 42 -2 22 -9 31 -26 33 -19 3 -21 6
-11 18 35 43 -85 67 -137 28 -42 -31 -65 -67 -71 -111 -10 -74 49 -143 120
-143 9 0 17 -5 17 -11 0 -5 5 -7 10 -4 10 6 15 -21 11 -59 -2 -30 -8 -30 -36
-2 -33 33 -37 33 -29 0 5 -19 4 -25 -5 -20 -6 4 -11 2 -11 -3 0 -17 -18 -13
-45 11 -17 15 -23 28 -19 42 4 17 3 18 -5 6 -29 -41 -76 53 -67 132 13 123 94
219 216 259 34 11 119 3 139 -14z m485 -19 c-3 -4 5 -8 18 -8 20 -1 21 -2 6
-10 -10 -6 -25 -7 -40 -1 -12 6 -17 10 -9 10 10 1 11 4 2 15 -9 11 -9 15 1 19
14 4 29 -13 22 -25z m263 -10 c-3 -8 -6 -5 -6 6 -1 11 2 17 5 13 3 -3 4 -12 1
-19z m-177 -3 c0 -2 -10 -10 -22 -16 -21 -11 -22 -11 -9 4 13 16 31 23 31 12z
m-1074 -30 c4 -8 15 -15 25 -15 23 0 26 -35 4 -44 -8 -3 -15 -1 -15 4 0 6 -9
10 -20 10 -11 0 -23 7 -26 15 -8 19 2 45 16 45 6 0 13 -7 16 -15z m116 -27
c-11 -11 -42 1 -42 16 0 23 13 26 32 9 10 -9 15 -20 10 -25z m1188 38 c0 -3
-4 -8 -10 -11 -5 -3 -10 -1 -10 4 0 6 5 11 10 11 6 0 10 -2 10 -4z m0 -44 c0
-15 -22 -30 -36 -25 -19 7 -17 21 4 26 28 8 32 7 32 -1z m-200 -65 c24 -11 24
-11 -13 -15 -49 -4 -112 -66 -128 -126 -21 -78 11 -208 58 -235 31 -17 7 -22
-36 -8 -43 15 -139 77 -167 108 -9 10 -19 38 -21 62 -18 158 157 279 307 214z
m-1250 -27 c0 -5 -4 -10 -9 -10 -6 0 -13 5 -16 10 -3 6 1 10 9 10 9 0 16 -4
16 -10z m110 -16 c0 -8 -5 -12 -10 -9 -6 4 -8 11 -5 16 9 14 15 11 15 -7z
m1450 -40 c0 -8 -4 -14 -9 -14 -11 0 -22 26 -14 34 9 9 23 -3 23 -20z m-190
-26 c11 -24 19 -59 19 -78 -1 -30 -3 -28 -13 20 -7 30 -18 65 -25 78 -6 12 -9
22 -6 22 3 0 15 -19 25 -42z m360 12 c0 -12 -28 -25 -36 -17 -9 9 6 27 22 27
8 0 14 -5 14 -10z m-1522 -19 c3 -8 -1 -12 -9 -9 -7 2 -15 10 -17 17 -3 8 1
12 9 9 7 -2 15 -10 17 -17z m408 -39 c46 -44 68 -72 57 -72 -13 0 -93 79 -93
91 0 14 6 11 36 -19z m-356 -1 c0 -6 -4 -13 -10 -16 -5 -3 -10 1 -10 9 0 9 5
16 10 16 6 0 10 -4 10 -9z m260 -11 c0 -5 -5 -10 -11 -10 -5 0 -7 5 -4 10 3 6
8 10 11 10 2 0 4 -4 4 -10z m45 -49 c-8 -8 -35 22 -35 38 0 12 5 10 20 -9 10
-14 17 -27 15 -29z m-411 -20 c3 -5 -1 -14 -8 -20 -16 -13 -32 2 -21 19 8 12
22 13 29 1z m784 -66 c23 -16 42 -36 42 -44 0 -8 -8 -3 -19 11 -11 13 -38 33
-60 43 -22 11 -41 23 -41 27 0 11 32 -4 78 -37z m856 10 c-4 -8 -8 -15 -10
-15 -2 0 -4 7 -4 15 0 8 4 15 10 15 5 0 7 -7 4 -15z m-1593 -42 c13 -15 12
-15 -8 -4 -24 12 -29 21 -14 21 5 0 15 -7 22 -17z m-64 -10 c3 -7 -3 -10 -14
-7 -12 3 -21 -3 -28 -17 -15 -33 -35 -36 -35 -5 0 18 7 30 23 36 27 11 49 9
54 -7z m1633 8 c0 -6 -4 -13 -10 -16 -5 -3 -10 1 -10 9 0 9 5 16 10 16 6 0 10
-4 10 -9z m-1526 -45 c12 4 15 2 10 -9 -5 -14 -33 -27 -60 -27 -20 0 -24 29
-7 46 15 15 18 15 29 0 7 -10 18 -14 28 -10z m-299 4 c3 -5 1 -10 -4 -10 -6 0
-11 5 -11 10 0 6 2 10 4 10 3 0 8 -4 11 -10z m215 -54 c0 -8 6 -17 13 -20 9
-3 8 -8 -3 -18 -9 -7 -14 -20 -12 -29 4 -21 -49 -49 -78 -42 -29 8 -25 17 16
32 32 12 35 15 29 42 -4 16 -4 33 0 39 9 15 35 12 35 -4z m763 -16 c21 -4 60
-6 87 -5 28 2 50 2 50 -1 0 -12 -68 -73 -88 -79 -21 -6 -23 -4 -17 15 5 16 4
20 -4 15 -7 -4 -11 -16 -9 -28 2 -17 -2 -22 -18 -22 -12 -1 -28 -6 -35 -11
-38 -30 -149 -23 -197 13 -23 17 -28 42 -7 35 6 -2 32 -4 60 -3 27 0 55 -5 62
-11 8 -6 16 -8 19 -5 10 10 -6 27 -25 27 -10 0 -24 7 -32 16 -11 14 -13 14
-21 -1 -12 -20 -28 -10 -28 19 0 40 83 51 203 26z m-898 -16 c0 -10 -8 -20
-17 -22 -18 -3 -26 27 -11 42 12 11 28 0 28 -20z m632 1 c0 -8 -5 -11 -10 -8
-6 4 -7 -4 -3 -20 3 -14 2 -28 -3 -31 -17 -11 -21 48 -3 62 20 15 19 15 19 -3z
m43 8 c0 -5 -5 -15 -10 -23 -8 -12 -10 -11 -10 8 0 12 5 22 10 22 6 0 10 -3
10 -7z m-466 -48 c-25 -19 -34 -19 -34 0 0 10 10 15 27 15 26 0 26 -1 7 -15z
m909 -43 c-5 -22 -23 -31 -23 -12 0 10 23 40 27 36 1 -1 0 -12 -4 -24z m221
-64 c8 -14 6 -21 -9 -32 -28 -21 -34 -20 -41 8 -11 45 25 63 50 24z"/>
<path d="M975 269 c-10 -15 3 -25 16 -12 7 7 7 13 1 17 -6 3 -14 1 -17 -5z"/>
<path d="M1031 244 c0 -11 3 -14 6 -6 3 7 2 16 -1 19 -3 4 -6 -2 -5 -13z"/>
<path d="M700 1076 c0 -16 31 -24 68 -18 12 3 22 11 22 18 0 10 -13 14 -45 14
-32 0 -45 -4 -45 -14z"/>
<path d="M1686 1074 c-8 -21 -3 -26 18 -18 20 8 21 34 2 34 -8 0 -17 -7 -20
-16z"/>
<path d="M1830 1080 c0 -5 -9 -10 -20 -10 -14 0 -20 -7 -20 -21 0 -17 3 -19
13 -11 7 6 23 9 35 5 15 -3 24 0 28 11 3 9 15 16 25 16 10 0 19 5 19 10 0 6
-18 10 -40 10 -22 0 -40 -4 -40 -10z"/>
<path d="M1941 1004 c0 -11 3 -14 6 -6 3 7 2 16 -1 19 -3 4 -6 -2 -5 -13z"/>
<path d="M1170 987 c-26 -13 -43 -52 -18 -42 11 5 54 55 46 55 -2 0 -14 -6
-28 -13z"/>
<path d="M1802 879 c1 -13 8 -23 13 -21 15 3 12 35 -3 40 -9 3 -13 -3 -10 -19z"/>
<path d="M40 635 c-7 -8 -19 -15 -27 -15 -19 0 -15 -171 5 -178 8 -2 12 2 10
11 -2 9 2 15 7 14 6 -1 9 -9 8 -17 -1 -11 3 -9 13 4 9 13 11 23 4 30 -13 13
-13 66 0 66 6 0 19 -15 30 -32 19 -31 20 -32 19 -8 -1 14 1 36 5 50 4 16 2 32
-8 45 -9 11 -16 14 -16 8 0 -7 -6 -13 -14 -13 -9 0 -12 7 -9 19 6 25 -11 35
-27 16z"/>
<path d="M30 221 c0 -5 10 -15 23 -23 21 -14 22 -14 22 8 0 18 -6 24 -22 24
-13 0 -23 -4 -23 -9z"/>
<path d="M430 170 c0 -5 5 -10 11 -10 5 0 7 5 4 10 -3 6 -8 10 -11 10 -2 0 -4
-4 -4 -10z"/>
<path d="M493 163 c-7 -2 -13 -12 -13 -22 0 -14 -46 -51 -63 -51 -3 0 -8 11
-11 25 -7 28 -46 51 -69 42 -17 -6 -29 -55 -15 -63 4 -3 6 -9 3 -14 -9 -15 15
-22 30 -10 12 10 15 9 15 -8 0 -12 -5 -24 -11 -27 -6 -5 -4 -12 8 -21 24 -18
223 -20 223 -2 0 9 3 9 12 0 17 -17 33 -15 18 3 -7 9 -21 13 -31 10 -14 -5
-20 2 -28 32 -6 21 -17 47 -25 58 -9 11 -16 28 -16 38 0 17 -5 19 -27 10z"/>
<path d="M1 115 c-1 -47 1 -51 30 -64 22 -10 29 -18 26 -32 -4 -15 0 -19 20
-19 20 0 23 4 18 20 -4 13 -2 20 7 20 16 0 -37 47 -62 55 -9 3 -22 20 -28 38
-10 31 -10 31 -11 -18z"/>
<path d="M693 95 c0 -8 4 -15 9 -15 4 0 8 4 8 9 0 6 -4 12 -8 15 -5 3 -9 -1
-9 -9z"/>
<path d="M670 59 c0 -11 4 -18 10 -14 5 3 7 12 3 20 -7 21 -13 19 -13 -6z"/>
<path d="M785 70 c-3 -5 -1 -10 4 -10 6 0 11 5 11 10 0 6 -2 10 -4 10 -3 0 -8
-4 -11 -10z"/>
<path d="M727 59 c7 -7 15 -10 18 -7 3 3 -2 9 -12 12 -14 6 -15 5 -6 -5z"/>
<path d="M818 33 c5 -21 7 -23 10 -9 2 10 0 22 -6 28 -6 6 -7 0 -4 -19z"/>
<path d="M764 42 c-9 -5 -8 -11 2 -20 12 -11 14 -9 14 8 0 22 0 23 -16 12z"/>
</g>
</svg>
