<?xml version="1.0" standalone="no"?>
<!DOCTYPE svg PUBLIC "-//W3C//DTD SVG 20010904//EN"
 "http://www.w3.org/TR/2001/REC-SVG-20010904/DTD/svg10.dtd">
<svg version="1.0" xmlns="http://www.w3.org/2000/svg"
 width="650.000000pt" height="640.000000pt" viewBox="0 0 650.000000 640.000000"
 preserveAspectRatio="xMidYMid meet">

<g transform="translate(0.000000,640.000000) scale(0.100000,-0.100000)"
fill="#000000" stroke="none">
<path d="M2369 6371 l-45 -28 -53 23 c-54 24 -90 24 -111 -1 -8 -10 -6 -24 10
-55 18 -36 19 -45 9 -75 -12 -32 -11 -37 12 -61 50 -54 105 -67 161 -38 22 11
33 13 41 5 17 -17 72 -13 90 7 32 35 40 78 23 113 -11 22 -13 36 -6 49 43 80
-41 119 -131 61z m111 -13 c-1 -21 -25 -46 -53 -57 -35 -14 -34 -24 6 -42 35
-15 49 -58 26 -85 -20 -24 -40 -15 -56 26 -18 45 -40 50 -58 13 -29 -58 -63
-68 -109 -32 -34 27 -33 43 4 69 17 12 30 24 30 28 0 4 -15 14 -33 22 -38 18
-49 50 -17 50 11 0 39 -9 61 -21 41 -20 41 -20 63 -1 34 31 59 41 99 42 23 0
37 -5 37 -12z"/>
<path d="M3800 6365 c-47 -7 -146 -29 -220 -49 -201 -56 -328 -86 -360 -86
-17 0 -49 -4 -72 -10 -24 -5 -93 -18 -155 -29 -163 -30 -315 -90 -448 -178
-149 -98 -448 -335 -493 -391 -20 -25 -69 -78 -107 -116 -67 -68 -188 -229
-260 -346 -200 -329 -246 -426 -291 -615 -62 -258 -10 -439 185 -650 39 -42
71 -83 71 -91 0 -8 -4 -12 -10 -9 -20 13 -124 -16 -243 -67 -133 -57 -225
-114 -300 -187 -123 -117 -205 -415 -148 -536 34 -72 106 -151 188 -204 56
-36 112 -88 198 -182 105 -115 129 -136 196 -169 124 -63 180 -74 374 -75
l170 0 28 -52 c33 -62 191 -214 292 -280 38 -26 85 -56 103 -68 56 -37 103
-115 70 -115 -7 0 -56 11 -108 25 -104 26 -119 38 -200 155 -81 118 -136 146
-232 119 -56 -15 -70 -50 -66 -163 l3 -91 -125 -41 c-178 -59 -299 -113 -324
-147 l-20 -27 21 -28 c11 -15 35 -36 54 -47 32 -19 49 -20 251 -17 189 3 221
1 250 -14 18 -9 68 -29 110 -43 43 -14 78 -30 79 -36 1 -5 -45 -35 -102 -67
-57 -31 -118 -72 -136 -92 -42 -45 -64 -119 -70 -236 -5 -79 -2 -107 16 -165
43 -140 84 -175 266 -230 89 -26 146 -37 220 -42 l100 -5 70 -68 c101 -98 137
-113 257 -112 53 1 116 6 139 12 39 11 43 10 80 -20 50 -39 99 -60 144 -60 19
0 35 -1 36 -2 0 -2 8 -57 17 -123 13 -93 20 -120 32 -120 29 0 30 162 6 725
-5 123 10 249 31 257 8 3 82 -2 164 -11 82 -9 153 -15 158 -12 4 3 98 10 207
16 109 5 211 13 225 16 24 5 32 -3 84 -78 31 -45 68 -105 82 -133 27 -53 103
-337 103 -385 0 -15 6 -33 14 -39 28 -23 40 -135 26 -243 -10 -76 -11 -101 -1
-111 9 -9 16 -9 31 1 11 6 29 17 40 24 27 17 32 8 39 -69 10 -104 34 -133 108
-133 71 0 106 17 173 85 l65 66 0 77 c0 51 -7 96 -20 132 -11 30 -20 73 -21
95 0 22 -4 198 -9 390 l-8 351 122 83 c68 45 169 104 226 131 203 95 339 266
455 570 65 172 76 239 100 590 11 157 27 323 35 370 35 186 59 276 97 368 78
188 90 217 110 255 41 80 50 181 49 517 -1 388 -18 597 -62 731 -16 49 -29
102 -29 117 0 46 -104 288 -151 350 -24 31 -104 118 -179 192 -122 122 -220
242 -263 325 -26 49 -137 169 -222 240 -58 48 -119 86 -220 135 -124 61 -162
74 -330 114 -104 25 -242 52 -305 61 -63 8 -150 19 -193 25 -95 12 -156 11
-267 -5z m506 -100 c162 -27 403 -94 532 -149 45 -18 111 -57 146 -86 98 -77
255 -258 298 -343 20 -39 54 -90 76 -112 21 -22 44 -55 52 -73 7 -18 60 -78
120 -135 109 -103 223 -244 265 -327 28 -57 101 -315 120 -428 17 -103 35
-372 35 -527 -1 -167 -30 -337 -85 -490 -130 -364 -167 -475 -176 -530 -32
-191 -49 -374 -49 -520 0 -180 -18 -312 -54 -407 -41 -108 -84 -193 -118 -239
-19 -24 -63 -87 -98 -139 -72 -105 -179 -224 -237 -262 -198 -131 -273 -178
-282 -178 -8 0 -9 14 -4 42 5 24 8 178 7 343 0 252 -4 328 -23 475 -13 99 -29
185 -38 198 -8 13 -43 36 -78 52 l-63 28 -5 69 c-2 37 -11 93 -20 123 -25 90
-37 193 -37 326 0 88 3 125 11 122 6 -2 39 -71 74 -153 34 -83 75 -177 92
-210 17 -33 33 -72 37 -87 4 -18 15 -30 30 -34 16 -4 27 -15 31 -32 7 -31 107
-243 112 -239 5 5 -132 365 -199 522 -63 146 -83 204 -142 396 -41 131 -42
142 -21 159 23 19 18 34 -15 47 -21 8 -30 18 -30 33 0 37 22 101 34 97 5 -2
59 -82 118 -178 131 -212 208 -329 217 -329 6 0 -130 278 -233 477 -14 28 -41
98 -60 155 -19 56 -48 140 -64 185 -32 85 -62 220 -62 279 0 30 2 33 18 26 26
-14 42 -4 42 26 0 27 -6 40 -47 103 -17 25 -23 49 -23 89 0 30 -11 100 -24
155 -12 55 -28 125 -35 156 -7 33 -38 103 -76 172 -36 64 -65 122 -65 129 0
14 178 -173 224 -234 37 -50 122 -249 152 -358 40 -140 62 -310 69 -530 7
-231 20 -316 73 -478 40 -126 54 -139 22 -22 -36 130 -48 220 -55 415 -15 412
-37 553 -120 761 -75 187 -88 206 -285 417 -102 109 -205 221 -228 248 -81 91
-99 47 -28 -68 74 -118 107 -190 168 -368 78 -226 112 -337 109 -362 -2 -22
-21 -15 -120 41 -111 63 -264 123 -348 136 -70 12 -189 12 -296 1 -84 -9 -120
-29 -115 -65 3 -24 12 -25 143 -6 213 30 424 -27 658 -179 53 -35 97 -64 98
-65 1 0 7 -75 13 -166 12 -158 15 -170 56 -274 43 -107 44 -109 31 -165 -7
-31 -19 -85 -27 -121 -8 -36 -16 -75 -19 -87 -14 -59 -91 -10 -183 117 -91
123 -157 194 -244 260 -164 124 -252 143 -379 82 -67 -32 -149 -108 -149 -137
0 -21 13 -19 35 5 10 11 25 20 33 20 11 0 7 -9 -13 -30 -39 -41 -25 -49 22
-13 44 35 86 57 127 67 35 9 109 -2 133 -19 15 -11 12 -15 -33 -38 -68 -34
-147 -152 -175 -259 -31 -119 -20 -337 22 -441 9 -21 8 -31 -1 -42 -31 -37 21
-50 267 -65 139 -10 194 -10 235 -1 29 7 63 14 76 17 26 5 30 24 5 24 -38 0
-45 14 -27 56 11 27 18 86 23 194 l7 155 23 -50 c12 -27 31 -77 42 -110 32
-95 57 -106 93 -42 22 37 66 87 78 87 4 0 15 -17 24 -37 12 -30 13 -46 5 -73
-26 -89 -31 -190 -17 -327 7 -65 6 -86 -5 -99 -8 -10 -77 -48 -154 -85 -125
-61 -153 -71 -260 -89 -181 -31 -809 -90 -822 -77 -3 4 4 37 16 74 42 131 55
311 27 376 -28 69 -207 134 -432 157 -61 6 -102 7 -113 0 -32 -17 -32 -62 0
-187 17 -65 35 -134 40 -153 4 -20 24 -70 43 -113 20 -42 31 -77 25 -77 -12 0
-100 59 -216 144 -46 34 -108 79 -140 101 -93 66 -146 124 -185 205 -48 99
-53 140 -34 304 14 115 14 164 5 299 -6 89 -8 194 -4 233 6 66 10 74 44 108
32 31 44 37 72 34 45 -4 45 -30 1 -39 -18 -4 -36 -9 -39 -13 -3 -3 -14 -43
-24 -88 -25 -114 -27 -512 -3 -563 45 -95 180 -85 244 18 l17 28 12 -29 c12
-30 68 -78 78 -68 3 3 -2 23 -11 46 -20 50 -20 80 -1 106 8 10 15 22 15 27 0
11 -35 8 -47 -4 -22 -22 -31 0 -18 43 6 24 18 100 25 170 11 102 11 138 1 183
-18 80 -72 181 -136 252 -61 68 -104 88 -166 80 l-39 -5 0 46 c0 26 3 105 7
175 8 159 -4 152 218 152 133 0 160 2 160 14 0 43 -177 83 -277 63 -29 -5 -55
-8 -58 -5 -7 7 79 168 115 217 17 23 37 56 45 75 27 67 129 188 291 347 182
178 246 226 340 254 87 27 123 25 195 -9 47 -22 67 -39 90 -75 30 -48 54 -60
54 -27 0 33 -63 105 -119 135 -39 21 -73 30 -120 34 -59 4 -76 0 -145 -28
-103 -43 -185 -111 -381 -313 -119 -123 -173 -186 -209 -248 -28 -46 -57 -93
-67 -104 -9 -11 -29 -41 -44 -67 -17 -30 -34 -48 -45 -48 -24 0 -35 17 -22 33
6 7 22 57 37 112 16 61 44 129 70 175 23 41 59 113 79 159 20 47 47 98 59 115
12 17 30 47 39 68 45 100 157 224 270 298 203 134 419 187 598 144 88 -20 139
-53 203 -128 45 -53 61 -82 86 -158 17 -51 36 -117 42 -145 11 -56 29 -72 29
-25 -1 48 -37 195 -63 255 -54 120 -172 211 -319 244 -63 14 -85 14 -182 3
-140 -16 -235 -50 -368 -132 -105 -65 -190 -141 -243 -217 -78 -113 -131 -203
-167 -285 -21 -48 -61 -132 -88 -185 -26 -53 -55 -122 -64 -154 -8 -33 -17
-62 -20 -65 -29 -29 -9 145 36 303 80 287 305 606 526 745 39 25 111 73 159
108 125 89 246 122 450 122 177 0 268 -42 404 -189 110 -119 124 -163 123
-387 0 -130 -4 -170 -18 -208 -19 -49 -17 -62 8 -53 33 13 61 199 52 347 -10
172 -30 221 -145 342 -76 80 -186 158 -223 158 -28 0 -31 19 -4 30 14 5 76 20
138 34 149 32 257 32 444 1z m-1296 -145 c0 -5 -44 -39 -97 -74 -230 -152
-396 -352 -545 -655 -53 -108 -73 -136 -155 -223 -51 -55 -105 -109 -120 -121
-103 -77 -252 -253 -332 -392 -79 -137 -150 -328 -163 -436 -7 -52 -16 -88
-22 -86 -23 8 -68 141 -78 235 -23 198 35 411 166 616 19 28 45 71 60 96 87
147 188 287 268 370 19 19 58 63 88 98 85 100 306 278 510 411 99 66 292 150
364 161 28 4 52 8 54 9 1 0 2 -3 2 -9z m-726 -990 c-8 -36 -19 -168 -25 -295
l-12 -230 -58 -123 c-33 -68 -59 -127 -59 -133 0 -6 -18 -63 -40 -127 -21 -64
-42 -141 -46 -170 -7 -53 -8 -54 -35 -48 -40 8 -47 -12 -14 -38 25 -20 28 -30
35 -114 5 -59 19 -125 39 -184 82 -243 103 -319 113 -394 10 -72 8 -92 -10
-170 -30 -126 -47 -169 -98 -250 -50 -82 -135 -157 -210 -186 -60 -24 -204
-37 -283 -27 -85 12 -184 65 -280 149 -108 95 -122 131 -123 319 -1 82 3 147
10 163 18 42 129 148 180 170 123 55 328 -36 396 -175 15 -29 31 -88 37 -134
11 -77 11 -83 -10 -117 -13 -20 -26 -36 -31 -36 -4 0 -10 -7 -14 -15 -10 -26
31 -17 66 14 l33 29 -1 101 c0 93 -3 105 -34 165 -47 93 -87 135 -171 181 -68
36 -82 40 -166 43 -113 5 -153 -11 -240 -96 -47 -46 -63 -70 -82 -126 -22 -62
-23 -79 -18 -200 3 -72 10 -143 16 -158 15 -39 -4 -36 -44 7 -43 45 -95 150
-95 191 0 70 31 191 66 262 89 176 314 302 538 302 125 0 150 -10 231 -95 50
-52 84 -101 120 -171 49 -95 50 -99 49 -180 -1 -55 -9 -103 -23 -143 -12 -34
-21 -67 -21 -74 0 -22 -30 -43 -100 -71 -89 -37 -133 -41 -210 -21 -114 29
-170 81 -178 165 -6 63 23 98 89 106 40 5 49 3 68 -17 11 -12 21 -29 21 -36 0
-7 7 -13 15 -13 17 0 12 35 -11 81 -18 36 -33 40 -105 28 -101 -16 -129 -42
-129 -119 1 -95 74 -192 170 -223 100 -32 160 -33 254 -3 106 35 142 57 150
93 4 15 18 56 32 90 20 51 24 79 24 160 0 115 -7 134 -111 299 -38 61 -69 121
-69 135 0 16 -23 48 -72 99 -39 41 -92 107 -118 146 -44 68 -47 76 -53 160 -8
111 3 186 43 311 73 227 183 397 384 598 78 78 158 160 180 184 21 24 42 39
46 34 4 -4 2 -37 -6 -73z m-52 -883 c0 -123 -2 -139 -21 -166 -27 -38 -71 -72
-82 -65 -13 7 15 134 56 249 7 22 19 60 25 84 6 23 14 41 16 38 3 -3 5 -66 6
-140z m321 -264 c31 -34 57 -92 57 -131 0 -33 -69 -145 -95 -155 -73 -29 -115
17 -115 124 0 92 24 157 64 175 45 19 59 17 89 -13z m-403 -31 c0 -13 -12 -22
-22 -16 -10 6 -1 24 13 24 5 0 9 -4 9 -8z m-4 -117 c11 -17 26 -25 44 -25 25
0 28 -4 34 -46 10 -72 7 -332 -3 -339 -6 -3 -15 11 -20 32 -11 39 -74 311 -86
371 -8 39 8 43 31 7z m1822 -85 c22 -32 24 -42 19 -126 -5 -110 -26 -152 -91
-183 -75 -37 -117 -24 -147 44 -26 59 -17 140 24 213 41 73 70 94 126 90 39
-3 49 -8 69 -38z m-1538 -174 c0 -38 31 -80 66 -90 28 -8 68 25 90 74 18 41
34 52 34 24 0 -26 -30 -136 -46 -165 -30 -59 -106 -92 -143 -62 -43 35 -51
253 -10 253 5 0 9 -15 9 -34z m1661 -84 c46 -30 84 -73 114 -132 16 -31 17
-44 6 -130 -9 -73 -18 -103 -37 -132 -29 -41 -50 -47 -129 -36 -27 3 -99 7
-160 7 -60 1 -115 5 -121 9 -36 24 -71 174 -54 233 11 37 37 79 49 79 5 0 11
-38 13 -85 5 -94 18 -122 79 -163 29 -20 42 -23 88 -18 78 7 101 29 129 117
21 66 23 81 13 134 -8 48 -17 65 -42 87 -20 17 -29 32 -26 42 9 23 27 20 78
-12z m-1076 -392 c151 -34 208 -56 246 -96 22 -23 23 -32 21 -129 -2 -151 -24
-237 -74 -291 -38 -41 -44 -44 -91 -44 -94 0 -151 46 -215 175 -29 59 -92 296
-95 356 -2 49 0 53 23 59 14 4 30 5 35 4 6 -2 73 -17 150 -34z m-770 -17 c3
-16 17 -45 31 -66 l25 -38 -66 -129 c-36 -71 -65 -133 -65 -139 0 -27 -75
-203 -89 -210 -12 -6 -254 10 -281 18 -3 1 42 20 100 43 87 35 114 51 157 95
34 34 58 71 72 108 12 30 33 79 48 108 21 41 27 70 30 137 3 47 6 91 9 98 6
19 21 6 29 -25z m145 -212 c31 -27 119 -88 196 -136 76 -48 167 -107 202 -131
77 -54 126 -79 171 -89 18 -4 58 -18 88 -32 52 -24 59 -25 127 -14 66 10 210
21 449 36 58 4 97 2 97 -3 0 -11 -71 -38 -155 -59 -119 -29 -131 -33 -177 -62
-28 -18 -77 -68 -119 -121 -39 -49 -75 -90 -80 -90 -13 0 -45 128 -55 218 -4
42 -11 62 -20 62 -8 0 -14 -6 -15 -12 -4 -56 7 -122 32 -195 16 -48 29 -97 29
-109 0 -41 -208 -304 -240 -304 -4 0 -20 24 -35 53 -16 29 -79 104 -145 172
-157 161 -182 208 -190 360 l-5 110 -16 -79 c-15 -70 -15 -86 -2 -149 21 -102
42 -135 152 -244 113 -113 197 -221 182 -236 -7 -7 -37 -6 -88 2 -103 16 -133
28 -133 55 0 11 -11 44 -24 72 -21 45 -42 65 -153 150 -201 152 -256 243 -257
429 0 86 2 94 42 176 31 65 42 99 42 135 0 42 19 84 38 84 3 0 31 -22 62 -49z
m2130 -189 c0 -18 9 -50 20 -72 24 -46 26 -98 5 -106 -35 -14 -175 82 -175
119 0 20 31 51 89 88 50 32 61 27 61 -29z m-179 -155 l53 -59 -1 -134 c-1 -74
-4 -148 -8 -165 -7 -30 -7 -31 -58 -24 -29 3 -86 15 -127 26 -108 29 -157 37
-171 28 -20 -12 17 -73 84 -140 31 -32 57 -60 57 -62 0 -3 -24 -13 -52 -22
-94 -30 -283 -160 -400 -274 -43 -42 -78 -70 -78 -63 0 18 150 306 208 400 29
46 67 103 86 125 18 23 41 58 51 77 24 47 85 119 178 213 42 43 77 84 77 92 0
16 29 47 40 43 4 -2 31 -29 61 -61z m-171 15 c0 -4 -19 -26 -41 -47 -23 -22
-67 -74 -98 -115 -62 -82 -299 -480 -333 -557 -24 -57 -37 -75 -49 -68 -4 3
22 67 58 143 131 273 243 535 243 567 0 18 6 38 14 44 26 22 206 51 206 33z
m-270 -71 c0 -16 -15 -69 -34 -117 -18 -49 -36 -98 -40 -109 -7 -19 -8 -19
-21 -1 -15 20 -35 17 -175 -20 -98 -27 -100 -27 -100 -13 0 8 34 51 75 96 63
68 89 88 158 121 45 22 91 47 102 56 29 22 35 20 35 -13z m596 -37 c22 -9 46
-22 54 -28 8 -7 37 -21 63 -30 106 -39 125 -80 153 -326 16 -141 15 -368 -2
-650 -11 -193 -3 -584 15 -745 14 -120 16 -163 8 -171 -39 -38 -254 -70 -289
-42 -21 16 -34 102 -43 298 -4 74 -13 175 -22 223 -12 69 -14 139 -10 325 2
137 9 252 16 272 39 120 56 320 27 320 -8 0 -17 -12 -21 -27 -19 -79 -106
-275 -180 -408 -45 -82 -90 -167 -98 -187 -19 -45 -56 -58 -167 -58 -41 0
-134 -7 -207 -14 -118 -13 -146 -12 -271 3 -81 10 -147 23 -156 31 -13 10 -17
28 -15 69 0 31 -3 81 -9 111 -23 127 -35 316 -22 371 32 144 39 183 35 187
-13 14 -36 -15 -64 -82 -26 -62 -31 -88 -31 -154 0 -43 5 -103 11 -134 10 -51
9 -58 -12 -92 -17 -25 -45 -47 -93 -71 -105 -54 -165 -49 -477 35 -175 48
-382 146 -416 198 -14 20 -13 28 9 89 13 37 32 71 41 77 11 7 42 4 109 -12 51
-12 140 -29 198 -37 57 -8 141 -27 186 -42 l82 -26 58 51 c32 29 61 52 65 52
4 0 38 40 77 89 39 48 96 111 127 140 31 28 78 84 105 124 62 94 119 153 164
172 35 15 76 20 76 9 0 -9 -79 -123 -112 -159 -38 -44 -32 -70 13 -60 17 4 59
20 94 36 66 30 95 36 95 20 0 -11 -84 -64 -135 -85 -19 -8 -35 -20 -35 -25 0
-6 11 -44 25 -85 23 -67 25 -90 25 -235 0 -131 -4 -174 -21 -236 -11 -41 -19
-88 -17 -103 3 -25 5 -23 35 28 17 30 87 112 155 181 98 101 148 143 243 205
123 81 222 123 286 124 24 0 39 5 43 16 9 22 4 27 -79 89 -69 51 -95 79 -95
104 0 6 8 11 18 11 36 -1 237 -71 258 -91 42 -40 51 -22 58 113 8 178 18 258
29 258 3 0 22 -7 43 -16z m-702 -243 c4 -5 -12 -53 -35 -108 -22 -54 -51 -123
-63 -153 -13 -30 -39 -86 -60 -123 -20 -38 -36 -75 -36 -82 0 -8 -4 -16 -9
-19 -5 -3 -7 49 -5 122 3 94 0 141 -12 181 -19 67 -14 74 103 132 46 24 86 47
89 51 7 11 21 10 28 -1z m-1669 -152 c25 -23 45 -47 45 -54 0 -7 17 -35 38
-62 62 -80 66 -95 41 -169 -12 -36 -30 -69 -39 -74 -26 -14 -539 -15 -574 -1
-22 9 -26 15 -18 23 22 22 178 80 306 113 70 18 134 39 141 46 20 20 20 36 5
116 -12 64 -10 103 5 103 3 0 26 -19 50 -41z m165 -99 c0 -5 -4 -10 -10 -10
-5 0 -10 5 -10 10 0 6 5 10 10 10 6 0 10 -4 10 -10z m228 -509 c20 -10 53 -22
72 -26 84 -16 168 -46 174 -61 23 -61 -17 -132 -118 -206 -100 -74 -138 -94
-198 -102 -56 -8 -105 9 -137 50 -19 24 -22 38 -19 82 8 96 73 144 163 121 58
-15 75 -8 40 15 -107 70 -245 -17 -245 -154 0 -105 51 -145 185 -145 93 0 111
7 239 99 105 75 126 105 133 186 3 34 11 60 17 60 6 0 47 -11 90 -25 115 -36
207 -35 287 5 52 27 60 28 66 14 8 -21 -4 -278 -16 -326 -5 -20 -5 -56 0 -80
10 -50 12 -219 3 -242 -11 -28 -24 -17 -24 19 0 19 -3 35 -7 34 -5 0 -21 -19
-38 -42 -45 -64 -145 -109 -253 -115 -95 -5 -152 7 -217 49 -50 32 -57 49 -21
49 14 0 61 14 106 32 79 31 85 35 145 112 88 114 115 156 115 180 0 16 -24 -3
-102 -81 -169 -167 -257 -192 -552 -155 -237 29 -267 46 -337 187 -28 58 -31
72 -26 123 9 88 23 123 75 187 55 69 113 107 220 146 92 33 130 35 180 10z
m1822 -161 c1 -74 2 -150 1 -169 l-1 -35 -28 27 c-16 15 -39 48 -52 74 -20 41
-22 51 -12 92 12 54 73 165 83 153 4 -4 8 -68 9 -142z m-1076 -673 c12 -76 3
-85 -58 -59 -50 23 -55 34 -30 72 46 69 76 65 88 -13z m1530 -189 c24 -37 60
-190 53 -220 -11 -43 -69 -111 -118 -137 -57 -31 -90 -24 -124 26 -21 32 -25
49 -25 115 0 89 -5 93 -71 56 -34 -20 -41 -21 -49 -8 -13 20 -3 66 26 111 22
36 26 38 91 44 37 3 93 12 123 19 77 19 78 19 94 -6z"/>
<path d="M5040 5674 c-19 -3 -55 -11 -80 -19 -25 -8 -81 -21 -125 -29 -594
-105 -654 -123 -706 -204 -16 -25 -27 -48 -24 -50 2 -3 23 12 46 32 57 52 114
74 259 101 69 13 179 35 245 48 66 14 155 30 198 37 43 6 94 18 113 26 58 24
180 29 253 10 64 -16 78 -16 67 2 -20 33 -154 57 -246 46z"/>
<path d="M6270 5739 c-30 -10 -63 -29 -73 -40 -27 -34 -13 -33 34 0 48 35 129
45 129 16 0 -32 -41 -94 -85 -131 -52 -42 -47 -54 20 -54 22 0 57 -5 77 -11
67 -18 89 -105 34 -130 -24 -11 -74 6 -139 48 -32 21 -41 13 -52 -46 -9 -51
-31 -81 -60 -81 -20 0 -26 8 -36 41 -11 34 -10 48 4 85 18 50 8 67 -18 28 -15
-24 -21 -25 -68 -20 l-52 6 51 -24 c49 -23 52 -27 59 -73 9 -62 21 -83 46 -83
35 0 75 37 98 90 l22 50 56 -30 c95 -51 134 -36 149 57 9 60 -11 86 -86 114
-33 12 -60 24 -60 26 0 2 16 27 35 56 43 63 46 103 9 117 -31 12 -27 13 -94
-11z"/>
<path d="M6002 5683 c-28 -6 -45 -37 -40 -75 4 -25 -2 -37 -31 -65 l-36 -34
39 26 c44 28 49 29 78 14 13 -7 24 -7 30 -1 6 6 -3 20 -26 38 -20 16 -36 34
-36 41 0 17 33 33 69 33 21 0 31 5 31 15 0 15 -27 18 -78 8z"/>
<path d="M1054 5106 c-48 -21 -115 -114 -107 -147 8 -28 17 -23 31 14 26 72
131 136 146 89 9 -28 -8 -65 -49 -105 -20 -20 -34 -41 -30 -47 4 -7 33 -8 83
-5 67 6 81 4 110 -14 40 -26 43 -63 7 -87 -33 -22 -117 -21 -150 0 -16 10 -34
14 -47 11 -17 -6 -19 -12 -13 -39 17 -78 17 -104 1 -135 -24 -46 -52 -38 -84
23 -16 31 -27 68 -28 99 -2 67 -17 79 -52 41 -32 -35 -94 -50 -139 -33 -33 12
-73 48 -73 65 0 24 54 47 122 52 38 3 71 9 74 14 4 6 -12 29 -35 52 -47 48
-51 72 -15 88 21 10 31 9 60 -7 43 -23 54 -14 21 19 -41 41 -126 31 -148 -17
-9 -19 -7 -31 5 -55 9 -17 16 -35 16 -40 0 -5 -21 -17 -47 -27 -106 -40 -119
-72 -55 -135 32 -32 47 -39 95 -45 32 -4 75 -5 95 -1 l37 5 24 -62 c40 -104
79 -130 135 -86 35 28 47 53 55 112 l6 50 72 1 c79 1 120 22 137 68 19 52 -71
127 -151 128 -37 0 -39 4 -18 40 18 31 19 102 3 118 -16 16 -55 15 -94 -2z"/>
<path d="M6259 4757 c-45 -30 -48 -59 -10 -97 38 -38 63 -38 95 1 68 80 2 155
-85 96z m81 -37 c0 -18 -25 -50 -39 -50 -4 0 -16 6 -26 14 -23 16 -14 43 17
55 30 11 48 3 48 -19z"/>
<path d="M6375 4335 c-27 -26 -29 -33 -16 -54 7 -11 14 -8 35 15 26 29 36 27
49 -10 6 -19 37 4 37 27 0 51 -63 65 -105 22z"/>
<path d="M127 3397 c-46 -39 -47 -64 -6 -123 32 -47 32 -46 -25 -59 -40 -9
-96 -66 -96 -99 0 -19 12 -33 48 -58 43 -31 53 -33 126 -33 l80 0 25 -63 c29
-70 50 -83 102 -62 36 15 61 59 68 120 l6 45 61 -3 c75 -4 140 12 154 38 28
51 -19 126 -93 150 -30 9 -37 16 -31 29 4 9 9 34 12 57 3 35 0 44 -23 63 -41
32 -101 28 -158 -10 -26 -17 -50 -35 -53 -40 -3 -6 -25 11 -48 36 -54 57 -92
60 -149 12z m131 -40 c32 -32 42 -51 42 -75 0 -42 15 -41 29 1 15 46 70 97
112 103 45 8 93 -27 83 -60 -10 -31 -35 -57 -72 -73 -53 -22 -34 -37 55 -43
81 -5 104 -15 124 -52 24 -45 -61 -79 -133 -52 -24 9 -55 18 -70 21 l-27 5 2
-82 c2 -74 0 -83 -21 -100 -30 -25 -44 -18 -72 36 -15 32 -21 56 -17 79 4 23
1 38 -9 46 -11 9 -22 4 -55 -26 -39 -35 -45 -37 -91 -33 -52 5 -98 37 -98 69
0 9 14 29 32 44 27 23 39 26 73 22 22 -3 48 -8 57 -12 12 -5 20 -2 24 9 4 11
-7 33 -33 64 -22 26 -44 56 -50 67 -19 36 14 84 57 85 9 0 35 -19 58 -43z"/>
<path d="M6322 3120 c-46 -11 -55 -23 -11 -15 84 16 94 -87 13 -131 -47 -26
-43 -42 14 -50 81 -12 132 -49 132 -97 0 -29 -1 -29 -40 -24 -21 3 -52 14 -69
26 -52 37 -71 25 -71 -48 0 -40 -23 -81 -45 -81 -26 0 -56 51 -53 91 3 50 -5
56 -40 30 -44 -31 -124 -29 -169 5 -59 45 -38 94 41 94 44 0 49 25 10 59 -34
30 -28 55 14 59 18 2 40 -2 48 -9 13 -10 17 -10 24 2 15 24 -16 44 -65 43 -60
-1 -75 -16 -75 -74 0 -39 -4 -49 -25 -60 -33 -18 -39 -43 -20 -84 27 -55 106
-93 174 -81 43 7 50 2 66 -55 6 -20 22 -41 38 -50 41 -23 77 1 101 68 10 29
24 52 30 52 6 0 29 -7 51 -15 22 -8 48 -14 57 -15 28 0 48 29 48 70 0 46 -41
100 -91 120 -25 11 -29 17 -23 34 4 12 7 43 8 70 1 59 -20 78 -72 66z"/>
<path d="M932 2400 c-53 -24 -60 -41 -31 -81 42 -60 131 -77 174 -34 32 31 34
93 6 119 -27 24 -46 11 -26 -17 18 -26 19 -59 3 -75 -28 -28 -128 -3 -128 32
0 7 18 22 40 35 22 12 38 27 35 32 -8 13 -24 10 -73 -11z"/>
<path d="M1320 1287 l-25 -11 33 -4 c21 -2 38 -12 49 -28 15 -23 15 -28 0 -59
-9 -19 -30 -41 -47 -50 -48 -25 -27 -38 49 -30 59 6 70 4 101 -17 74 -50 45
-88 -67 -88 -83 0 -86 -4 -52 -72 21 -40 21 -41 1 -67 -25 -34 -66 -49 -86
-32 -9 7 -25 40 -37 72 -23 62 -43 75 -58 36 -14 -36 -35 -48 -93 -53 -148
-14 -178 120 -32 147 55 10 59 13 51 34 -4 9 -19 15 -36 15 -17 0 -42 10 -58
24 -23 20 -26 28 -17 43 20 32 68 38 107 15 26 -17 36 -19 45 -10 7 7 12 16
12 20 0 12 -69 38 -100 38 -44 0 -100 -28 -110 -56 -13 -33 -15 -28 22 -70 27
-30 29 -37 17 -45 -37 -20 -59 -46 -65 -76 -5 -27 -1 -37 23 -62 23 -23 42
-31 89 -37 79 -10 103 -10 141 0 29 7 34 5 42 -16 17 -45 46 -61 98 -55 66 7
93 39 93 111 0 60 6 66 69 66 118 0 105 138 -17 172 l-47 14 -5 58 c-7 78 -33
99 -90 73z"/>
<path d="M1245 1199 c-9 -17 -15 -42 -13 -55 2 -19 7 -12 19 30 18 63 17 70
-6 25z"/>
</g>
</svg>
