<?xml version="1.0" standalone="no"?>
<!DOCTYPE svg PUBLIC "-//W3C//DTD SVG 20010904//EN"
 "http://www.w3.org/TR/2001/REC-SVG-20010904/DTD/svg10.dtd">
<svg version="1.0" xmlns="http://www.w3.org/2000/svg"
 width="2000.000000pt" height="2000.000000pt" viewBox="0 0 2000.000000 2000.000000"
 preserveAspectRatio="xMidYMid meet">

<g transform="translate(0.000000,2000.000000) scale(0.100000,-0.100000)"
fill="#000000" stroke="none">
<path d="M11095 17383 c-357 -18 -786 -101 -1155 -223 -212 -70 -480 -178
-480 -194 0 -6 -39 -33 -87 -61 -332 -193 -792 -619 -1159 -1075 -490 -608
-832 -1215 -1045 -1854 -26 -79 -49 -130 -58 -133 -24 -8 -197 -74 -531 -203
-168 -65 -532 -206 -810 -313 -860 -332 -1444 -564 -1535 -610 -237 -118 -312
-256 -285 -526 18 -178 78 -671 116 -946 68 -504 115 -863 144 -1100 29 -245
41 -297 86 -372 l24 -42 -48 -25 c-125 -63 -770 -516 -917 -644 -123 -106
-139 -131 -131 -205 10 -103 103 -421 148 -511 56 -111 210 -288 524 -603
l321 -322 -13 -63 c-35 -174 -44 -464 -24 -817 11 -184 39 -381 59 -420 28
-51 185 -160 232 -161 9 0 36 18 60 41 24 22 70 61 101 86 32 25 58 52 58 59
0 7 -6 60 -14 116 -29 206 -32 184 30 225 59 39 54 40 113 -16 178 -165 671
-425 989 -521 l72 -22 1 -281 c0 -155 2 -365 5 -467 l4 -185 56 -53 c31 -29
81 -70 110 -89 50 -33 58 -35 109 -30 60 6 181 64 223 107 25 25 26 31 24 126
-1 54 -7 205 -14 335 l-11 236 68 79 c139 161 146 168 156 153 11 -18 11 -27
0 -86 -6 -26 -20 -111 -32 -188 l-22 -140 -49 -44 c-69 -61 -91 -109 -86 -186
5 -74 29 -113 96 -152 43 -25 56 -28 142 -28 74 1 107 6 151 23 112 45 273
157 372 260 l39 40 31 -32 c51 -50 104 -86 126 -86 19 0 101 39 127 61 15 13
17 103 5 202 -4 31 -4 56 0 55 41 -16 132 -81 154 -110 60 -79 190 -114 259
-69 30 20 30 20 70 -4 23 -13 104 -49 181 -80 181 -73 325 -141 325 -154 0
-20 65 -70 106 -81 32 -9 51 -9 77 -1 35 12 107 6 140 -11 12 -6 17 -21 17
-49 l0 -41 -77 9 c-427 46 -1040 -134 -1242 -364 -23 -25 -58 -80 -78 -121
-32 -64 -37 -85 -41 -162 -4 -78 -1 -94 20 -142 25 -54 25 -55 7 -90 -65 -127
-31 -269 91 -381 85 -78 145 -101 260 -102 89 0 100 2 173 37 89 43 182 125
215 190 42 86 39 156 -12 231 l-24 34 81 39 c142 68 379 199 492 271 120 77
187 113 207 113 7 0 21 -7 30 -14 17 -12 15 -20 -22 -112 -106 -258 -154 -468
-155 -664 0 -153 13 -209 67 -300 l34 -55 -24 -40 c-20 -35 -22 -50 -19 -125
4 -99 31 -162 100 -237 133 -145 391 -178 559 -72 199 127 248 375 102 527
l-44 46 24 60 c65 164 62 301 -18 711 -19 99 -38 205 -42 235 -3 30 -11 66
-15 79 -5 13 -7 32 -4 42 6 17 12 16 93 -13 47 -16 176 -68 286 -115 187 -79
329 -132 403 -147 l31 -7 -15 -37 c-11 -27 -14 -59 -11 -117 7 -119 54 -200
158 -272 194 -133 470 -50 572 173 19 39 23 66 22 134 0 74 -4 94 -32 151 -29
60 -97 139 -144 165 -16 9 -16 13 -3 58 58 192 -45 338 -287 411 -78 23 -278
54 -395 62 -57 3 -103 10 -103 15 0 4 6 8 13 8 37 0 553 280 715 388 32 21 96
59 142 83 234 125 474 429 605 766 25 64 31 73 54 73 41 1 152 44 207 81 64
43 143 116 213 197 30 34 59 62 66 62 6 0 50 20 97 44 72 37 88 41 100 30 7
-7 42 -21 78 -30 82 -21 238 -14 355 16 81 20 222 82 277 121 28 21 30 21 43
3 32 -45 334 -23 591 41 310 77 591 225 776 407 37 37 68 65 68 62 0 -2 -14
-33 -31 -67 -54 -106 -129 -205 -226 -297 -94 -88 -108 -115 -78 -140 27 -22
142 6 357 88 135 52 300 149 398 234 39 35 45 37 51 21 13 -35 31 -42 84 -32
96 18 181 74 353 236 256 238 454 564 517 847 l13 61 1 -65 c2 -132 -34 -368
-75 -495 -28 -86 -92 -207 -147 -280 -68 -89 -80 -111 -72 -135 10 -30 55 -25
103 12 31 24 52 32 85 33 82 1 264 121 400 264 173 181 296 433 346 705 16 93
23 108 74 185 66 97 111 207 140 341 18 78 21 130 21 295 1 213 -6 272 -54
466 -72 287 -202 556 -406 836 -102 139 -210 271 -405 494 -75 86 -155 184
-179 219 -90 133 -152 299 -192 520 -38 206 -27 445 44 955 31 217 33 247 33
535 0 323 -7 409 -61 740 -73 442 -181 774 -344 1055 -71 123 -79 138 -151
285 -98 201 -248 401 -458 611 -168 167 -278 257 -466 381 -229 152 -507 269
-745 314 -126 24 -373 24 -480 1 -94 -21 -90 -22 -90 7 0 39 -66 157 -124 224
-74 84 -133 133 -248 209 -347 228 -814 334 -1353 306z m538 -77 c438 -72 754
-213 978 -435 72 -72 129 -150 129 -176 0 -3 -30 18 -67 48 -387 309 -1222
526 -1938 503 -104 -3 -224 -8 -265 -11 -57 -3 -67 -2 -40 5 62 16 334 60 461
75 166 19 604 13 742 -9z m-393 -201 c597 -57 1098 -236 1442 -514 85 -69 105
-96 87 -117 -15 -18 -78 -18 -85 0 -9 25 -128 114 -199 149 -39 19 -144 67
-235 107 -550 241 -880 301 -1345 244 -273 -33 -532 -81 -733 -136 -90 -24
-124 -39 -162 -69 -69 -55 -73 -66 -67 -183 10 -201 96 -367 282 -544 179
-170 562 -375 855 -458 52 -15 107 -33 122 -40 29 -15 46 -50 31 -65 -33 -33
-289 -34 -452 -4 -93 18 -314 88 -461 145 -179 70 -233 91 -280 107 -61 21
-66 28 -36 48 26 17 36 45 15 45 -5 0 -26 -11 -46 -24 -45 -31 -41 -32 -225
75 -36 22 -73 39 -82 39 -8 0 -32 16 -51 36 -43 43 -199 118 -288 139 -121 29
-269 14 -453 -45 l-99 -33 -220 -221 c-121 -121 -230 -233 -241 -247 -156
-193 -280 -393 -437 -706 -47 -92 -99 -192 -116 -221 -17 -29 -31 -55 -31 -57
0 -7 -191 -338 -211 -367 -11 -14 -19 -28 -19 -31 0 -2 -37 -69 -82 -148 -46
-80 -103 -185 -128 -234 -25 -50 -48 -91 -52 -93 -5 -2 -8 -9 -8 -16 0 -7 -9
-31 -20 -54 -11 -22 -20 -47 -20 -53 0 -7 -3 -10 -6 -7 -11 11 66 289 130 476
73 208 165 419 195 442 3 3 44 79 90 170 80 158 95 194 45 113 -49 -79 -21
-12 42 102 220 399 680 1009 945 1253 43 41 79 79 79 86 0 28 318 320 510 468
310 239 657 375 1120 438 226 31 608 33 900 5z m2155 -519 c171 -40 284 -82
454 -167 170 -85 332 -189 481 -308 182 -146 455 -436 573 -609 l39 -57 -48
55 c-191 218 -386 392 -599 534 -410 274 -815 432 -1398 546 -32 7 -57 14 -55
16 15 14 137 22 278 19 132 -3 187 -9 275 -29z m460 -442 c294 -149 563 -340
759 -538 74 -76 156 -175 156 -190 0 -3 17 -30 37 -59 21 -28 60 -86 89 -127
28 -41 77 -112 109 -158 85 -123 196 -318 249 -437 99 -221 197 -706 225
-1114 10 -138 5 -173 -25 -185 -20 -8 -43 19 -44 51 0 42 -50 392 -70 495 -67
342 -171 647 -248 723 -58 57 -198 142 -284 172 -124 43 -295 40 -534 -12 -18
-4 -24 6 -49 78 -16 45 -50 142 -77 215 -51 143 -52 146 -40 138 15 -9 178 26
232 50 57 26 70 37 109 92 50 71 8 206 -112 367 -81 108 -364 335 -613 492
-10 6 -14 12 -9 12 6 1 69 -29 140 -65z m-1265 -883 c60 -17 259 -49 415 -67
171 -19 513 -24 840 -11 l210 9 23 -84 c13 -45 42 -143 64 -216 22 -73 38
-135 35 -138 -14 -14 -227 -22 -331 -13 -702 60 -1292 249 -1460 467 -25 33
-46 64 -46 68 0 10 206 -3 250 -15z m-4160 -142 c0 -16 -45 -88 -119 -189
-161 -221 -224 -350 -300 -612 -47 -162 -83 -335 -158 -759 l-26 -147 -37 -11
c-21 -6 -50 -11 -65 -11 l-28 0 7 87 c8 105 47 344 82 503 93 424 281 789 548
1068 77 80 96 94 96 71z m1919 -331 c6 -649 105 -1008 344 -1250 114 -117 227
-179 472 -263 61 -20 117 -43 125 -51 12 -12 4 -14 -57 -14 -269 0 -631 178
-772 380 -123 176 -200 440 -222 766 -14 207 -8 281 40 447 16 56 35 121 41
145 6 23 14 42 19 42 4 0 9 -91 10 -202z m-254 -64 c-79 -157 -114 -311 -114
-504 -1 -356 161 -681 442 -892 136 -101 228 -145 392 -187 l69 -18 -44 -23
c-25 -13 -64 -36 -88 -52 -35 -24 -43 -35 -40 -55 6 -50 25 -50 185 0 209 66
263 77 388 77 90 0 124 -5 189 -26 89 -28 128 -25 152 11 14 21 14 27 0 54
-16 29 -80 81 -101 81 -31 0 -84 23 -88 38 -3 9 -16 44 -27 77 -17 45 -23 92
-27 187 -3 69 -2 139 2 155 6 26 10 21 51 -65 115 -246 257 -365 613 -513 125
-52 117 -43 145 -153 l6 -26 -37 14 c-168 65 -318 86 -640 93 -566 12 -936
-65 -1175 -246 -87 -66 -152 -147 -200 -248 -21 -46 -43 -83 -47 -83 -5 0 -14
6 -20 14 -21 25 -126 65 -201 77 -121 18 -280 -6 -358 -55 l-39 -24 -17 78
c-39 181 -103 254 -304 346 -2 1 7 17 18 37 29 48 19 77 -47 137 -197 180
-587 202 -781 43 -34 -28 -42 -41 -40 -62 4 -36 31 -37 158 -6 195 48 332 44
455 -14 57 -26 135 -84 135 -100 0 -4 -39 1 -87 11 -133 26 -358 41 -523 34
-190 -9 -564 -51 -665 -75 -44 -11 -81 -18 -83 -17 -12 12 95 384 128 447 13
23 295 42 612 42 l257 -1 23 -25 c22 -25 27 -26 153 -29 146 -2 202 9 210 45
2 12 9 60 15 107 27 219 87 449 168 646 83 203 81 202 75 34 -6 -162 11 -322
51 -494 29 -122 93 -316 111 -334 7 -8 34 -14 61 -15 46 -2 49 -1 55 28 4 17
7 104 8 195 1 183 16 298 61 466 79 297 204 550 390 786 24 32 45 56 47 54 2
-1 -13 -34 -32 -72z m43 -84 c-19 -77 -16 -449 5 -560 38 -202 119 -393 237
-556 58 -80 196 -199 298 -256 29 -17 51 -32 49 -34 -7 -7 -138 49 -196 84
-262 160 -452 454 -491 762 -21 160 2 346 61 505 12 33 26 71 31 84 14 38 18
19 6 -29z m2136 -72 c13 -74 26 -224 36 -418 10 -175 28 -348 45 -424 3 -12 7
-41 9 -66 23 -232 138 -616 256 -850 102 -202 183 -322 308 -454 74 -78 112
-129 112 -151 0 -43 -395 374 -492 519 -174 261 -278 589 -338 1071 -15 116
-15 291 -1 480 6 83 13 194 17 247 5 90 7 97 24 88 10 -5 20 -24 24 -42z
m-2751 -461 c7 -433 3 -620 -15 -562 -65 217 -84 525 -49 795 27 208 29 216
44 201 9 -9 14 -129 20 -434z m-518 83 c9 -29 -1 -68 -49 -200 -68 -184 -119
-430 -114 -548 3 -66 2 -67 -22 -67 l-25 0 3 100 c5 149 28 275 78 420 37 107
81 241 100 303 5 19 22 14 29 -8z m2443 -375 c-3 -3 -9 2 -12 12 -6 14 -5 15
5 6 7 -7 10 -15 7 -18z m51 -90 c34 -64 50 -92 66 -112 6 -7 32 -45 60 -85 27
-40 91 -115 141 -165 50 -51 87 -93 82 -93 -5 0 -44 24 -86 53 -117 80 -174
162 -273 391 -43 99 -38 105 10 11z m-4419 -67 l-17 -71 -124 -45 c-688 -246
-1747 -653 -2189 -842 -206 -88 -399 -189 -441 -231 -20 -20 -47 -63 -59 -95
-32 -81 -32 -232 -1 -474 40 -318 200 -1604 270 -2165 5 -38 7 -72 5 -74 -10
-11 -142 141 -168 193 -49 102 -106 440 -151 896 -8 85 -19 198 -25 250 -6 52
-22 201 -35 330 -14 129 -41 370 -61 535 -34 295 -43 461 -28 520 21 87 83
165 175 218 135 78 1017 432 2264 908 220 84 438 167 485 185 123 47 120 48
100 -38z m-44 -199 c-3 -17 -11 -72 -17 -123 -6 -50 -17 -125 -26 -166 -46
-233 -350 -1197 -506 -1605 -102 -268 -260 -658 -296 -735 -11 -23 -137 -107
-147 -97 -3 2 12 42 32 88 39 92 105 247 208 494 203 482 422 1122 561 1635
53 196 121 442 142 512 4 15 19 23 47 27 5 0 6 -13 2 -30z m-186 -54 c0 -3
-29 -67 -64 -143 -95 -204 -195 -475 -396 -1072 -206 -611 -358 -1008 -480
-1251 -43 -86 -81 -171 -85 -190 -4 -19 -14 -58 -23 -87 l-16 -53 -165 -86
c-91 -48 -223 -119 -293 -159 -111 -63 -128 -70 -128 -52 0 71 163 527 470
1313 189 485 318 836 394 1077 100 316 154 471 168 479 7 5 64 26 127 46 63
20 149 52 190 72 42 19 123 52 181 72 116 40 120 41 120 34z m6104 -444 c24
-36 52 -84 63 -106 41 -80 137 -314 208 -505 40 -107 102 -269 138 -360 82
-210 139 -378 172 -508 23 -91 24 -109 15 -170 -13 -82 -57 -306 -68 -347 -8
-30 -9 -30 -16 15 -8 50 -38 123 -60 145 -8 9 -17 45 -21 92 -3 43 -11 105
-16 137 -6 32 -8 70 -4 83 3 13 -8 75 -26 141 -17 64 -39 151 -50 193 -70 292
-258 881 -360 1133 -27 66 -49 120 -49 121 0 1 7 2 15 2 9 0 35 -30 59 -66z
m-697 23 c33 -14 44 -28 84 -109 l45 -92 -65 42 c-61 40 -66 46 -87 109 -13
36 -21 66 -19 66 3 0 22 -7 42 -16z m-440 -90 c60 -8 144 -24 188 -35 136 -34
265 -100 265 -135 0 -8 4 -12 10 -9 5 3 7 0 4 -9 -8 -20 112 -269 126 -261 5
3 8 0 5 -7 -5 -11 24 -64 73 -135 12 -17 12 -17 7 2 -2 11 -1 26 4 34 8 13
-13 62 -44 101 -22 27 -135 253 -130 258 10 10 67 -52 111 -119 24 -37 55
-101 69 -144 28 -85 30 -99 15 -90 -5 3 -11 3 -11 -2 -7 -42 -1 -74 19 -111
24 -43 25 -47 19 -225 -12 -387 -92 -615 -280 -797 -99 -96 -230 -153 -425
-187 -126 -22 -598 -25 -712 -5 -379 68 -615 200 -770 429 -116 173 -188 500
-177 799 7 181 7 180 31 224 111 205 332 342 636 394 97 17 349 43 475 50 125
7 382 -4 492 -20z m-2957 -58 c218 -27 337 -69 428 -151 98 -88 126 -232 119
-597 -4 -212 -7 -252 -26 -318 -44 -149 -146 -275 -328 -405 -46 -32 -83 -64
-83 -71 0 -12 26 -44 36 -44 15 0 117 59 164 95 113 87 208 204 260 318 53
119 64 190 65 434 1 249 -1 242 80 288 62 35 136 48 239 42 113 -6 168 -26
227 -80 l46 -42 6 -145 c12 -309 89 -601 202 -775 56 -86 188 -212 281 -267
246 -147 545 -213 969 -212 211 0 253 3 344 22 307 67 490 199 618 448 80 155
120 325 130 542 3 72 9 132 12 132 3 0 12 -10 20 -22 8 -13 66 -93 129 -178
150 -201 227 -320 312 -484 39 -73 70 -136 70 -139 0 -4 -10 -7 -23 -7 -63 0
-131 -32 -187 -88 -63 -64 -93 -121 -121 -231 -17 -67 -19 -107 -17 -337 1
-218 -1 -266 -13 -285 -8 -13 -23 -46 -33 -74 -11 -27 -39 -87 -64 -132 l-45
-81 -66 -12 c-36 -6 -151 -26 -256 -45 -566 -103 -1021 -139 -1750 -139 -544
0 -845 17 -1220 70 -970 137 -1823 558 -2062 1019 -52 100 -72 174 -79 295
-13 207 62 454 203 669 l57 86 9 -40 c57 -255 85 -313 207 -436 129 -130 277
-208 473 -249 122 -26 307 -26 307 0 0 4 -60 15 -132 24 -142 19 -241 47 -341
97 -214 108 -357 252 -402 406 -28 96 -56 285 -44 299 7 9 7 18 0 33 -6 11
-11 30 -10 43 1 25 4 19 13 -25 6 -27 7 -27 36 -12 27 14 39 38 38 75 0 8 2
127 5 263 5 211 4 248 -8 243 -9 -3 -12 0 -8 10 3 8 12 13 19 10 17 -6 17 -1
3 26 -8 15 -8 19 0 14 6 -4 11 0 11 8 0 38 208 83 530 115 145 14 525 12 650
-3z m-1210 -140 c0 -2 -8 -10 -17 -17 -16 -13 -17 -12 -4 4 13 16 21 21 21 13z
m4679 -40 c9 -11 9 -16 0 -22 -8 -4 -9 -3 -5 4 4 7 2 12 -3 12 -6 0 -11 5 -11
10 0 14 5 13 19 -4z m-4753 -73 c-3 -10 -7 -92 -8 -183 -1 -123 -4 -155 -11
-125 -16 72 -1 325 20 325 2 0 2 -8 -1 -17z m4814 -76 c0 -12 0 -11 -24 28
l-17 30 20 -24 c12 -13 21 -28 21 -34z m2401 -9 c207 -98 321 -340 306 -648
-14 -295 -158 -595 -404 -843 -48 -48 -112 -104 -142 -124 -110 -73 -278 -116
-461 -117 -152 -1 -204 16 -274 90 -28 30 -57 54 -64 54 -9 0 -12 6 -8 16 18
46 59 203 86 325 50 230 87 519 104 817 4 68 11 93 37 143 55 103 179 210 308
265 110 48 198 64 332 60 98 -2 112 -5 180 -38z m-2384 -10 c-3 -8 -6 -5 -6 6
-1 11 2 17 5 13 3 -3 4 -12 1 -19z m358 -181 c251 -264 309 -336 374 -464 40
-79 63 -168 100 -373 46 -260 46 -260 23 -260 -15 0 -25 17 -47 78 -57 164
-165 337 -417 673 l-154 204 -13 104 c-7 57 -21 131 -31 163 -10 33 -15 58
-11 56 4 -2 83 -83 176 -181z m-312 106 c-4 -9 -2 -14 3 -10 5 3 10 -3 10 -14
0 -10 -1 -19 -3 -19 -8 0 -23 42 -18 50 10 16 15 11 8 -7z m-8156 -215 c-3 -8
-6 -5 -6 6 -1 11 2 17 5 13 3 -3 4 -12 1 -19z m3270 -40 c-3 -7 -5 -2 -5 12 0
14 2 19 5 13 2 -7 2 -19 0 -25z m70 -40 c-3 -8 -6 -5 -6 6 -1 11 2 17 5 13 3
-3 4 -12 1 -19z m7979 -784 c24 -50 68 -124 99 -165 52 -68 87 -110 249 -289
234 -259 453 -570 560 -795 194 -407 263 -881 176 -1220 -19 -74 -91 -239
-123 -280 -14 -18 -16 -9 -16 114 -1 154 -13 273 -42 416 -45 227 -144 539
-251 790 -58 136 -245 509 -305 610 -204 339 -315 551 -353 675 -40 131 -76
325 -48 260 6 -14 30 -66 54 -116z m-8473 -233 c3 -38 19 -109 35 -157 17 -49
27 -92 24 -95 -4 -4 -144 -77 -312 -164 -168 -87 -345 -179 -395 -205 -49 -26
-299 -154 -555 -285 -502 -257 -625 -322 -911 -481 -199 -111 -253 -135 -311
-136 -77 -1 -100 34 -118 182 -16 133 -16 134 28 149 84 30 315 142 622 300
179 93 438 226 575 296 138 70 295 151 350 180 55 29 224 116 375 193 151 78
340 175 420 216 80 42 150 76 156 76 7 0 13 -29 17 -69z m6458 -58 c3 -229 0
-251 -46 -369 -56 -144 -82 -194 -100 -194 -21 0 -19 44 6 115 24 69 119 469
119 503 0 12 5 22 10 22 6 0 10 -33 11 -77z m-360 53 c37 -16 79 -56 100 -96
17 -34 15 -154 -5 -264 -21 -118 -20 -210 3 -261 16 -37 26 -44 92 -69 116
-45 210 -95 264 -140 28 -23 62 -47 77 -53 14 -7 33 -22 42 -35 67 -95 86
-141 86 -213 0 -22 16 -85 36 -140 105 -292 144 -456 144 -603 0 -258 -121
-390 -474 -519 -66 -23 -127 -43 -136 -43 -9 0 -24 15 -33 33 -10 17 -27 47
-39 65 -19 31 -19 35 -5 49 9 9 64 33 124 53 288 99 298 103 298 135 0 23 -6
30 -27 36 -40 11 -160 -7 -283 -41 -114 -32 -151 -48 -202 -86 l-32 -24 -40
38 c-48 46 -50 65 -15 118 42 61 79 84 215 134 117 43 361 184 373 216 9 24
-12 54 -39 54 -24 0 -137 -43 -405 -155 -74 -31 -142 -59 -152 -62 -25 -7 -95
69 -129 140 -28 60 -38 120 -21 131 4 2 66 14 137 26 235 38 323 70 404 145
59 55 82 108 57 133 -14 14 -21 12 -84 -31 -112 -77 -144 -87 -320 -102 -86
-7 -165 -16 -176 -21 -17 -6 -18 -1 -15 84 3 72 8 96 25 119 29 40 94 69 209
93 169 35 275 97 316 185 25 53 24 72 -7 133 -20 41 -31 52 -50 52 -31 0 -43
-26 -37 -81 10 -86 -48 -124 -271 -176 -192 -44 -264 -95 -300 -210 -24 -74
-24 -198 -1 -243 11 -21 13 -35 7 -43 -6 -7 -15 -30 -22 -52 -25 -85 26 -231
116 -333 l47 -53 -16 -37 c-25 -57 -29 -94 -17 -148 19 -87 86 -160 165 -180
18 -4 33 -20 48 -50 11 -24 18 -46 15 -49 -3 -3 -33 -10 -68 -17 -121 -21
-269 24 -374 114 -80 68 -101 150 -81 312 7 53 9 56 24 41 38 -34 80 -7 81 52
0 80 -31 178 -85 268 -60 99 -75 153 -75 267 0 83 20 146 94 297 30 61 60 137
66 169 6 31 18 80 26 109 22 78 34 201 34 355 0 141 16 253 45 323 57 134 163
194 266 151z m-5941 -383 c19 -27 75 -91 126 -143 84 -86 94 -101 110 -158 9
-34 15 -64 13 -67 -3 -2 -234 -130 -514 -283 -874 -478 -935 -513 -984 -566
-22 -23 -23 -31 -19 -101 l5 -77 109 -110 c60 -60 186 -180 279 -266 94 -85
207 -191 253 -234 46 -43 94 -81 108 -84 40 -10 85 9 467 198 198 98 360 178
361 178 2 0 9 -26 16 -57 8 -31 38 -105 66 -163 29 -58 51 -105 51 -106 -1 -1
-54 -29 -117 -64 -413 -226 -1317 -778 -1675 -1024 -182 -124 -400 -293 -527
-408 -59 -54 -109 -98 -112 -98 -8 0 -244 173 -436 318 -223 169 -469 367
-642 514 -170 144 -519 492 -637 633 -84 102 -259 336 -266 358 -4 11 101 94
393 315 111 84 331 231 475 318 55 32 115 73 135 90 l36 30 65 -49 c115 -87
229 -126 323 -108 97 17 99 18 749 357 151 79 278 144 281 144 3 0 3 -20 1
-45 -6 -53 18 -135 53 -182 13 -18 54 -46 91 -65 92 -45 170 -45 303 1 116 41
204 84 520 259 562 310 670 396 616 497 -21 38 -72 64 -201 101 -49 14 -105
35 -123 46 l-34 21 118 63 c66 35 122 64 125 64 3 0 21 -21 39 -47z m-325
-141 c34 -41 107 -77 215 -107 52 -15 99 -31 104 -35 15 -15 -20 -45 -154
-134 -288 -191 -912 -513 -1032 -532 -86 -14 -186 26 -223 89 -21 35 -23 99
-5 161 11 41 12 42 203 139 203 102 754 387 822 424 22 12 41 22 43 23 2 0 14
-13 27 -28z m7694 -111 c33 -129 103 -331 169 -491 57 -136 90 -209 190 -421
104 -220 126 -271 158 -364 50 -146 71 -234 89 -375 18 -145 27 -568 15 -715
-9 -114 -63 -384 -91 -461 -19 -49 -44 -83 -54 -72 -3 2 6 54 20 114 55 249
63 524 26 899 -36 366 -55 442 -181 750 -176 429 -259 642 -293 750 -40 129
-79 313 -84 405 -7 105 6 98 36 -19z m-6973 -117 c30 -23 34 -32 34 -71 0 -37
-3 -44 -16 -39 -9 3 -24 6 -34 6 -16 0 -19 10 -22 65 -1 36 -2 65 0 65 2 0 19
-12 38 -26z m7772 -199 c-3 -3 -9 2 -12 12 -6 14 -5 15 5 6 7 -7 10 -15 7 -18z
m-7765 -20 c109 -19 325 -126 405 -200 66 -61 174 -88 344 -87 l117 1 5 -42
c4 -23 13 -94 22 -157 19 -133 15 -220 -17 -325 l-21 -72 -50 19 c-89 34 -256
51 -419 44 -134 -6 -155 -4 -245 18 -55 13 -106 27 -115 31 -9 3 -65 -3 -123
-14 -127 -25 -235 -27 -275 -6 -67 34 -45 79 73 152 108 66 126 81 126 103 0
10 -30 66 -66 126 -119 195 -143 280 -98 341 57 76 167 99 337 68z m7844 -135
c4 -8 33 -55 65 -104 57 -87 76 -140 64 -172 -10 -27 -29 -10 -47 42 -9 27
-49 121 -88 208 -39 88 -71 162 -70 165 0 5 49 -85 76 -139z m-8297 81 c0 -14
-18 -23 -30 -16 -6 4 -8 11 -5 16 8 12 35 12 35 0z m-2 -144 c-2 -7 -34 -27
-70 -46 l-65 -35 -62 51 -61 52 82 45 82 45 49 -50 c27 -27 47 -55 45 -62z
m-241 -55 l51 -59 -69 -37 -68 -37 -60 48 c-33 26 -60 51 -60 54 -1 4 34 25
77 48 42 22 77 41 77 41 0 0 24 -26 52 -58z m1795 -8 l128 -37 0 -43 c0 -25 7
-88 16 -141 16 -102 9 -214 -19 -313 -52 -182 -48 -172 -81 -165 -17 3 -66 9
-109 12 -66 5 -78 9 -73 22 76 231 73 470 -9 684 -10 24 0 23 147 -19z m-1502
-81 c19 -42 36 -80 38 -84 2 -4 -6 -13 -18 -19 -19 -10 -29 -4 -90 56 l-70 67
48 28 c26 15 49 28 52 28 3 1 21 -34 40 -76z m-484 -18 c26 -31 45 -57 43 -59
-18 -13 -140 -76 -149 -76 -7 0 -36 21 -66 47 -38 32 -52 49 -44 57 14 14 142
83 157 85 6 0 33 -24 59 -54z m2324 -67 c37 -53 71 -114 78 -135 6 -21 17 -58
24 -82 18 -60 42 -74 70 -41 40 49 8 162 -79 283 l-35 47 34 0 c31 0 41 -8
106 -90 73 -91 90 -102 112 -75 17 21 4 49 -46 100 -25 25 -42 45 -37 45 4 0
58 -7 118 -15 61 -8 116 -15 124 -15 10 0 12 -9 6 -36 -10 -55 -45 -128 -122
-251 -39 -62 -76 -133 -82 -158 -20 -81 -153 -280 -205 -307 -11 -6 1 12 27
41 79 85 124 213 103 296 -14 56 -68 8 -121 -110 -42 -93 -83 -140 -143 -166
-69 -30 -212 -23 -212 10 0 5 20 6 44 4 39 -5 46 -2 61 20 9 14 15 34 13 44
-3 10 6 39 18 64 12 25 29 72 38 105 18 71 36 255 30 304 -12 93 -26 187 -31
203 -4 15 0 18 18 15 17 -2 43 -31 89 -100z m3098 53 c31 -16 78 -47 104 -70
44 -39 138 -160 138 -178 0 -4 -43 -6 -96 -4 -301 10 -812 -100 -1364 -296
-285 -101 -413 -157 -536 -235 -61 -38 -63 -38 -108 -26 -25 7 -46 15 -46 18
1 7 141 116 221 171 307 212 683 382 1044 472 157 40 245 50 364 45 59 -3 115
-1 125 4 9 5 16 22 16 39 0 22 -8 34 -31 48 l-32 20 39 6 c21 3 46 8 54 10 36
7 54 3 108 -24z m-5063 -50 c36 -35 65 -64 63 -65 -44 -30 -122 -65 -132 -59
-7 4 -41 33 -75 65 l-63 56 44 25 c73 41 83 46 90 44 3 -1 36 -31 73 -66z
m-528 -107 c-3 -5 -39 -27 -80 -49 l-74 -39 -62 49 c-33 28 -61 52 -61 55 0 3
40 26 88 52 l87 47 54 -54 c29 -29 51 -57 48 -61z m3365 90 c4 -3 -4 -26 -17
-53 -47 -94 -110 -379 -103 -470 3 -40 0 -46 -18 -49 -18 -3 -25 12 -62 125
-48 144 -59 235 -47 377 l7 89 116 -8 c64 -4 120 -9 124 -11z m1353 -30 c-363
-123 -662 -274 -931 -469 -60 -44 -133 -102 -162 -129 -51 -48 -52 -49 -73
-30 -20 18 -20 18 23 31 59 17 121 72 152 135 22 45 26 65 26 145 l0 93 56 0
c130 0 399 102 554 211 l55 39 155 8 c85 5 182 9 215 10 l60 1 -130 -45z
m-1210 -6 c10 -44 29 -81 65 -121 l29 -34 -42 -20 c-63 -31 -135 -99 -164
-156 -22 -44 -25 -60 -20 -114 4 -53 3 -62 -9 -52 -17 14 -19 114 -4 205 19
119 98 324 124 324 8 0 17 -14 21 -32z m685 19 c20 -2 8 -11 -56 -44 -134 -70
-379 -128 -406 -96 -6 8 -25 20 -42 27 -39 17 -82 59 -94 94 l-9 27 291 -3
c160 -1 302 -4 316 -5z m-3837 -85 l49 -49 -73 -41 -73 -40 -72 61 c-40 34
-73 64 -73 67 0 3 32 24 72 46 71 41 72 41 97 24 14 -10 47 -41 73 -68z m387
43 c7 -9 10 -19 6 -22 -8 -9 -38 9 -44 25 -5 17 23 15 38 -3z m-1001 -91 c57
-62 58 -58 -14 -96 -22 -11 -53 -29 -68 -40 l-28 -20 -55 44 c-87 68 -90 70
-79 75 6 2 46 23 90 47 44 24 85 44 91 45 5 0 34 -24 63 -55z m922 40 c11 -13
10 -18 -5 -26 -10 -6 -35 -26 -56 -44 l-37 -33 -27 28 -28 29 54 30 c62 35 81
38 99 16z m2406 -320 l28 -111 -86 -1 c-87 0 -152 -13 -201 -38 -16 -8 -28
-13 -28 -10 0 2 32 58 72 123 40 65 73 130 74 145 1 15 24 65 50 112 l49 86 7
-98 c4 -53 20 -147 35 -208z m-2942 232 c39 -35 68 -66 65 -69 -3 -2 -37 -23
-77 -45 l-72 -40 -75 65 c-42 36 -75 67 -73 69 9 9 143 82 152 83 6 1 42 -28
80 -63z m374 -40 c59 -60 55 -89 -16 -128 l-52 -28 -63 60 c-35 34 -58 63 -53
66 6 3 35 20 65 39 30 18 60 34 65 34 6 1 30 -19 54 -43z m-624 -401 c208
-187 245 -226 243 -257 -1 -15 -5 -28 -9 -28 -3 0 -89 75 -190 167 -162 147
-351 308 -447 383 -31 24 -32 27 -25 83 l6 57 161 -157 c89 -87 206 -198 261
-248z m93 267 c8 -7 13 -14 11 -16 -2 -1 -37 -21 -78 -45 -68 -38 -75 -40 -95
-27 -36 26 -141 124 -136 128 3 2 41 22 85 45 l80 42 59 -57 c33 -31 66 -63
74 -70z m3670 23 c-1 -67 -3 -75 -20 -75 -40 0 -58 19 -58 60 0 34 5 43 37 65
21 14 39 25 40 25 1 0 2 -34 1 -75z m2202 34 l70 -12 39 -71 c58 -105 66 -142
52 -217 -17 -85 -16 -185 3 -239 8 -24 14 -45 13 -46 -1 0 -30 -16 -65 -34
-42 -22 -64 -41 -68 -56 -12 -49 22 -57 96 -23 87 40 85 40 114 10 l26 -27
-52 -34 c-70 -44 -198 -169 -258 -250 -90 -121 -139 -220 -111 -220 5 0 69 66
143 146 127 139 221 224 299 272 46 28 49 28 49 -4 0 -17 -18 -46 -56 -87
-112 -124 -202 -271 -250 -408 -23 -66 -43 -214 -45 -321 0 -34 -6 -35 -53 -3
-75 51 -113 111 -135 215 -6 30 -19 62 -28 72 -37 42 -86 5 -87 -67 -1 -25 -2
-45 -3 -45 -2 0 -25 16 -52 35 -47 34 -49 38 -56 93 -11 102 36 188 198 355
99 101 121 142 92 163 -34 25 -73 -1 -188 -125 -141 -150 -209 -284 -194 -379
l6 -34 -52 9 c-29 4 -117 8 -197 8 -249 -1 -431 -42 -973 -221 -396 -131 -559
-193 -696 -265 -52 -27 -95 -49 -97 -49 -1 0 17 37 41 83 97 182 172 378 195
507 17 98 15 97 60 56 22 -20 50 -36 63 -36 99 1 276 175 352 345 55 126 67
222 36 290 -24 52 -53 78 -134 118 l-66 33 52 18 c29 10 135 51 237 91 252 99
332 127 569 196 329 96 606 156 791 173 68 6 241 -2 320 -15z m-5530 -54 l59
-55 -72 -40 c-40 -22 -76 -40 -82 -39 -14 0 -129 108 -123 114 12 12 134 75
146 75 7 0 39 -25 72 -55z m275 -45 c20 -22 114 -60 147 -60 29 0 17 -10 -59
-50 l-63 -33 -62 58 c-35 32 -64 61 -66 65 -3 7 56 38 74 39 6 1 19 -8 29 -19z
m2936 -63 c-1 -5 2 -7 6 -4 5 2 21 -1 36 -8 l29 -12 -31 -13 c-37 -15 -54 -9
-77 25 -14 21 -15 30 -4 56 l13 31 15 -34 c8 -18 14 -37 13 -41z m5679 -19
c104 -221 171 -454 206 -713 29 -224 9 -543 -48 -730 -16 -54 -30 -79 -62
-110 -46 -45 -122 -93 -113 -73 128 303 153 441 144 802 -9 340 -58 593 -172
889 -4 9 -4 17 -1 17 4 0 24 -37 46 -82z m-9111 14 l63 -58 -78 -42 c-42 -23
-80 -42 -83 -42 -4 0 -35 26 -69 58 l-63 57 78 41 c43 23 80 42 83 43 3 0 34
-26 69 -57z m985 -14 c25 -233 161 -462 414 -700 33 -32 58 -58 55 -58 -3 0
-35 16 -72 35 -161 85 -309 255 -385 441 -28 67 -73 240 -78 294 -3 33 6 41
53 49 4 1 9 -27 13 -61z m-585 -37 l64 -57 -77 -43 -77 -42 -58 50 c-93 81
-92 75 -14 115 37 19 75 35 83 35 8 0 44 -26 79 -58z m451 25 c0 -18 3 -46 6
-62 5 -28 3 -30 -113 -88 -65 -32 -234 -118 -376 -192 -142 -74 -260 -134
-263 -134 -2 0 -4 28 -4 63 l0 62 55 24 c30 13 195 99 367 192 172 92 316 168
321 169 4 0 7 -15 7 -34z m-671 -138 c73 -69 75 -64 -34 -122 l-54 -30 -67 60
c-37 33 -69 65 -71 70 -3 9 131 83 152 83 6 0 39 -27 74 -61z m1436 -5 c17
-143 53 -273 92 -335 12 -21 23 -42 23 -47 0 -5 4 -11 9 -13 11 -4 92 -132
114 -180 l17 -38 -43 0 c-32 0 -49 6 -64 23 -47 49 -134 204 -157 277 -49 155
-58 370 -16 370 15 0 20 -11 25 -57z m1671 -19 c32 -19 63 -39 67 -43 14 -13
-28 -84 -72 -124 -44 -39 -79 -47 -125 -25 -51 22 -45 77 16 168 22 33 43 60
47 60 4 0 34 -16 67 -36z m-222 15 c10 -10 -44 -98 -62 -103 -9 -2 -35 -7 -57
-11 -21 -4 -51 -13 -66 -20 -33 -18 -91 -83 -86 -98 6 -20 35 -19 64 1 44 30
163 55 163 33 0 -4 -17 -20 -39 -34 -21 -14 -83 -68 -138 -119 -55 -51 -117
-102 -137 -113 l-37 -20 -24 27 c-12 14 -39 68 -58 118 l-36 92 49 73 c64 95
123 141 215 172 40 12 237 14 249 2z m628 -204 c92 -29 127 -45 160 -75 40
-35 42 -40 42 -91 0 -65 -30 -135 -103 -240 -56 -82 -81 -111 -129 -151 -47
-39 -72 -36 -113 15 l-34 42 0 182 c0 101 3 183 6 183 3 0 23 -31 45 -70 21
-38 45 -72 52 -75 21 -8 52 14 52 36 0 45 -68 141 -130 184 -28 20 -40 36 -45
63 -3 20 -9 47 -12 60 l-6 24 49 -25 c27 -13 102 -41 166 -62z m-1463 65 c15
0 20 -15 30 -86 24 -172 73 -358 115 -442 28 -56 24 -64 -17 -32 -26 20 -70
146 -146 411 -35 122 -39 164 -15 155 9 -3 24 -6 33 -6z m1170 -342 c-7 -260
-15 -338 -54 -488 -40 -156 -151 -405 -237 -534 -36 -53 -121 -161 -139 -176
-26 -22 -139 -155 -167 -198 -35 -53 -36 -53 -49 -30 -26 46 -61 175 -72 263
-23 189 -6 611 25 630 179 110 347 278 439 439 25 45 60 119 77 164 28 72 37
86 68 102 19 10 51 34 69 54 19 20 37 36 40 36 4 0 3 -118 0 -262z m-254 154
c7 -4 -5 -38 -33 -92 -45 -86 -52 -67 -11 28 11 24 19 50 19 58 0 15 9 18 25
6z m-6326 -252 c347 -400 741 -745 1502 -1312 l196 -146 5 -139 c3 -76 9 -146
13 -156 9 -21 -184 111 -325 222 -336 264 -629 531 -1147 1045 -225 223 -304
308 -309 330 -4 17 -22 67 -42 111 -34 77 -102 269 -102 288 0 5 19 -15 42
-45 23 -29 98 -118 167 -198z m6171 169 c-22 -49 -26 -129 -8 -147 7 -7 20
-12 30 -12 10 0 18 -4 18 -8 0 -12 -109 -142 -119 -142 -5 0 -17 20 -26 45
-14 35 -16 60 -10 122 l7 78 61 57 c33 32 62 56 64 54 2 -2 -6 -23 -17 -47z
m-1845 -100 c69 -66 157 -135 193 -152 31 -14 28 -24 -15 -37 -21 -7 -55 -23
-75 -36 -34 -22 -42 -23 -85 -13 -119 27 -352 -45 -456 -140 -23 -21 -62 -47
-87 -58 -47 -21 -386 -222 -645 -383 -423 -262 -1049 -705 -1272 -898 l-81
-71 -11 63 c-6 34 -11 101 -11 148 l0 85 113 81 c420 299 1102 742 1602 1040
254 152 749 432 763 432 1 0 31 -27 67 -61z m5818 9 c4 -29 26 -111 49 -183
40 -124 42 -136 42 -257 1 -69 -2 -129 -5 -132 -26 -26 -356 -38 -484 -17
-162 27 -305 95 -372 179 -29 36 -31 43 -22 73 5 19 13 107 16 197 5 133 9
162 20 158 110 -42 273 -50 368 -18 48 16 77 19 145 16 66 -4 100 -1 150 14
36 11 70 20 76 21 6 0 14 -22 17 -51z m483 -34 c19 -66 44 -282 44 -381 0 -99
-28 -269 -62 -373 -34 -105 -106 -246 -139 -274 -45 -38 -63 -34 -38 8 11 18
37 85 58 148 79 234 111 427 112 666 0 130 -3 158 -15 168 -16 11 -22 65 -9
78 16 16 38 -2 49 -40z m412 -1 c48 -62 103 -181 128 -281 41 -160 32 -376
-22 -577 -49 -180 -104 -303 -202 -456 -48 -75 -62 -89 -104 -107 -26 -11 -45
-15 -41 -9 5 7 34 51 65 98 103 154 152 285 202 530 63 313 58 464 -20 689
-24 69 -48 126 -54 128 -15 5 -12 22 4 22 8 0 28 -17 44 -37z m-5170 -50 c15
3 37 8 50 12 20 7 22 4 22 -32 0 -52 22 -124 50 -163 12 -17 19 -34 15 -38 -3
-4 -45 -36 -93 -72 -76 -58 -89 -72 -109 -123 -43 -106 -56 -221 -50 -432 7
-205 24 -330 62 -438 30 -86 83 -176 112 -190 29 -13 40 -3 141 118 41 50 73
86 71 80 -181 -450 -231 -592 -278 -780 -55 -222 -66 -286 -66 -405 0 -102 3
-121 26 -170 33 -70 79 -117 148 -148 72 -33 198 -49 285 -36 37 6 68 8 71 6
8 -8 -101 -92 -155 -120 -46 -22 -68 -27 -135 -27 -44 -1 -100 3 -125 7 -67
12 -177 69 -245 127 -79 68 -145 111 -167 111 -14 0 -17 5 -13 23 22 93 37
184 42 250 l6 77 38 12 c66 19 178 124 179 167 0 8 13 50 29 95 55 155 64 192
54 222 -11 35 1 28 -373 234 -167 92 -306 172 -307 177 -3 9 29 60 145 231 33
48 47 30 47 -61 l0 -72 30 0 c22 0 35 8 53 35 35 52 26 105 -42 234 -49 92
-56 114 -56 162 0 92 33 147 259 438 54 70 76 125 56 145 -11 11 -18 10 -42
-7 -32 -22 -95 -89 -130 -137 -19 -26 -22 -27 -23 -10 0 45 86 194 113 196 26
1 129 135 173 224 l47 93 29 -10 c16 -6 41 -8 56 -5z m3390 -92 c-3 -29 -14
-60 -26 -76 -27 -34 -40 -83 -43 -155 -2 -77 10 -432 16 -450 8 -25 85 -69
155 -89 140 -40 141 -41 75 -36 -79 7 -194 63 -301 148 -78 62 -81 67 -88 115
-13 97 22 248 86 376 42 85 119 216 125 216 3 0 3 -22 1 -49z m-5048 -185 c0
-2 -26 -20 -57 -41 -64 -42 -167 -121 -226 -172 -49 -43 -62 -42 -38 5 38 72
136 154 221 185 56 20 100 30 100 23z m5217 -220 c116 -76 273 -120 474 -132
105 -6 304 7 345 23 28 10 -22 -73 -60 -102 -84 -64 -250 -91 -513 -82 -165 5
-239 19 -323 60 l-45 22 0 65 c0 36 -4 112 -8 170 l-8 105 43 -47 c24 -26 67
-63 95 -82z m-1244 -23 c-7 -2 -19 -2 -25 0 -7 3 -2 5 12 5 14 0 19 -2 13 -5z
m-158 -23 c-18 -8 -18 -9 5 -10 18 0 9 -6 -30 -20 -60 -21 -120 -26 -120 -10
0 6 -7 10 -16 10 -26 0 -9 -25 22 -31 28 -6 28 -7 -7 -8 -52 -2 -101 -21 -95
-37 3 -9 -11 -21 -41 -34 -52 -23 -79 -27 -107 -15 -13 6 -17 5 -12 -3 8 -13
-82 -62 -113 -62 -11 0 -23 -4 -26 -10 -3 -5 -15 -10 -26 -10 -10 0 -19 5 -19
10 0 6 9 10 19 10 11 0 23 9 26 20 3 11 11 20 17 20 6 0 21 11 34 25 l23 25
-32 9 c-30 9 -30 9 -7 12 35 3 40 3 85 -4 27 -4 35 -3 25 3 -12 8 -12 10 -1
10 7 0 11 6 7 15 -3 8 -2 15 2 15 4 0 24 5 46 9 28 7 36 7 27 -2 -16 -16 -14
-27 7 -27 10 0 25 9 35 20 15 18 15 20 0 20 -30 0 -8 9 47 19 30 5 82 16 115
24 68 17 144 21 110 7z m268 -27 c-7 -2 -19 -2 -25 0 -7 3 -2 5 12 5 14 0 19
-2 13 -5z m-280 -20 c-7 -2 -19 -2 -25 0 -7 3 -2 5 12 5 14 0 19 -2 13 -5z
m-4286 -92 c-13 -14 -34 -37 -46 -51 -13 -14 -51 -61 -86 -105 -304 -388 -408
-798 -293 -1155 18 -57 30 -74 99 -141 68 -67 220 -178 264 -195 17 -7 20 -24
5 -24 -6 0 -28 -12 -50 -26 -45 -30 -100 -100 -165 -211 -85 -144 -157 -219
-277 -291 l-36 -22 4 122 c3 68 10 139 15 158 9 28 6 63 -10 157 -41 234 -25
580 45 988 34 203 55 288 93 382 93 235 228 394 381 454 41 16 47 16 63 1 17
-15 16 -17 -6 -41z m4163 44 c0 -10 -53 -26 -67 -20 -24 9 -3 25 33 25 19 0
34 -2 34 -5z m-460 -70 c11 -13 9 -20 -9 -39 -12 -13 -21 -29 -19 -36 2 -7
-10 -20 -25 -29 -26 -15 -29 -15 -43 4 -8 11 -13 28 -11 37 4 13 -1 16 -22 14
-14 -2 -20 -1 -13 1 7 3 25 11 40 19 l27 15 -35 -5 c-33 -6 -33 -5 10 13 56
24 84 25 100 6z m-4160 -155 c-28 -46 -63 -116 -78 -157 -15 -40 -30 -72 -33
-70 -3 1 -36 30 -74 64 l-67 62 84 54 c155 99 213 135 216 132 1 -1 -21 -39
-48 -85z m3876 44 c18 -14 18 -14 -6 -3 -31 14 -36 19 -24 19 6 0 19 -7 30
-16z m-51 -14 c-27 -12 -43 -12 -25 0 8 5 22 9 30 9 10 0 8 -3 -5 -9z m-80
-30 c-28 -12 -37 -12 -30 0 3 6 16 10 28 9 21 0 21 -1 2 -9z m-240 -40 c-3 -5
-12 -10 -18 -10 -7 0 -6 4 3 10 19 12 23 12 15 0z m71 -14 c2 -11 -4 -12 -27
-4 -36 12 -38 21 -3 12 21 -6 25 -4 19 7 -5 8 -4 10 0 6 5 -4 10 -14 11 -21z
m2358 -28 c18 -29 -7 -177 -42 -252 -74 -159 -286 -386 -359 -386 -23 0 -16
10 63 93 49 50 111 124 137 164 63 95 135 251 156 335 16 67 25 77 45 46z
m-2287 6 c-3 -3 -12 -4 -19 -1 -8 3 -5 6 6 6 11 1 17 -2 13 -5z m-261 -29 c21
-16 22 -15 -54 -19 -39 -2 -41 -1 -20 10 16 9 27 9 36 2 7 -6 16 -8 19 -4 4 4
1 11 -7 16 -8 6 -10 10 -4 10 5 0 19 -7 30 -15z m-3650 -117 c103 -107 129
-168 92 -215 -5 -7 -6 -18 -3 -25 4 -7 -6 3 -23 22 -17 19 -29 41 -27 48 3 7
1 11 -3 8 -5 -3 -22 12 -39 32 -17 20 -52 59 -77 87 -25 27 -46 53 -46 56 0 7
51 48 60 49 3 0 33 -28 66 -62z m3454 18 c0 -2 -7 -7 -16 -10 -8 -3 -12 -2 -9
4 6 10 25 14 25 6z m65 -16 c3 -5 1 -10 -4 -10 -6 0 -11 5 -11 10 0 6 2 10 4
10 3 0 8 -4 11 -10z m-5696 -103 c47 -42 61 -61 56 -75 -32 -84 -62 -293 -70
-492 -4 -107 7 -433 19 -553 4 -39 0 -40 -36 -9 -10 8 -15 19 -12 23 3 5 -2 9
-10 9 -13 0 -16 12 -16 53 0 28 -7 99 -15 156 -34 237 -47 501 -36 706 6 106
11 214 11 239 l0 45 23 -22 c13 -12 51 -48 86 -80z m5561 85 c0 -5 -12 -14
-27 -21 l-28 -12 25 21 c29 22 30 23 30 12z m-3610 -48 c0 -8 -4 -13 -9 -9 -5
3 -12 1 -16 -5 -3 -5 -1 -10 4 -10 6 0 11 -12 11 -26 0 -22 -3 -24 -22 -19
-22 7 -22 6 -5 -7 18 -13 18 -21 8 -109 -29 -246 -43 -1638 -20 -1959 10 -144
10 -144 -13 -161 -12 -10 -27 -15 -32 -12 -5 3 -6 2 -3 -4 3 -5 -7 -17 -23
-26 l-28 -17 -6 82 c-21 302 -27 700 -17 1084 14 521 31 859 43 842 6 -8 7 -1
3 20 -8 38 14 254 25 247 4 -2 5 6 3 19 -4 18 5 29 44 54 56 37 53 36 53 16z
m3575 -15 c11 -16 1 -19 -13 -3 -7 8 -8 14 -3 14 5 0 13 -5 16 -11z m-3325
-251 c0 -4 -8 -5 -17 -2 -15 5 -15 4 -3 -4 8 -6 17 -9 21 -7 3 3 14 -4 24 -15
12 -14 15 -27 10 -51 l-7 -32 -21 34 c-11 19 -40 64 -65 101 -24 37 -41 72
-37 77 3 6 0 9 -8 5 -19 -7 -74 76 -57 86 9 5 9 9 1 14 -6 4 -11 12 -11 19 0
12 169 -212 170 -225z m-475 85 c-46 -451 -70 -1101 -60 -1608 4 -198 10 -406
13 -462 4 -57 6 -103 5 -103 -1 0 -8 7 -16 15 -8 8 -30 23 -48 33 l-34 19 -8
359 c-14 651 2 1325 39 1634 4 30 7 63 8 72 1 13 83 83 103 87 2 1 1 -20 -2
-46z m1705 33 c0 -2 -7 -6 -15 -10 -8 -3 -15 -1 -15 4 0 6 7 10 15 10 8 0 15
-2 15 -4z m-3244 -56 c32 -21 46 -50 23 -50 -5 0 -7 6 -3 13 5 9 3 9 -7 -1
-11 -10 -11 -15 -2 -20 10 -6 10 -25 -2 -85 -25 -129 -31 -469 -11 -622 9 -71
19 -138 22 -147 3 -10 1 -18 -5 -18 -5 0 -12 10 -14 23 -3 14 -4 12 -3 -8 0
-20 -4 -29 -13 -27 -7 1 -10 -2 -7 -6 3 -5 -3 -17 -14 -27 -18 -16 -19 -16
-25 22 -3 21 -11 67 -18 103 -13 73 -16 463 -4 555 32 262 32 263 36 310 2 17
5 25 7 18 3 -7 21 -22 40 -33z m5251 8 c-3 -7 -5 -2 -5 12 0 14 2 19 5 13 2
-7 2 -19 0 -25z m124 9 c-10 -9 -11 -8 -5 6 3 10 9 15 12 12 3 -3 0 -11 -7
-18z m-2181 -10 c0 -11 -15 -19 -85 -46 -5 -2 10 11 35 28 52 36 50 35 50 18z
m-1278 -152 c23 -38 57 -94 76 -123 l35 -53 -17 -212 c-9 -117 -16 -235 -16
-263 0 -72 -10 -77 -105 -57 l-78 17 7 286 c3 157 9 345 12 419 l7 135 19 -40
c11 -21 38 -70 60 -109z m1375 139 c-3 -3 -12 -4 -19 -1 -8 3 -5 6 6 6 11 1
17 -2 13 -5z m136 -1 c-7 -2 -19 -2 -25 0 -7 3 -2 5 12 5 14 0 19 -2 13 -5z
m3359 -13 c45 -13 93 -51 116 -94 14 -26 17 -60 17 -216 -1 -175 -3 -191 -32
-303 -95 -355 -392 -744 -642 -841 -57 -22 -149 -23 -191 -1 -17 9 -30 19 -28
23 2 4 20 41 40 82 92 186 136 462 111 700 -5 49 -10 64 -25 68 -22 5 -22 12
-2 117 15 74 19 84 38 82 15 -1 26 10 44 48 38 81 72 124 147 187 106 90 245
153 345 157 14 0 42 -4 62 -9z m-5452 -171 c-5 -68 -14 -209 -19 -312 -5 -104
-12 -191 -15 -195 -7 -6 -150 40 -336 108 -183 67 -225 86 -225 98 0 6 44 39
98 72 54 33 166 111 249 173 190 140 252 184 256 182 2 -2 -2 -58 -8 -126z
m1820 128 c0 -2 -10 -12 -22 -23 l-23 -19 19 23 c18 21 26 27 26 19z m669 -23
c14 -12 -19 -1 -35 12 -18 14 -18 14 6 3 14 -6 27 -13 29 -15z m-29 -20 c0 -2
-11 2 -25 8 -14 6 -25 15 -25 20 0 5 11 1 25 -8 14 -9 25 -18 25 -20z m-3605
-44 c3 -5 -17 -21 -44 -35 -60 -30 -64 -30 -58 -7 3 9 8 39 12 65 l6 48 40
-31 c21 -17 41 -35 44 -40z m2898 30 c3 -11 1 -20 -4 -20 -5 0 -9 9 -9 20 0
11 2 20 4 20 2 0 6 -9 9 -20z m702 -10 c3 -5 2 -10 -4 -10 -5 0 -13 5 -16 10
-3 6 -2 10 4 10 5 0 13 -4 16 -10z m1482 -12 c-3 -8 -6 -5 -6 6 -1 11 2 17 5
13 3 -3 4 -12 1 -19z m-1272 -36 c-3 -3 -11 0 -18 7 -9 10 -8 11 6 5 10 -3 15
-9 12 -12z m-25 -12 c0 -5 -4 -10 -9 -10 -5 0 -18 -3 -28 -6 -16 -6 -16 -5 2
9 23 19 35 21 35 7z m1171 -13 c-10 -9 -11 -8 -5 6 3 10 9 15 12 12 3 -3 0
-11 -7 -18z m26 -9 c-3 -8 -6 -5 -6 6 -1 11 2 17 5 13 3 -3 4 -12 1 -19z
m-4873 -50 c-3 -4 -10 -8 -15 -8 -6 0 -7 5 -4 10 3 6 1 10 -5 10 -7 0 -10 -7
-6 -15 7 -18 -69 -70 -86 -59 -6 4 -8 3 -4 -4 3 -6 -7 -20 -23 -31 -32 -23
-46 -27 -35 -9 4 7 3 8 -5 4 -6 -4 -9 -11 -6 -15 2 -5 -4 -16 -15 -26 -21 -19
-28 -7 -8 13 7 7 8 12 2 12 -5 0 -8 20 -6 44 4 42 6 44 62 71 32 15 62 28 67
28 4 0 16 5 26 12 16 11 22 10 43 -7 13 -12 21 -25 18 -30z m3781 42 c-3 -5
-12 -10 -18 -10 -7 0 -6 4 3 10 19 12 23 12 15 0z m29 -24 c-10 -8 -21 -12
-24 -10 -5 6 21 24 34 24 6 0 1 -6 -10 -14z m86 -34 c3 -3 -5 -1 -17 2 -18 6
-22 4 -17 -8 4 -11 0 -13 -16 -9 -20 5 -20 7 -6 15 14 8 15 12 4 26 -10 12 -6
11 17 -3 17 -11 32 -21 35 -23z m949 -7 c0 -5 -4 -3 -9 5 -5 8 -9 22 -9 30 0
16 17 -16 18 -35z m32 14 c-5 -13 -10 -19 -10 -12 -1 15 10 45 15 40 3 -2 0
-15 -5 -28z m-896 -57 c-3 -3 -11 0 -18 7 -9 10 -8 11 6 5 10 -3 15 -9 12 -12z
m75 -37 c0 -10 -16 -4 -40 16 l-25 20 33 -16 c17 -8 32 -18 32 -20z m-4005 15
c3 -5 1 -10 -4 -10 -6 0 -11 5 -11 10 0 6 2 10 4 10 3 0 8 -4 11 -10z m10 -20
c11 -1 33 -11 49 -25 26 -21 28 -25 15 -41 -13 -16 -12 -16 8 -6 26 14 36 15
29 3 -3 -5 0 -8 7 -7 15 1 191 -85 195 -96 2 -4 10 -8 17 -8 8 0 56 -18 107
-41 51 -23 129 -54 173 -70 44 -16 87 -33 95 -37 8 -5 65 -23 127 -42 62 -18
114 -38 115 -44 2 -6 2 -46 0 -88 l-4 -77 -86 32 c-48 17 -89 33 -92 36 -3 3
-14 8 -25 9 -26 5 -181 71 -311 132 -116 55 -258 139 -457 270 -93 62 -96 65
-72 74 14 6 25 14 25 18 0 14 44 27 55 17 5 -5 18 -9 30 -9z m4005 -20 c0 -5
-4 -10 -9 -10 -6 0 -13 5 -16 10 -3 6 1 10 9 10 9 0 16 -4 16 -10z m134 -55
c11 -8 16 -15 10 -15 -5 0 -18 7 -28 15 -11 8 -16 15 -10 15 5 0 18 -7 28 -15z
m589 -35 c3 -11 1 -18 -4 -14 -5 3 -9 12 -9 20 0 20 7 17 13 -6z m-4933 -17
c0 -27 -18 -42 -70 -60 -13 -4 -13 -4 0 6 10 7 11 11 3 11 -7 0 -10 6 -7 14 3
9 12 12 21 9 11 -4 14 -3 9 6 -5 7 0 18 10 26 27 21 34 18 34 -12z m104 -34
c-4 -8 -3 -9 4 -5 7 4 17 4 23 0 8 -4 7 -9 -2 -15 -20 -12 -23 -11 -47 11 -12
12 -22 32 -22 47 l0 26 26 -26 c15 -15 23 -31 18 -38z m4301 23 c-3 -3 -11 0
-18 7 -9 10 -8 11 6 5 10 -3 15 -9 12 -12z m512 -14 c-3 -8 -6 -5 -6 6 -1 11
2 17 5 13 3 -3 4 -12 1 -19z m-4678 -88 c140 -94 234 -146 416 -235 151 -73
225 -103 425 -171 34 -12 56 -26 58 -37 2 -10 -3 -17 -13 -17 -10 0 -13 5 -9
12 4 7 3 8 -5 4 -14 -9 -75 10 -236 74 -116 46 -355 157 -355 164 0 2 10 2 23
0 20 -4 20 -4 2 5 -11 4 -23 7 -27 4 -17 -9 -281 154 -273 168 4 5 -2 6 -11 2
-13 -5 -15 -3 -9 7 5 9 4 11 -3 6 -7 -4 -32 7 -57 25 -32 23 -42 35 -33 41 7
4 14 8 16 8 1 0 43 -27 91 -60z m3004 39 c23 -12 44 -23 46 -25 1 -1 -15 -28
-38 -60 -68 -95 -126 -269 -156 -472 -17 -113 -19 -329 -5 -421 6 -35 9 -66 6
-68 -13 -13 -73 37 -93 77 -13 24 -28 47 -34 50 -31 20 -39 270 -14 430 38
231 92 368 181 457 29 29 55 53 59 53 3 0 25 -10 48 -21z m1603 -81 c-3 -18
-1 -40 5 -48 8 -12 9 -9 4 10 -4 18 -3 21 4 10 5 -9 6 -30 1 -50 -4 -20 -8
-26 -9 -14 -1 11 -7 28 -14 38 -10 14 -11 26 -3 52 14 43 20 44 12 2z m35 -89
c-5 -13 -10 -19 -10 -12 -1 15 10 45 15 40 3 -2 0 -15 -5 -28z m-84 -101 c-3
-7 -5 -2 -5 12 0 14 2 19 5 13 2 -7 2 -19 0 -25z m50 0 c-3 -8 -6 -5 -6 6 -1
11 2 17 5 13 3 -3 4 -12 1 -19z m-22 -96 c-16 -16 -22 18 -12 63 l12 50 3 -54
c2 -29 1 -56 -3 -59z m-44 27 c-5 -13 -10 -19 -10 -12 -1 15 10 45 15 40 3 -2
0 -15 -5 -28z m-849 -43 c-2 -20 -6 -36 -8 -36 -5 0 -30 51 -39 78 -7 23 -6
23 22 8 26 -13 29 -19 25 -50z m-2217 28 c14 -6 12 -11 -11 -35 -35 -37 -44
-36 -44 0 0 35 20 48 55 35z m2390 -63 c34 -11 82 -22 108 -26 51 -8 51 -8 37
-68 -5 -23 -21 -101 -35 -174 -28 -144 -90 -367 -130 -465 -51 -125 -130 -209
-182 -192 -10 3 -24 8 -31 10 -10 3 -9 12 4 41 39 90 76 224 108 395 41 215
55 349 46 436 -4 40 -2 62 5 62 5 0 37 -9 70 -19z m662 -3 c-3 -8 -6 -5 -6 6
-1 11 2 17 5 13 3 -3 4 -12 1 -19z m-2929 -35 c2 -21 5 -39 7 -42 3 -2 -14
-25 -38 -51 -23 -26 -64 -75 -92 -110 -27 -34 -51 -57 -53 -51 -2 7 3 20 12
30 9 10 16 21 16 26 0 5 -7 0 -15 -11 -14 -18 -15 -15 -13 31 1 28 3 56 6 62
3 10 160 153 167 153 0 0 2 -17 3 -37z m2919 -90 c-2 -16 -4 -5 -4 22 0 28 2
40 4 28 2 -13 2 -35 0 -50z m28 -70 c-9 -15 -13 -19 -9 -8 4 11 10 47 13 80
l6 60 3 -52 c2 -35 -2 -62 -13 -80z m-2222 26 c4 -28 22 -87 41 -131 27 -62
33 -85 25 -100 -7 -13 -5 -37 7 -81 28 -105 32 -130 36 -192 2 -47 0 -60 -12
-63 -9 -1 -54 35 -102 80 -76 74 -89 91 -113 156 -15 41 -34 76 -43 79 -25 10
-43 -27 -41 -81 l3 -48 -84 -73 c-47 -41 -140 -108 -207 -150 -107 -67 -193
-141 -193 -167 0 -16 -34 -8 -57 14 -26 25 -30 66 -9 106 19 36 119 113 203
156 141 71 273 192 339 314 74 136 153 232 190 232 6 0 14 -23 17 -51z m2278
-126 c13 -17 13 -17 -6 -3 -11 8 -22 16 -24 17 -2 2 0 3 6 3 6 0 17 -8 24 -17z
m54 7 c-3 -5 -11 -10 -16 -10 -6 0 -7 5 -4 10 3 6 11 10 16 10 6 0 7 -4 4 -10z
m0 -38 c-3 -3 -11 0 -18 7 -9 10 -8 11 6 5 10 -3 15 -9 12 -12z m-2490 -302
c9 -15 -111 -145 -186 -201 -37 -27 -101 -65 -144 -85 -161 -74 -121 -11 62
98 59 35 137 93 177 130 74 70 81 74 91 58z m1845 -460 c46 -14 212 -37 327
-45 106 -8 103 -3 103 -132 0 -108 -25 -177 -84 -231 -58 -53 -111 -68 -194
-54 -129 21 -168 82 -183 284 -5 73 -11 145 -14 161 -5 30 -4 31 45 17z m1300
-94 c369 -50 516 -157 440 -323 -48 -108 -120 -161 -228 -170 -126 -10 -255
27 -631 181 -116 47 -210 79 -255 86 l-71 12 0 114 0 113 110 4 c186 7 524 -2
635 -17z m-1445 -133 c4 -48 11 -100 16 -116 7 -26 5 -29 -52 -58 -33 -16
-114 -63 -180 -104 -242 -151 -517 -291 -649 -333 -202 -64 -345 -54 -411 28
-33 42 -41 94 -24 166 31 135 144 243 335 321 250 103 606 174 902 182 l56 1
7 -87z m593 -603 c66 -350 68 -500 7 -620 -47 -95 -132 -139 -281 -147 -76 -5
-98 -2 -136 15 -53 23 -94 73 -114 139 -20 63 -19 244 0 348 21 105 80 309
116 393 54 130 37 117 153 117 91 0 108 3 152 27 l50 26 11 -67 c6 -36 25
-140 42 -231z m1051 106 c-2 -2 -15 -9 -29 -15 -24 -11 -24 -11 -6 3 16 13 49
24 35 12z m10 -48 c-1 -19 -2 -19 -6 -5 -3 11 -11 16 -19 13 -9 -3 -12 -1 -9
4 12 19 35 10 34 -12z m-42 -115 c-3 -10 -5 -4 -5 12 0 17 2 24 5 18 2 -7 2
-21 0 -30z m-30 5 c-3 -8 -6 -5 -6 6 -1 11 2 17 5 13 3 -3 4 -12 1 -19z m43
-43 c-10 -12 -10 -18 1 -32 12 -17 12 -17 -4 -2 -18 16 -14 49 5 49 6 0 5 -6
-2 -15z m-2924 -84 c-4 -5 -3 -17 1 -28 6 -16 8 -15 14 7 4 14 6 -4 4 -40 -3
-42 0 -67 8 -73 8 -6 8 -7 -3 -4 -8 2 -21 14 -27 28 -16 30 -17 119 -2 119 5
0 8 -4 5 -9z m54 -94 c0 -5 -4 -5 -10 -2 -5 3 -10 14 -10 23 0 15 2 15 10 2 5
-8 10 -19 10 -23z m0 -54 c-11 -17 -11 -17 -6 0 3 10 6 24 7 30 0 9 2 9 5 0 3
-7 0 -20 -6 -30z m180 -63 c0 -5 -5 -10 -11 -10 -5 0 -7 5 -4 10 3 6 8 10 11
10 2 0 4 -4 4 -10z m1227 -555 c1 -15 0 -15 -3 -3 -3 9 -13 19 -22 22 -12 3
-12 4 3 3 12 -1 21 -10 22 -22z m68 -205 c-3 -5 -12 -10 -18 -10 -7 0 -6 4 3
10 19 12 23 12 15 0z"/>
<path d="M11577 12581 c-10 -22 -28 -55 -40 -73 -30 -45 -57 -117 -57 -154 0
-19 8 -38 22 -50 20 -18 21 -18 15 -1 -4 11 -3 16 3 12 6 -3 10 -12 10 -19 0
-7 9 -21 21 -32 32 -29 69 -109 69 -149 0 -35 19 -51 21 -17 0 11 2 12 6 4 3
-7 0 -19 -7 -27 -6 -8 -11 -27 -10 -42 3 -48 1 -60 -9 -44 -6 10 -11 2 -16
-27 -3 -22 -19 -67 -35 -101 -16 -34 -27 -69 -24 -79 5 -13 4 -14 -4 -3 -8 11
-12 10 -21 -7 -6 -11 -8 -29 -5 -39 5 -14 4 -15 -4 -4 -9 12 -13 9 -23 -15 -7
-16 -20 -38 -30 -49 -9 -11 -42 -69 -73 -130 l-56 -110 27 -12 c38 -17 63 -16
63 2 0 8 3 15 8 15 4 0 18 24 32 53 27 57 102 171 132 201 11 10 17 24 14 32
-3 9 1 14 12 15 14 0 14 2 2 6 -8 3 -18 11 -22 17 -11 16 -10 54 3 61 18 12
59 -4 59 -23 0 -10 9 -3 25 20 22 33 26 76 5 63 -4 -3 -7 1 -7 8 2 20 -13 91
-23 109 -5 9 -6 19 -1 22 5 3 11 25 15 48 6 39 35 97 61 124 6 6 25 19 43 28
l32 16 -27 43 c-15 23 -30 44 -33 47 -22 19 -32 78 -28 155 3 57 1 82 -6 79
-6 -3 -3 1 8 10 17 14 16 16 -16 29 -19 8 -53 18 -74 21 -38 6 -40 5 -57 -33z
m118 -9 c-3 -3 -11 0 -18 7 -9 10 -8 11 6 5 10 -3 15 -9 12 -12z m2 -84 c-3
-7 -5 -2 -5 12 0 14 2 19 5 13 2 -7 2 -19 0 -25z m-177 -63 c0 -14 -4 -25 -9
-25 -4 0 -6 11 -3 25 2 14 6 25 8 25 2 0 4 -11 4 -25z m180 -269 c0 -3 -4 -8
-10 -11 -5 -3 -10 -1 -10 4 0 6 5 11 10 11 6 0 10 -2 10 -4z m-33 -63 c-3 -10
-5 -4 -5 12 0 17 2 24 5 18 2 -7 2 -21 0 -30z m-20 -145 c-3 -7 -5 -2 -5 12 0
14 2 19 5 13 2 -7 2 -19 0 -25z m-65 -130 c-5 -7 -12 -24 -15 -38 -4 -22 -4
-22 -6 6 0 16 4 35 11 42 15 15 24 6 10 -10z m95 6 c-3 -3 -12 -4 -19 -1 -8 3
-5 6 6 6 11 1 17 -2 13 -5z m-270 -410 c-3 -3 -12 -4 -19 -1 -8 3 -5 6 6 6 11
1 17 -2 13 -5z"/>
<path d="M11815 12481 c-9 -53 5 -88 65 -167 26 -33 55 -73 63 -90 l16 -29 -5
35 c-17 102 -71 240 -87 223 -4 -3 -7 0 -7 8 0 8 -9 25 -19 38 l-19 24 -7 -42z
m82 -96 c8 -9 13 -18 11 -21 -3 -2 -13 5 -23 16 -21 23 -11 27 12 5z"/>
<path d="M11875 11806 l-60 -9 -78 -103 c-43 -57 -76 -108 -72 -114 4 -6 1 -9
-7 -8 -8 2 -12 -4 -10 -16 2 -10 -1 -15 -6 -12 -12 7 -33 -19 -55 -66 -12 -28
-13 -38 -4 -39 6 0 3 -4 -8 -9 -14 -6 -15 -9 -5 -10 10 -1 9 -4 -5 -10 -13 -6
-15 -9 -5 -9 8 0 29 7 45 15 17 8 21 12 10 9 -11 -4 -16 -3 -12 2 5 4 21 8 37
9 15 1 34 7 42 13 7 6 32 26 55 45 30 24 39 36 31 44 -8 8 -6 18 6 36 17 26
36 35 36 16 0 -5 -6 -9 -12 -7 -7 1 -12 -6 -12 -15 1 -10 -2 -15 -7 -12 -5 3
-9 0 -9 -5 0 -17 12 -13 42 16 15 15 28 37 28 49 0 13 4 26 10 29 6 3 7 -1 4
-12 -5 -17 -5 -17 6 0 6 9 8 22 4 29 -4 6 -3 8 4 4 13 -8 55 82 47 101 -2 8
-1 12 4 9 5 -3 11 4 14 16 4 12 5 22 4 23 -1 0 -29 -4 -62 -9z m-40 -46 c3 -6
-1 -7 -9 -4 -18 7 -21 14 -7 14 6 0 13 -4 16 -10z m-130 -280 c-3 -5 -10 -10
-16 -10 -5 0 -9 5 -9 10 0 6 7 10 16 10 8 0 12 -4 9 -10z"/>
<path d="M8787 12607 c-3 -9 -1 -18 6 -21 9 -3 9 -5 0 -5 -8 -1 -13 -17 -13
-45 0 -33 7 -52 31 -82 17 -22 38 -38 45 -38 14 2 18 -8 15 -33 -1 -7 2 -13 7
-13 5 0 23 -27 41 -59 29 -54 31 -66 31 -156 0 -71 -7 -123 -26 -198 -14 -56
-28 -106 -32 -112 -14 -21 -9 -32 10 -27 14 3 26 -3 38 -18 16 -21 16 -24 1
-41 -19 -23 -44 -24 -65 -3 -13 13 -16 13 -16 1 0 -8 -9 -39 -21 -68 -12 -30
-25 -63 -29 -74 -4 -11 -13 -33 -19 -49 -6 -15 -9 -38 -6 -50 2 -11 2 -15 -1
-8 -7 15 -35 -40 -48 -90 -6 -27 -5 -28 36 -28 54 0 120 18 113 30 -3 6 1 7 9
4 22 -8 87 29 150 87 53 48 70 79 45 79 -6 0 -8 -7 -5 -16 3 -9 2 -12 -5 -9
-5 4 -18 1 -27 -6 -14 -11 -15 -11 -4 1 6 8 12 18 12 23 0 4 -6 5 -12 1 -7 -4
-10 -3 -5 1 10 12 50 14 62 4 6 -4 20 7 33 28 13 19 18 32 12 28 -8 -5 -11 -3
-8 6 3 8 11 13 17 12 6 -2 10 0 9 5 -1 4 8 26 20 50 14 27 21 52 17 65 -4 15
-3 18 3 9 7 -11 11 -9 15 8 4 17 2 20 -11 15 -59 -22 -153 -13 -192 20 -8 7
-23 11 -33 10 -14 -3 -16 0 -7 9 7 10 6 21 -5 42 -21 41 -28 106 -17 156 14
64 17 73 22 78 3 3 14 18 24 34 16 25 16 28 2 23 -9 -4 -16 -1 -16 4 0 7 9 9
21 6 13 -4 33 3 51 16 23 17 44 22 93 23 35 0 62 -2 60 -6 -2 -3 5 -12 16 -18
21 -14 22 -19 -2 83 -21 89 -90 211 -112 199 -7 -4 -9 -3 -4 1 4 5 -5 21 -20
37 -27 28 -51 39 -37 16 4 -7 3 -8 -5 -4 -6 4 -9 11 -6 16 10 16 -96 51 -174
57 -65 5 -79 3 -84 -10z m298 -87 c-3 -5 -11 -10 -16 -10 -6 0 -7 5 -4 10 3 6
11 10 16 10 6 0 7 -4 4 -10z m56 -65 c5 4 6 -2 2 -11 -4 -12 -3 -15 5 -10 17
10 15 -9 -3 -24 -8 -7 -15 -11 -16 -9 -4 13 -5 72 -2 61 3 -6 9 -10 14 -7z
m-217 -611 c3 -8 2 -12 -4 -9 -6 3 -10 10 -10 16 0 14 7 11 14 -7z m203 -60
c-3 -3 -12 -4 -19 -1 -8 3 -5 6 6 6 11 1 17 -2 13 -5z m-260 -76 c-3 -8 -6 -5
-6 6 -1 11 2 17 5 13 3 -3 4 -12 1 -19z m283 -22 c0 -2 -7 -9 -15 -16 -13 -11
-14 -10 -9 4 5 14 24 23 24 12z m-90 -150 c0 -2 -8 -10 -17 -17 -16 -13 -17
-12 -4 4 13 16 21 21 21 13z m-70 -41 c7 -8 10 -15 7 -15 -3 0 -14 -3 -24 -6
-15 -5 -16 -4 -3 5 13 10 13 12 0 21 -8 5 -10 10 -4 10 6 0 17 -7 24 -15z
m-137 -82 c-7 -2 -19 -2 -25 0 -7 3 -2 5 12 5 14 0 19 -2 13 -5z"/>
<path d="M8624 12575 c-27 -13 -66 -38 -87 -55 -31 -26 -36 -36 -31 -58 4 -15
13 -34 21 -42 12 -13 15 -13 24 0 9 13 9 13 7 0 -2 -9 17 -33 41 -55 59 -54
87 -101 100 -167 14 -79 -10 -216 -55 -315 -8 -17 -11 -39 -8 -50 4 -12 3 -14
-3 -6 -17 24 -122 -278 -109 -313 3 -8 0 -14 -7 -14 -17 0 42 -53 76 -68 34
-15 40 -15 32 -2 -3 6 -1 10 4 10 6 0 11 5 11 11 0 6 6 25 14 42 21 48 72 187
117 320 28 83 39 128 35 150 -4 21 -3 26 2 13 9 -21 16 -2 42 121 23 102 -4
173 -105 283 -39 42 -56 87 -58 155 -1 36 -4 65 -8 65 -3 0 -27 -11 -55 -25z
m206 -330 c14 -19 14 -19 -2 -6 -10 7 -18 18 -18 24 0 6 1 8 3 6 1 -2 9 -13
17 -24z m-275 -754 c1 -12 -3 -17 -12 -14 -16 6 -17 23 -2 23 5 0 7 6 3 13 -4
6 -3 9 1 4 5 -4 9 -16 10 -26z"/>
<path d="M9935 11034 c-179 -11 -325 -45 -325 -76 0 -10 4 -18 8 -18 5 0 9
-100 9 -222 0 -235 13 -361 54 -508 56 -204 161 -313 284 -297 82 12 150 69
208 177 87 160 161 553 155 810 l-3 105 -49 12 c-52 13 -246 23 -341 17z m245
-104 c0 -6 10 -10 23 -8 22 3 22 3 21 -142 -3 -317 -92 -643 -203 -743 -33
-29 -49 -37 -80 -37 -33 0 -44 6 -76 41 -103 114 -144 315 -145 700 l0 176 98
9 c156 15 362 17 362 4z"/>
<path d="M9838 10908 c5 -5 16 -8 23 -6 8 3 3 7 -10 11 -17 4 -21 3 -13 -5z"/>
<path d="M9903 10913 c15 -2 37 -2 50 0 12 2 0 4 -28 4 -27 0 -38 -2 -22 -4z"/>
<path d="M10188 10903 c7 -3 16 -2 19 1 4 3 -2 6 -13 5 -11 0 -14 -3 -6 -6z"/>
<path d="M9748 10893 c6 -2 18 -2 25 0 6 3 1 5 -13 5 -14 0 -19 -2 -12 -5z"/>
<path d="M10182 10860 c0 -19 2 -27 5 -17 2 9 2 25 0 35 -3 9 -5 1 -5 -18z"/>
<path d="M10211 10784 c0 -11 3 -14 6 -6 3 7 2 16 -1 19 -3 4 -6 -2 -5 -13z"/>
<path d="M10205 10710 c-3 -5 -1 -10 4 -10 6 0 11 5 11 10 0 6 -2 10 -4 10 -3
0 -8 -4 -11 -10z"/>
<path d="M10008 10663 c7 -3 16 -2 19 1 4 3 -2 6 -13 5 -11 0 -14 -3 -6 -6z"/>
<path d="M9741 10544 c0 -11 3 -14 6 -6 3 7 2 16 -1 19 -3 4 -6 -2 -5 -13z"/>
<path d="M9765 10550 c-3 -6 1 -7 9 -4 18 7 21 14 7 14 -6 0 -13 -4 -16 -10z"/>
<path d="M7576 10995 c-20 -20 -20 -36 -1 -81 20 -49 39 -39 43 23 3 59 -15
85 -42 58z"/>
<path d="M7761 10921 c-7 -12 -11 -36 -9 -54 2 -24 8 -32 23 -32 16 0 21 8 23
35 2 19 -3 44 -11 54 -14 19 -15 19 -26 -3z"/>
<path d="M7907 10893 c-4 -3 -7 -25 -7 -48 0 -46 17 -69 44 -59 14 5 16 15 10
53 -4 25 -8 49 -11 54 -5 9 -27 9 -36 0z"/>
<path d="M12166 10843 c-16 -16 -45 -94 -40 -108 18 -45 69 -15 79 46 8 49
-15 86 -39 62z"/>
<path d="M11921 10797 c-9 -23 -14 -60 -12 -84 1 -16 33 -17 49 -1 25 25 10
108 -20 108 -5 0 -12 -10 -17 -23z"/>
<path d="M11716 10757 c-20 -60 -16 -77 18 -77 17 0 28 10 40 39 24 52 18 85
-14 89 -23 3 -28 -3 -44 -51z"/>
<path d="M14612 12029 c-201 -27 -423 -271 -492 -543 -19 -77 -26 -178 -14
-210 9 -24 51 -20 68 7 8 12 22 60 31 107 19 103 44 177 86 253 24 44 34 55
44 47 20 -17 38 -96 31 -140 -9 -56 7 -82 47 -78 26 3 32 9 40 38 20 78 -5
192 -54 246 -19 21 -19 21 34 71 30 28 87 68 128 88 97 49 129 72 129 95 0 24
-15 28 -78 19z"/>
<path d="M6403 10729 c-44 -13 -73 -53 -73 -101 0 -50 13 -74 52 -94 87 -45
189 58 143 145 -9 19 -31 39 -50 47 -19 8 -36 14 -37 13 -2 0 -17 -5 -35 -10z"/>
<path d="M12182 9265 c-133 -62 -307 -216 -430 -380 -61 -83 -203 -356 -227
-437 -18 -63 -17 -109 2 -115 17 -6 55 60 87 152 37 106 62 153 145 276 123
185 262 323 434 432 62 39 77 54 75 71 -4 29 -25 30 -86 1z"/>
<path d="M10141 9234 c-1 -11 6 -29 15 -40 8 -10 12 -13 9 -6 -4 8 -11 26 -15
40 -7 22 -8 23 -9 6z"/>
<path d="M6460 7375 c-7 -9 -8 -15 -2 -15 5 0 12 7 16 15 3 8 4 15 2 15 -2 0
-9 -7 -16 -15z"/>
<path d="M6280 7259 c0 -5 5 -7 10 -4 6 3 10 8 10 11 0 2 -4 4 -10 4 -5 0 -10
-5 -10 -11z"/>
<path d="M6212 6100 c0 -14 2 -19 5 -12 2 6 2 18 0 25 -3 6 -5 1 -5 -13z"/>
<path d="M6211 6024 c0 -11 3 -14 6 -6 3 7 2 16 -1 19 -3 4 -6 -2 -5 -13z"/>
<path d="M6201 5084 c0 -11 3 -14 6 -6 3 7 2 16 -1 19 -3 4 -6 -2 -5 -13z"/>
<path d="M6281 5044 c0 -11 3 -14 6 -6 3 7 2 16 -1 19 -3 4 -6 -2 -5 -13z"/>
<path d="M6530 7080 c0 -5 5 -10 11 -10 5 0 7 5 4 10 -3 6 -8 10 -11 10 -2 0
-4 -4 -4 -10z"/>
<path d="M6600 6980 c0 -5 5 -10 11 -10 5 0 7 5 4 10 -3 6 -8 10 -11 10 -2 0
-4 -4 -4 -10z"/>
<path d="M6075 7119 c-4 -6 -5 -12 -2 -15 2 -3 7 2 10 11 7 17 1 20 -8 4z"/>
<path d="M6040 7090 c-9 -6 -10 -10 -3 -10 6 0 15 5 18 10 8 12 4 12 -15 0z"/>
<path d="M4521 6914 c0 -11 3 -14 6 -6 3 7 2 16 -1 19 -3 4 -6 -2 -5 -13z"/>
<path d="M4716 6812 c-3 -4 4 -9 15 -9 23 -2 25 3 4 10 -8 4 -16 3 -19 -1z"/>
<path d="M5660 6366 c0 -2 7 -7 16 -10 8 -3 12 -2 9 4 -6 10 -25 14 -25 6z"/>
<path d="M5708 6343 c7 -3 16 -2 19 1 4 3 -2 6 -13 5 -11 0 -14 -3 -6 -6z"/>
<path d="M5748 6333 c7 -3 16 -2 19 1 4 3 -2 6 -13 5 -11 0 -14 -3 -6 -6z"/>
<path d="M4700 6590 c0 -5 5 -10 11 -10 5 0 7 5 4 10 -3 6 -8 10 -11 10 -2 0
-4 -4 -4 -10z"/>
<path d="M5187 6319 c7 -7 15 -10 18 -7 3 3 -2 9 -12 12 -14 6 -15 5 -6 -5z"/>
<path d="M5467 6179 c7 -7 15 -10 18 -7 3 3 -2 9 -12 12 -14 6 -15 5 -6 -5z"/>
<path d="M5570 6136 c0 -2 9 -6 20 -9 11 -3 18 -1 14 4 -5 9 -34 13 -34 5z"/>
<path d="M6501 6011 c-11 -7 -9 -12 10 -22 21 -11 22 -10 12 3 -7 8 -10 18 -6
21 9 10 1 8 -16 -2z"/>
<path d="M6541 6011 c-8 -5 -9 -11 -3 -15 5 -3 12 1 16 9 6 17 6 18 -13 6z"/>
<path d="M6455 5940 c-3 -5 -1 -10 4 -10 6 0 11 5 11 10 0 6 -2 10 -4 10 -3 0
-8 -4 -11 -10z"/>
</g>
</svg>
