<?xml version="1.0" standalone="no"?>
<!DOCTYPE svg PUBLIC "-//W3C//DTD SVG 20010904//EN"
 "http://www.w3.org/TR/2001/REC-SVG-20010904/DTD/svg10.dtd">
<svg version="1.0" xmlns="http://www.w3.org/2000/svg"
 width="472.000000pt" height="360.000000pt" viewBox="0 0 472.000000 360.000000"
 preserveAspectRatio="xMidYMid meet">

<g transform="translate(0.000000,360.000000) scale(0.100000,-0.100000)"
fill="#000000" stroke="none">
<path d="M1790 3586 c-30 -7 -77 -20 -105 -29 -27 -8 -88 -25 -135 -37 -133
-33 -248 -95 -378 -203 -62 -52 -133 -118 -159 -148 -79 -92 -230 -329 -266
-419 -19 -47 -42 -102 -51 -123 -26 -59 -38 -181 -26 -270 11 -88 36 -146 88
-199 20 -21 34 -39 31 -41 -2 -2 -32 -20 -66 -41 -64 -38 -146 -134 -190 -221
-29 -57 -56 -187 -57 -275 -1 -99 22 -164 77 -217 63 -61 101 -77 182 -78 53
0 77 -5 100 -20 19 -13 46 -20 77 -20 26 0 52 -5 59 -12 22 -22 -15 -26 -134
-15 -61 6 -123 10 -137 10 -30 -1 -239 30 -250 37 -4 2 -15 -1 -25 -9 -12 -9
-19 -34 -25 -89 l-7 -76 -65 -63 c-127 -124 -149 -231 -73 -356 11 -18 30 -35
42 -37 13 -3 34 -7 47 -10 18 -4 26 -15 35 -50 6 -25 9 -56 5 -69 -9 -37 20
-46 143 -47 159 -1 161 -4 47 -73 -160 -96 -512 -351 -501 -363 10 -10 48 9
90 45 24 20 83 64 131 97 48 33 117 81 153 108 37 26 91 62 122 79 31 17 78
47 105 65 l49 35 189 -12 c104 -6 195 -13 202 -16 16 -6 27 8 35 48 l6 29 140
2 140 1 0 -40 0 -39 -145 -11 c-206 -17 -217 -20 -224 -58 -15 -70 -29 -55
189 -202 55 -37 111 -78 125 -90 39 -35 76 -46 91 -27 12 13 47 14 284 9 148
-3 349 -12 445 -21 96 -8 307 -18 469 -22 251 -5 293 -4 289 8 -4 11 -61 15
-319 20 -173 4 -379 14 -459 22 -84 9 -264 17 -427 19 l-283 3 -6 32 c-3 17 2
119 12 225 9 106 20 326 23 488 l6 295 130 6 c72 4 286 10 476 14 326 8 421 5
767 -21 l72 -6 0 -71 c0 -40 -5 -137 -11 -217 -7 -101 -7 -210 1 -360 18 -355
23 -413 39 -418 12 -4 13 6 7 54 -4 32 -4 120 0 196 l7 138 36 1 c33 1 34 2
11 10 -16 6 10 7 76 5 56 -2 111 -9 123 -16 21 -11 22 -17 18 -93 -8 -132 -20
-180 -55 -223 -18 -21 -32 -43 -32 -49 0 -7 27 -9 73 -7 39 2 149 -6 242 -17
94 -12 193 -24 220 -27 28 -2 67 -7 89 -11 25 -3 36 -2 32 5 -3 5 -45 15 -93
21 -49 7 -131 19 -184 27 -53 8 -151 18 -217 22 l-121 7 18 24 c18 23 18 23
112 10 52 -6 142 -20 202 -29 59 -9 107 -13 107 -8 0 4 -1 8 -3 8 -29 0 -363
62 -370 69 -14 14 11 51 36 51 12 -1 82 -11 155 -24 72 -13 132 -19 132 -15 0
9 -19 13 -179 38 -68 11 -125 22 -128 25 -3 2 -1 12 5 21 8 15 27 17 128 18
l119 0 -107 6 c-108 7 -144 19 -121 42 17 17 322 31 501 23 108 -4 152 -3 152
5 0 12 -93 15 -441 11 l-217 -2 -4 79 c-3 43 -3 81 -1 85 5 10 381 9 608 -1
105 -5 191 -8 193 -6 12 12 -238 27 -497 31 -210 3 -319 8 -328 15 -20 17 -16
38 11 45 24 6 698 -12 771 -21 l40 -5 -35 10 c-37 10 -292 26 -597 37 l-183 6
0 35 c0 22 -9 47 -26 69 -21 28 -23 34 -9 39 23 9 134 -1 145 -12 7 -7 -10 -9
-50 -6 -33 2 -60 0 -60 -5 0 -5 87 -17 193 -27 105 -9 237 -21 292 -27 95 -9
479 -30 500 -28 28 4 -101 17 -170 18 -83 1 -314 27 -324 36 -2 3 131 4 298 3
l303 -3 21 30 c35 50 143 155 159 155 10 0 18 -18 25 -62 6 -35 25 -101 43
-148 21 -58 29 -92 24 -110 -4 -14 -8 -70 -9 -125 -3 -125 -22 -196 -69 -264
-20 -29 -36 -61 -36 -71 0 -9 -2 -39 -6 -66 l-5 -49 30 75 c21 51 42 85 66
105 41 35 52 75 63 242 5 57 13 108 20 115 17 17 15 51 -7 100 -29 64 -52 137
-61 193 -4 28 -11 65 -15 83 -5 21 -4 32 4 32 6 0 11 3 11 8 0 4 -84 8 -188 8
-287 3 -747 45 -802 74 -12 6 -42 -8 -114 -53 -202 -128 -271 -167 -296 -167
-24 0 -27 5 -55 123 -24 100 -30 143 -29 237 0 185 14 239 116 452 91 191 117
275 118 373 0 28 -12 140 -26 250 -23 173 -33 219 -75 343 -61 181 -89 232
-167 308 -51 50 -66 71 -77 113 -20 76 -60 137 -140 216 -82 80 -187 146 -266
169 -30 8 -119 25 -199 36 -112 16 -153 26 -180 44 -144 95 -309 127 -470 92z
m321 -55 c79 -30 132 -80 171 -159 33 -67 33 -67 31 -207 -1 -77 -7 -153 -13
-169 -13 -34 -5 -46 16 -24 38 38 53 294 23 401 -6 22 -9 41 -6 43 2 2 53 -3
114 -11 168 -22 294 -74 360 -149 22 -25 65 -66 96 -92 38 -30 65 -64 83 -100
15 -30 25 -57 22 -59 -2 -3 -32 1 -65 7 -96 18 -365 -4 -527 -42 -72 -16 -133
-30 -138 -30 -4 0 -8 26 -8 58 0 122 -56 209 -171 267 -94 48 -145 58 -227 45
-146 -23 -236 -86 -392 -272 -119 -143 -187 -260 -266 -462 -37 -93 -42 -100
-81 -119 -24 -12 -43 -25 -43 -29 0 -11 28 -10 51 2 23 13 23 17 -2 -77 -16
-59 -20 -89 -14 -128 5 -27 9 -70 11 -95 1 -25 7 -72 13 -105 6 -33 11 -142
11 -243 0 -136 4 -191 14 -217 37 -88 259 -266 369 -296 50 -13 207 -16 280
-5 51 8 57 7 51 -8 -3 -9 -14 -16 -24 -16 -10 0 -42 -18 -71 -40 l-53 -40
-106 2 c-58 1 -115 -1 -127 -5 -23 -8 -27 -19 -38 -131 l-7 -58 -29 33 c-38
45 -111 153 -140 208 -17 33 -23 65 -27 142 -3 54 -8 99 -12 99 -10 0 -20 -63
-20 -127 l0 -51 -44 -17 c-46 -18 -69 -13 -95 19 -11 13 -1 28 58 97 39 45 71
86 71 91 0 5 -38 -21 -85 -58 -50 -39 -105 -72 -132 -80 -47 -14 -123 -19
-123 -8 0 3 18 26 39 51 59 66 129 209 157 320 13 53 22 98 20 100 -2 2 -16
-36 -31 -84 -52 -168 -152 -330 -227 -369 -64 -33 -149 -6 -212 67 -36 42 -69
128 -80 206 -8 55 17 172 54 250 26 56 37 68 104 112 42 27 97 57 122 67 l47
18 23 -27 c13 -15 37 -72 55 -126 27 -86 29 -103 20 -139 -19 -67 -109 -123
-175 -106 -35 9 -47 26 -49 74 -2 35 3 46 23 61 24 18 28 19 69 4 52 -18 59
-15 30 11 -32 29 -105 26 -130 -5 -24 -30 -27 -122 -3 -145 37 -37 132 -33
194 8 48 31 54 32 47 6 -3 -11 -1 -20 4 -20 5 0 9 16 9 36 0 20 6 62 14 93 8
31 17 106 21 166 6 99 4 120 -20 210 -14 55 -42 136 -62 180 -69 155 -113 274
-119 319 -17 119 127 400 277 542 57 54 194 163 239 191 35 22 405 147 483
163 73 16 235 5 298 -19z m-58 -272 c83 -35 140 -85 170 -149 17 -37 21 -64
20 -144 0 -79 2 -96 11 -84 50 69 591 139 717 94 47 -17 160 -125 192 -184 69
-126 128 -416 130 -632 1 -142 -24 -327 -55 -404 -61 -154 -139 -406 -145
-468 -3 -37 -9 -68 -12 -68 -12 0 -109 135 -144 200 -66 120 -87 202 -98 388
-14 230 -55 406 -109 471 -29 35 -34 21 -6 -20 42 -62 74 -215 86 -419 14
-240 24 -295 66 -399 45 -110 72 -155 155 -266 44 -59 73 -109 83 -145 9 -30
33 -90 53 -133 30 -64 35 -82 25 -97 -9 -15 -5 -27 20 -65 27 -41 30 -49 17
-59 -22 -16 -17 -83 9 -133 22 -43 21 -73 -4 -73 -8 0 -14 4 -14 9 0 5 -23 14
-51 21 -54 13 -163 80 -179 110 -11 20 -13 132 -4 167 6 22 9 20 61 -27 60
-55 107 -84 126 -77 7 2 -6 13 -28 24 -22 12 -65 48 -97 80 l-56 59 5 110 c3
60 9 125 14 144 18 71 16 73 -53 68 -59 -5 -208 3 -342 18 l-58 6 -34 72 c-38
82 -51 126 -36 126 6 0 -3 39 -20 88 -31 86 -31 90 -31 282 0 110 8 276 18
380 26 270 13 385 -59 543 -32 71 -79 137 -97 137 -5 0 6 -20 25 -44 66 -87
106 -229 106 -380 l0 -79 -42 39 c-64 59 -105 80 -207 110 -77 22 -107 26
-174 22 -83 -5 -163 -30 -152 -47 3 -6 21 -4 47 5 22 8 76 14 122 14 143 0
258 -43 352 -132 52 -49 53 -51 48 -97 -9 -66 -40 -188 -83 -326 -51 -161 -75
-307 -67 -406 l6 -77 -55 -21 c-80 -30 -321 -71 -462 -78 -116 -6 -123 -5
-123 13 -1 54 -92 101 -167 88 -51 -9 -39 -21 27 -27 94 -8 149 -58 72 -65
-48 -5 -128 40 -229 127 -130 115 -153 164 -137 298 6 51 7 52 28 38 32 -23
65 -18 97 14 24 25 29 38 29 79 0 57 -28 102 -64 102 -12 0 -35 -14 -52 -31
l-29 -30 -7 38 c-4 21 -10 81 -14 133 -6 83 -4 98 10 113 39 39 120 10 146
-53 12 -30 21 -36 33 -24 10 10 -30 80 -59 103 -19 15 -41 21 -77 21 l-50 0 6
81 c4 44 12 92 19 107 16 33 61 44 146 36 42 -4 62 -2 62 5 0 21 -53 32 -122
25 -54 -5 -68 -4 -68 7 0 29 66 126 124 185 72 72 320 239 368 248 39 7 133
-8 157 -26 9 -6 33 -30 54 -52 35 -39 36 -40 25 -11 -50 119 -169 152 -328 91
-41 -16 -86 -36 -100 -45 -35 -21 -140 -100 -172 -130 -40 -36 -35 -17 25 84
47 78 63 97 128 142 106 75 165 96 269 97 76 1 93 -3 155 -32 99 -47 142 -79
172 -129 17 -29 29 -41 36 -34 13 13 -23 70 -68 110 -40 35 -160 94 -226 112
-65 17 -183 -4 -268 -48 -35 -18 -66 -31 -68 -29 -2 2 29 38 70 79 150 152
311 200 460 136z m-1254 -691 c7 -24 33 -86 58 -138 88 -188 133 -335 133
-441 0 -70 -8 -69 -36 6 -10 27 -33 69 -52 93 -96 126 -163 270 -165 357 -1
35 33 165 43 165 4 0 12 -19 19 -42z m-24 -518 c-3 -5 -12 -10 -18 -10 -7 0
-6 4 3 10 19 12 23 12 15 0z m1611 -318 c2 -147 2 -147 49 -292 26 -80 60
-169 76 -197 16 -29 29 -55 29 -58 0 -3 -10 -5 -22 -5 -62 0 -143 95 -178 209
-24 77 -26 175 -5 297 14 80 42 194 48 194 1 0 3 -66 3 -148z m-30 -490 c24
-28 44 -53 44 -56 0 -3 -28 -6 -62 -6 -60 0 -64 2 -90 34 -18 22 -45 40 -77
51 -79 26 -92 57 -30 70 18 4 55 18 83 31 l50 23 19 -49 c10 -27 38 -71 63
-98z m-308 8 c-15 -47 -25 -61 -44 -66 -31 -8 -35 -4 -44 48 -10 52 -7 58 28
58 15 0 34 5 42 10 34 22 39 10 18 -50z m67 -7 c36 -54 33 -63 -21 -63 -44 0
-46 1 -40 25 9 36 25 75 30 75 3 0 17 -17 31 -37z m-182 -20 c4 -20 5 -39 3
-41 -2 -2 -20 -2 -40 0 l-36 3 26 38 c15 20 30 37 34 37 4 0 10 -17 13 -37z
m292 -23 c11 -17 -26 -24 -42 -7 -21 20 -8 40 17 27 10 -6 22 -15 25 -20z
m-1650 -1 c39 -6 102 -12 140 -13 39 -1 136 -9 217 -16 145 -13 146 -14 152
-39 4 -14 9 -155 13 -313 l6 -287 -24 -9 c-37 -14 -277 -21 -464 -14 l-170 7
-11 55 -10 55 50 10 c70 14 96 30 96 61 0 13 -7 27 -15 30 -23 9 -18 22 16 39
38 20 35 45 -9 66 l-34 15 41 16 c52 21 52 41 1 62 -22 9 -40 18 -40 21 0 3
18 12 41 21 31 13 39 21 37 37 -5 33 -64 67 -114 67 l-44 0 0 70 c0 70 0 70
28 70 15 0 59 -5 97 -11z m634 -26 c14 -16 53 -74 84 -130 32 -56 62 -105 67
-108 6 -3 10 -10 10 -16 0 -12 -146 -12 -192 1 l-36 10 -4 123 c-2 67 0 128 5
135 15 19 36 14 66 -15z m617 12 c-21 -16 -32 -13 -21 4 3 6 14 11 23 11 15
-1 15 -2 -2 -15z m-1282 -156 c44 -20 38 -35 -22 -54 -70 -21 -132 -52 -132
-65 0 -6 31 -7 78 -3 48 3 86 2 97 -5 17 -9 15 -12 -17 -25 -19 -8 -50 -18
-69 -22 -19 -3 -47 -11 -62 -17 -41 -16 -17 -25 64 -26 78 -1 96 -7 79 -27 -6
-7 -42 -16 -80 -19 -72 -7 -91 -21 -42 -32 81 -18 102 -26 102 -38 0 -20 -59
-41 -115 -41 -123 0 -179 88 -140 221 34 117 166 195 259 153z m3258 -55 c137
-24 183 -28 451 -32 163 -2 297 -8 297 -13 0 -5 -13 -15 -28 -23 -15 -8 -60
-48 -99 -90 l-71 -76 -233 5 c-381 9 -477 14 -618 35 -138 20 -172 32 -130 45
13 4 58 40 99 80 109 104 127 116 155 105 13 -5 93 -21 177 -36z m-2346 -268
l-7 -56 -150 0 -149 0 0 109 0 109 103 -5 c86 -4 109 -2 147 15 l45 19 9 -67
c5 -38 5 -93 2 -124z m-6 -116 c0 -44 -27 -51 -176 -43 l-125 6 3 26 3 26 120
5 c66 4 132 7 148 8 24 2 27 -1 27 -28z m1605 -60 l40 -25 -49 -3 c-27 -2 -53
1 -59 7 -14 14 0 64 16 54 6 -5 30 -20 52 -33z m-1620 -202 c4 -24 5 -61 3
-83 l-3 -40 -37 40 c-21 22 -38 43 -38 47 0 3 14 9 30 13 17 4 30 11 30 16 0
12 -117 12 -124 0 -3 -5 28 -40 69 -79 48 -44 75 -77 75 -91 0 -29 -11 -26
-46 10 -16 17 -75 65 -131 107 -56 42 -100 78 -97 81 8 8 105 18 191 20 l72 1
6 -42z m-217 -62 c92 -71 225 -196 209 -196 -5 0 -32 19 -62 43 -29 23 -99 78
-154 122 -86 68 -119 105 -95 105 3 0 49 -33 102 -74z"/>
<path d="M2014 2209 c-45 -13 -121 -83 -134 -125 -13 -40 -4 -60 14 -29 6 10
33 43 60 72 54 58 96 74 146 53 41 -17 126 -110 152 -167 20 -44 22 -46 26
-21 2 15 -4 41 -13 59 -26 50 -106 130 -150 150 -44 20 -56 21 -101 8z"/>
<path d="M1960 1887 c-67 -23 -91 -120 -44 -176 22 -26 33 -31 69 -31 105 0
146 125 64 194 -34 29 -39 30 -89 13z"/>
<path d="M1417 1859 c-24 -14 -23 -80 2 -110 22 -28 38 -20 22 9 -14 27 -14
75 0 89 15 15 -3 24 -24 12z"/>
<path d="M3382 3403 c-42 -21 -74 -63 -100 -134 -18 -48 -19 -60 -8 -74 15
-20 23 -12 135 121 75 91 63 132 -27 87z m48 -22 c-19 -37 -130 -171 -141
-171 -26 0 31 119 75 158 42 37 84 45 66 13z"/>
<path d="M3769 3386 c-69 -24 -141 -78 -125 -93 3 -4 19 6 35 21 60 58 208 88
230 47 8 -14 7 -22 -3 -30 -17 -14 -160 -51 -200 -51 -19 0 -27 -3 -20 -10 12
-12 124 4 196 27 61 21 73 48 39 82 -25 25 -95 28 -152 7z"/>
<path d="M490 3270 c0 -30 35 -93 59 -107 17 -11 22 -10 31 6 17 33 11 71 -15
96 -31 31 -75 34 -75 5z m70 -31 c6 -10 10 -28 10 -41 -1 -23 -1 -23 -25 5
-28 32 -34 70 -10 61 9 -4 20 -15 25 -25z"/>
<path d="M304 3187 c-7 -20 12 -64 47 -109 31 -38 86 -75 97 -64 3 3 3 7 1 9
-2 1 -23 16 -47 32 -45 30 -72 69 -72 105 0 32 30 24 79 -22 43 -42 44 -43 25
-10 -32 56 -116 94 -130 59z"/>
<path d="M3514 3019 c-53 -20 -111 -69 -82 -69 9 0 21 6 27 14 32 38 219 73
237 45 11 -18 -6 -26 -115 -58 -142 -41 -148 -54 -9 -21 158 38 183 54 140 93
-26 24 -132 22 -198 -4z"/>
<path d="M202 2701 c-17 -11 31 -52 102 -88 28 -14 65 -36 83 -49 37 -28 43
-29 43 -9 0 8 -33 31 -78 54 -73 37 -118 71 -94 71 6 0 43 -12 82 -26 40 -14
74 -23 77 -21 9 10 -159 77 -191 77 -6 0 -17 -4 -24 -9z"/>
<path d="M3696 2352 c31 -30 65 -76 85 -118 31 -62 34 -77 34 -154 0 -72 -4
-94 -27 -143 -33 -70 -16 -72 21 -2 23 44 26 62 26 146 0 92 -2 99 -39 172
-44 87 -97 147 -129 147 -18 0 -13 -8 29 -48z"/>
<path d="M3974 2290 c35 -38 36 -43 35 -113 0 -39 -3 -102 -8 -139 -10 -93 2
-86 17 10 24 154 11 246 -37 272 -40 21 -42 9 -7 -30z"/>
<path d="M337 1965 c-56 -54 -95 -145 -106 -245 -10 -91 0 -196 20 -214 9 -8
10 -6 4 9 -14 38 -18 175 -5 237 16 84 53 155 109 206 28 25 39 42 30 42 -9 0
-32 -16 -52 -35z"/>
<path d="M86 1891 c-26 -28 -86 -209 -86 -257 0 -57 32 -141 70 -184 l31 -35
-26 42 c-33 51 -55 123 -55 177 0 60 34 161 75 222 22 35 30 54 22 54 -8 0
-22 -8 -31 -19z"/>
<path d="M4456 735 c-46 -35 -63 -42 -77 -35 -34 19 -43 10 -16 -18 22 -23 25
-34 21 -63 -5 -29 -1 -41 22 -68 27 -32 27 -34 12 -74 l-15 -42 -394 0 c-240
0 -370 -3 -334 -8 33 -4 212 -9 399 -10 l338 -2 20 -53 c18 -49 19 -55 4 -71
-9 -10 -16 -32 -16 -51 l0 -32 -52 5 c-29 3 -91 10 -138 17 -62 8 -154 9 -335
2 l-250 -9 261 -1 c233 -2 442 -17 506 -38 22 -7 23 -23 3 -60 -8 -16 -15 -35
-15 -41 0 -25 15 -12 33 26 10 22 35 50 57 65 22 14 40 29 40 32 0 3 -13 -4
-29 -15 -16 -12 -34 -21 -40 -21 -21 0 -24 53 -6 106 13 39 15 57 7 66 -6 8
-15 26 -21 41 -9 22 -6 31 16 58 23 27 24 30 5 18 -28 -18 -38 -5 -19 24 14
21 13 26 -1 50 -16 27 -16 27 38 84 l55 57 -58 -53 c-68 -62 -83 -59 -72 17 6
47 10 53 66 92 32 23 59 43 59 46 0 10 -19 0 -74 -41z"/>
<path d="M4048 353 c18 -2 45 -2 60 0 15 2 0 4 -33 4 -33 0 -45 -2 -27 -4z"/>
<path d="M3890 140 c-143 -5 -159 -6 -85 -10 196 -8 553 -5 537 5 -20 12 -210
14 -452 5z"/>
</g>
</svg>
