<?xml version="1.0" standalone="no"?>
<!DOCTYPE svg PUBLIC "-//W3C//DTD SVG 20010904//EN"
 "http://www.w3.org/TR/2001/REC-SVG-20010904/DTD/svg10.dtd">
<svg version="1.0" xmlns="http://www.w3.org/2000/svg"
 width="1920.000000pt" height="1449.000000pt" viewBox="0 0 1920.000000 1449.000000"
 preserveAspectRatio="xMidYMid meet">

<g transform="translate(0.000000,1449.000000) scale(0.100000,-0.100000)"
fill="#000000" stroke="none">
<path d="M9207 14480 c-39 -12 -57 -29 -57 -54 0 -27 23 -49 117 -113 99 -67
376 -305 508 -438 127 -127 185 -202 315 -407 94 -149 134 -193 151 -167 17
27 8 54 -72 238 -123 282 -227 430 -451 642 -138 131 -192 173 -294 232 -27
15 -64 39 -83 52 -35 26 -80 31 -134 15z"/>
<path d="M8117 14393 c-4 -3 -7 -19 -7 -34 0 -36 26 -50 156 -83 180 -46 488
-187 609 -280 83 -63 541 -505 645 -622 143 -162 165 -184 184 -184 26 0 19
29 -43 173 -63 147 -98 207 -161 277 -23 25 -68 79 -100 121 -76 98 -112 129
-254 213 -64 38 -149 94 -188 123 -82 63 -123 85 -216 118 -37 13 -130 48
-207 79 -204 80 -393 125 -418 99z"/>
<path d="M10329 14366 c-57 -33 -48 -61 65 -202 78 -97 88 -117 158 -287 42
-100 81 -199 88 -220 6 -21 23 -45 36 -54 23 -14 27 -15 41 -1 12 13 15 55 18
234 4 236 0 270 -46 369 -15 33 -33 79 -40 103 -7 23 -18 47 -24 52 -7 6 -71
13 -141 16 -104 4 -134 2 -155 -10z"/>
<path d="M7642 14185 c-39 -17 -38 -22 10 -120 50 -100 52 -101 224 -130 121
-21 174 -37 354 -107 85 -33 207 -76 270 -94 63 -19 138 -45 165 -59 28 -14
126 -90 218 -169 158 -136 200 -166 214 -152 13 13 -108 186 -192 274 -92 97
-149 138 -480 347 -222 140 -261 156 -483 200 -140 28 -250 32 -300 10z"/>
<path d="M11245 14168 c-161 -19 -198 -45 -270 -188 -62 -123 -67 -152 -31
-176 46 -29 67 -16 114 71 52 98 115 162 207 212 48 26 71 45 73 59 4 28 -10
32 -93 22z"/>
<path d="M3891 14044 c-30 -38 -44 -99 -36 -155 4 -27 11 -273 15 -546 l8
-498 42 -170 c41 -171 82 -445 135 -895 40 -344 73 -473 252 -975 113 -317
160 -471 203 -664 33 -147 78 -262 173 -441 131 -249 235 -420 328 -540 53
-69 138 -186 189 -260 51 -74 124 -175 163 -225 39 -49 114 -146 166 -215 140
-182 223 -260 413 -384 90 -59 123 -68 132 -38 18 57 36 324 36 543 0 277 9
346 65 529 20 63 77 257 126 430 246 858 297 1001 480 1325 128 228 165 282
267 387 69 73 83 92 80 115 -9 76 -154 6 -258 -124 -30 -37 -100 -117 -155
-178 -190 -207 -273 -306 -303 -363 -16 -31 -55 -142 -87 -247 -31 -104 -99
-327 -152 -495 -108 -349 -135 -457 -158 -625 -8 -66 -25 -181 -37 -256 -20
-128 -20 -138 -5 -169 14 -27 16 -51 11 -129 -4 -73 0 -145 20 -300 15 -111
29 -245 33 -297 5 -81 4 -94 -9 -94 -9 0 -74 57 -146 128 -101 100 -170 181
-317 377 -103 138 -230 313 -280 390 -51 77 -120 170 -153 207 -72 80 -106
128 -160 228 -64 120 -274 653 -307 782 -9 34 -45 135 -80 223 -68 173 -143
391 -176 514 -14 53 -22 119 -25 216 -3 101 -12 171 -30 250 -65 282 -94 444
-104 584 -13 182 -12 179 -65 451 -44 223 -71 427 -120 900 -14 135 -37 313
-50 395 -13 83 -29 182 -35 220 -17 110 -48 141 -89 89z"/>
<path d="M11685 13846 c-134 -26 -395 -96 -451 -121 -138 -61 -344 -250 -344
-316 0 -20 20 -29 62 -29 26 0 45 15 112 83 112 113 173 144 418 207 228 58
383 86 528 95 l105 6 -39 -25 c-22 -14 -84 -49 -139 -78 -115 -62 -211 -135
-215 -165 -3 -24 31 -53 62 -53 10 0 64 29 120 65 173 110 285 153 442 170 82
9 199 -14 389 -75 203 -65 356 -80 273 -26 -13 8 -79 39 -148 69 -69 31 -156
71 -195 90 -94 47 -176 67 -278 67 -60 0 -104 6 -149 21 -54 18 -93 21 -273
25 -150 2 -230 -1 -280 -10z"/>
<path d="M7097 13530 c-135 -24 -343 -122 -549 -258 -76 -49 -232 -143 -347
-208 -116 -64 -213 -124 -216 -132 -8 -22 21 -61 51 -68 20 -5 64 12 192 74
92 45 201 94 242 110 133 52 383 130 465 146 44 8 132 25 195 38 145 29 371
31 495 5 44 -9 169 -23 277 -32 208 -16 314 -38 397 -79 52 -27 86 -32 110
-17 12 8 12 13 -2 35 -24 36 -72 72 -178 133 -108 61 -81 53 -552 168 -373 90
-473 105 -580 85z"/>
<path d="M12420 13501 c-181 -9 -289 -29 -430 -80 -146 -54 -222 -118 -183
-156 30 -30 59 -28 150 13 205 91 315 112 603 112 228 0 307 -10 480 -60 58
-17 155 -39 215 -50 148 -25 205 -42 368 -112 288 -122 435 -206 771 -438 62
-43 96 -51 96 -22 0 36 -247 256 -416 370 -117 78 -583 270 -758 312 -242 57
-541 111 -636 114 -52 2 -169 1 -260 -3z"/>
<path d="M12870 13007 c-27 -9 -36 -18 -38 -39 -5 -42 36 -57 190 -68 183 -13
182 -13 373 -92 280 -116 262 -103 435 -307 58 -68 134 -150 171 -181 36 -31
128 -119 205 -196 87 -89 191 -180 279 -246 208 -156 294 -249 390 -417 53
-94 69 -129 190 -408 46 -106 93 -209 104 -230 37 -72 38 -12 2 162 -74 362
-208 664 -397 895 -118 146 -739 738 -849 811 -169 113 -584 278 -764 304
-154 22 -252 27 -291 12z"/>
<path d="M6210 12751 c-74 -24 -146 -80 -204 -160 -18 -25 -68 -111 -111 -191
-176 -329 -221 -410 -288 -513 -38 -59 -67 -110 -64 -114 21 -20 135 120 407
503 78 109 156 215 174 236 19 21 69 54 117 78 46 23 96 54 112 68 32 31 35
67 6 82 -27 15 -117 22 -149 11z"/>
<path d="M9659 12695 c-97 -34 -109 -42 -109 -74 0 -76 161 -120 266 -72 23
10 65 24 94 30 30 6 60 16 67 23 14 11 17 56 5 75 -30 48 -210 58 -323 18z"/>
<path d="M7114 12685 c-33 -7 -92 -29 -130 -48 -38 -19 -146 -68 -239 -108
-252 -108 -330 -153 -490 -284 -55 -44 -122 -97 -150 -115 -78 -53 -132 -114
-220 -250 -107 -163 -294 -472 -381 -630 -72 -131 -215 -432 -208 -439 9 -9
39 29 91 118 31 53 109 175 173 271 64 96 149 231 190 300 186 312 444 590
695 747 76 48 169 91 416 197 205 87 276 110 436 142 13 2 30 18 39 35 14 28
14 33 1 46 -31 31 -127 39 -223 18z"/>
<path d="M10265 12585 c-30 -29 -32 -65 -9 -161 22 -98 64 -429 71 -571 5
-103 9 -125 27 -148 17 -22 26 -25 49 -20 39 10 87 106 87 174 0 66 -126 699
-145 728 -20 30 -50 29 -80 -2z"/>
<path d="M8410 12549 c-41 -17 -113 -28 -284 -45 -316 -31 -521 -108 -700
-260 -110 -93 -443 -448 -825 -878 -102 -116 -221 -248 -264 -295 -118 -129
-183 -236 -290 -474 -108 -240 -110 -249 -167 -544 -22 -117 -62 -298 -89
-403 -26 -104 -45 -190 -41 -190 16 0 31 36 124 300 78 222 118 321 213 514
117 238 172 328 385 634 92 131 118 159 331 361 232 219 388 376 630 634 85
90 167 166 240 221 282 211 413 270 627 286 116 8 201 30 314 81 l50 22 -28
23 c-24 21 -37 24 -114 23 -48 0 -98 -5 -112 -10z"/>
<path d="M2388 12515 c-31 -17 -42 -45 -32 -77 3 -13 42 -96 85 -185 44 -89
79 -169 79 -178 0 -8 -10 -20 -22 -25 -31 -12 -159 -36 -294 -55 -183 -25
-585 -171 -695 -251 -86 -64 -226 -201 -255 -249 -62 -107 -72 -224 -30 -386
52 -205 129 -351 251 -474 177 -180 360 -247 675 -249 144 -1 161 1 245 27 50
16 113 38 140 50 133 56 247 172 328 335 39 79 42 91 42 166 0 95 -20 141 -86
200 -68 62 -128 83 -254 91 -130 7 -175 14 -175 26 0 24 199 135 275 153 58
14 76 49 58 115 -5 21 -10 22 -44 17 -21 -3 -98 -34 -171 -69 -73 -35 -195
-92 -272 -128 -145 -67 -176 -92 -157 -127 24 -45 115 -65 406 -90 120 -10
166 -27 231 -84 72 -64 84 -146 33 -237 -82 -145 -208 -260 -332 -300 -236
-77 -534 -43 -733 84 -162 104 -253 240 -323 487 -39 134 -46 192 -31 261 16
79 59 135 175 228 122 98 161 122 261 158 44 16 118 45 165 64 123 51 183 64
462 96 338 39 335 36 228 282 -119 271 -160 340 -198 339 -4 -1 -20 -7 -35
-15z"/>
<path d="M10809 12471 c-20 -16 -22 -23 -14 -46 14 -40 49 -61 146 -89 181
-52 321 -137 444 -268 106 -113 134 -158 205 -337 112 -281 157 -351 230 -351
25 0 25 0 -9 68 -51 101 -178 464 -201 572 -24 117 -62 205 -100 232 -44 31
-352 144 -427 156 -40 7 -108 28 -152 47 -43 19 -84 35 -89 35 -5 0 -20 -9
-33 -19z"/>
<path d="M13612 12238 c-30 -33 -62 -107 -62 -147 0 -29 13 -47 103 -140 57
-58 117 -127 135 -152 41 -61 123 -134 175 -156 75 -32 119 -57 312 -177 307
-191 355 -225 383 -276 13 -25 39 -61 57 -81 89 -99 179 -271 314 -595 127
-308 139 -377 176 -979 3 -55 13 -152 22 -215 30 -218 2 -463 -113 -1003 -49
-233 -56 -251 -114 -337 -64 -95 -143 -351 -156 -510 -6 -70 -5 -80 9 -80 44
0 77 54 166 270 49 118 114 263 144 321 33 64 74 164 102 255 26 82 64 187 85
234 30 65 42 108 51 180 17 144 6 337 -31 500 -27 122 -32 177 -55 570 -25
436 -34 500 -70 540 -8 9 -42 91 -75 183 -119 333 -181 466 -320 694 -63 101
-93 138 -219 263 -381 377 -783 749 -880 812 -82 54 -108 58 -139 26z"/>
<path d="M6564 12086 c-49 -24 -114 -65 -144 -91 -30 -26 -89 -74 -131 -106
-88 -67 -124 -106 -250 -272 -51 -67 -123 -158 -159 -202 -98 -117 -126 -166
-170 -300 -114 -353 -158 -544 -225 -979 -37 -241 -41 -286 -26 -286 19 0 68
184 136 510 78 373 121 519 211 707 67 142 128 236 257 398 241 302 394 441
578 530 104 50 136 87 102 120 -26 27 -84 18 -179 -29z"/>
<path d="M8500 11983 c-25 -9 -76 -61 -242 -246 -160 -179 -263 -310 -299
-380 -21 -40 -99 -257 -174 -484 -25 -73 -61 -208 -80 -300 -20 -93 -40 -175
-44 -183 -12 -22 -105 -24 -176 -4 -110 31 -332 10 -421 -40 -37 -21 -104
-105 -104 -131 0 -17 79 -10 200 17 119 27 179 18 345 -48 90 -36 116 -51 121
-68 3 -12 -2 -74 -10 -137 -48 -354 -60 -560 -37 -674 42 -212 96 -422 112
-440 19 -19 19 -19 19 30 0 28 -9 142 -20 255 -11 113 -20 243 -20 289 0 116
76 631 96 651 11 11 108 -12 131 -31 16 -14 16 -25 -7 -253 -19 -186 4 -478
80 -1041 30 -221 56 -339 71 -329 14 8 10 179 -11 484 -17 237 -19 343 -14
635 3 193 9 379 14 415 54 400 80 521 167 785 71 212 234 532 395 772 71 105
133 205 137 221 11 35 -9 72 -38 72 -79 0 -393 -490 -537 -837 -64 -154 -132
-368 -169 -536 -52 -232 -53 -237 -73 -237 -27 0 -90 47 -107 80 -8 16 -15 52
-15 81 0 109 88 463 169 680 67 180 91 231 156 329 66 99 98 136 328 389 137
150 154 180 125 209 -12 12 -42 15 -68 5z"/>
<path d="M9677 11758 c-49 -37 -65 -220 -66 -770 -1 -290 4 -330 75 -636 30
-128 66 -297 80 -375 14 -78 32 -173 40 -212 24 -113 121 -402 155 -464 17
-31 51 -114 75 -186 81 -235 223 -497 397 -732 56 -75 89 -104 103 -90 3 3 -9
34 -27 68 -18 35 -45 111 -61 169 -37 139 -148 580 -188 750 -41 177 -78 304
-156 536 -70 209 -132 440 -164 609 -13 70 -44 173 -85 283 -74 197 -86 256
-111 562 -14 170 -15 223 -6 310 17 147 16 167 -7 180 -25 13 -34 13 -54 -2z"/>
<path d="M9325 11623 c-37 -9 -55 -36 -84 -127 -64 -199 -84 -320 -111 -656
-10 -120 -9 -150 9 -273 12 -75 30 -237 41 -360 46 -506 106 -718 397 -1402
135 -315 152 -345 290 -506 79 -91 131 -130 117 -87 -3 13 -47 88 -97 167
-120 192 -175 313 -264 581 -41 124 -92 264 -113 311 -54 121 -149 484 -190
724 -54 321 -82 806 -62 1040 7 81 27 186 61 322 35 141 48 212 44 237 -3 20
-8 35 -12 35 -3 -1 -15 -4 -26 -6z"/>
<path d="M16212 10888 c-30 -30 5 -101 113 -223 171 -194 173 -198 216 -362
46 -179 44 -241 -21 -556 -39 -190 -50 -261 -42 -269 8 -8 20 7 43 58 105 233
171 564 149 754 -15 131 -33 173 -113 258 -105 114 -158 180 -207 260 -31 49
-54 74 -74 81 -37 14 -49 14 -64 -1z"/>
<path d="M16925 10876 c-37 -27 -23 -64 94 -241 62 -93 140 -226 174 -294 l62
-123 -1 -107 c0 -58 -13 -262 -29 -454 -15 -191 -25 -350 -22 -354 11 -10 34
16 57 65 29 60 61 189 104 417 19 99 46 209 59 245 24 61 25 76 23 240 -1 96
-6 182 -12 191 -13 24 -372 367 -418 400 -43 32 -63 35 -91 15z"/>
<path d="M12556 10758 c-18 -26 -21 -61 -6 -87 5 -10 80 -81 167 -157 251
-221 279 -249 302 -307 11 -29 48 -133 82 -232 68 -201 136 -351 225 -500 33
-55 68 -118 77 -140 42 -98 167 -571 186 -705 5 -32 4 -85 -3 -130 -6 -41 -11
-156 -11 -255 -1 -99 -2 -206 -3 -238 l-2 -57 -37 19 c-21 10 -65 26 -98 36
-125 36 -206 93 -275 195 -48 71 -141 157 -222 206 -35 21 -103 67 -153 104
-49 36 -146 104 -215 150 -73 50 -158 118 -205 165 -44 45 -101 95 -126 113
-76 52 -164 155 -208 245 -22 45 -65 150 -97 232 -58 154 -75 185 -103 185 -9
0 -38 18 -64 40 -27 22 -76 56 -110 76 -34 21 -92 59 -128 85 -107 78 -206 93
-381 57 -47 -10 -59 -9 -74 3 -31 25 -197 391 -260 574 -19 55 -42 107 -51
117 -19 21 -46 23 -61 5 -25 -29 -23 -64 8 -153 131 -368 210 -603 210 -627 0
-15 -24 -69 -55 -122 -30 -53 -55 -99 -55 -104 0 -11 50 -21 76 -16 138 27
144 28 160 14 9 -7 36 -54 61 -103 52 -104 75 -138 266 -406 157 -220 254
-335 419 -496 204 -200 340 -316 488 -413 191 -127 484 -294 507 -289 53 10 1
75 -142 175 -44 31 -120 99 -170 151 -49 52 -151 158 -225 235 -153 161 -206
222 -276 322 -27 39 -117 151 -199 250 -187 222 -475 589 -475 604 0 21 70 11
167 -25 54 -20 138 -47 187 -60 61 -16 97 -31 117 -50 15 -14 67 -101 115
-193 155 -297 229 -391 474 -600 74 -63 212 -190 307 -282 197 -192 277 -259
383 -321 41 -25 76 -52 78 -61 2 -10 -25 -35 -81 -72 -46 -30 -111 -80 -144
-110 -77 -69 -171 -192 -179 -233 -6 -27 -3 -33 20 -43 40 -19 104 16 154 83
75 102 252 256 339 294 89 40 136 41 228 4 86 -34 118 -57 134 -98 6 -15 22
-87 36 -160 39 -206 32 -308 -30 -432 -142 -281 -379 -396 -665 -320 -95 25
-283 39 -294 22 -11 -17 92 -110 158 -142 73 -36 165 -58 306 -74 l105 -12 -2
-30 c-1 -16 -38 -100 -82 -186 -45 -87 -81 -166 -81 -177 0 -18 43 -61 61 -61
4 0 41 28 81 63 40 35 93 77 118 94 66 45 73 55 156 224 87 176 121 257 159
383 24 80 33 94 84 145 97 96 130 188 131 363 l0 108 -35 39 c-19 21 -38 52
-41 69 -4 17 1 84 11 149 11 78 15 153 11 218 -2 55 -9 253 -15 440 -12 429
-27 552 -80 670 -33 72 -174 314 -281 480 -95 148 -119 194 -160 315 -17 52
-49 140 -71 196 l-39 100 -238 201 c-130 111 -255 220 -277 242 -21 23 -42 41
-46 41 -5 0 -15 -10 -23 -22z"/>
<path d="M14090 10625 c-24 -28 -2 -87 129 -355 l131 -265 66 -260 65 -260 6
-213 c4 -142 2 -268 -7 -375 -12 -137 -11 -179 1 -286 27 -242 14 -375 -82
-815 -47 -217 -57 -249 -169 -541 -131 -340 -172 -456 -165 -463 12 -12 39 30
104 163 49 98 87 161 120 197 39 42 62 84 109 194 32 76 74 183 91 237 18 53
60 150 93 215 101 196 137 312 140 457 3 151 -22 700 -37 785 -7 47 -17 168
-20 270 -4 102 -13 213 -21 248 -33 148 -162 439 -457 1032 -18 37 -27 46 -53
48 -19 2 -36 -3 -44 -13z"/>
<path d="M2526 10265 c-194 -40 -309 -171 -309 -352 0 -60 5 -82 31 -135 84
-170 242 -246 492 -235 99 5 124 9 180 35 91 41 125 82 139 169 13 79 3 150
-31 223 -34 73 -178 208 -274 257 -96 50 -136 57 -228 38z m163 -146 c26 -13
84 -61 137 -113 73 -74 93 -100 103 -137 36 -130 -68 -213 -265 -214 -85 0
-96 2 -160 35 -185 95 -222 315 -68 411 88 54 164 60 253 18z"/>
<path d="M17 10032 c-27 -29 -21 -68 17 -109 56 -64 215 -312 273 -428 56
-110 242 -441 356 -630 86 -143 260 -393 408 -586 177 -230 355 -483 384 -543
34 -72 255 -344 363 -449 53 -51 140 -119 207 -162 81 -53 210 -158 437 -357
450 -394 481 -420 698 -565 117 -78 646 -383 727 -419 69 -31 396 -217 503
-286 115 -75 233 -133 432 -212 158 -63 208 -77 208 -58 0 17 -36 41 -198 132
-90 50 -295 175 -455 277 -160 102 -320 199 -356 216 -36 16 -172 89 -301 162
-129 73 -271 151 -315 173 -82 42 -104 60 -361 292 -82 75 -180 161 -219 192
-38 31 -185 172 -326 315 -271 273 -444 472 -739 853 -264 341 -311 395 -584
665 -298 296 -348 362 -559 740 -31 55 -78 127 -106 160 -27 33 -63 83 -80
112 -100 170 -289 471 -314 500 -33 38 -74 44 -100 15z"/>
<path d="M6587 9942 c-56 -61 -125 -557 -136 -977 -7 -225 -11 -271 -31 -345
-21 -78 -22 -98 -17 -275 3 -111 11 -213 19 -245 22 -85 65 -156 120 -197 27
-19 53 -44 59 -54 5 -11 14 -70 19 -132 27 -307 89 -501 231 -717 170 -260
274 -361 462 -450 64 -30 127 -87 127 -114 0 -17 122 -133 203 -193 34 -25 88
-58 119 -74 40 -20 60 -37 64 -53 10 -41 46 -64 134 -86 138 -35 248 -70 375
-120 66 -26 138 -53 160 -60 22 -7 90 -34 152 -61 184 -79 321 -111 581 -134
159 -14 222 -25 252 -44 12 -8 11 -14 -10 -36 -14 -15 -47 -43 -75 -63 -121
-86 -189 -172 -245 -311 -17 -44 -38 -85 -46 -92 -19 -16 -223 5 -350 36 -116
29 -182 31 -347 9 -154 -20 -305 -14 -482 21 -158 31 -234 40 -271 31 -16 -4
-56 -35 -89 -69 -33 -34 -81 -76 -107 -94 -63 -43 -81 -74 -89 -152 -4 -36
-14 -122 -22 -191 -11 -92 -17 -279 -22 -710 -3 -322 -10 -657 -16 -745 -11
-183 -28 -343 -38 -350 -4 -2 -29 11 -56 28 l-49 32 -219 3 c-201 3 -226 1
-291 -18 -85 -26 -162 -64 -270 -134 -123 -79 -136 -99 -196 -286 -51 -162
-72 -200 -111 -200 -35 0 -73 -29 -110 -83 -57 -84 -108 -103 -188 -71 -33 13
-74 15 -263 10 -853 -22 -828 -23 -849 31 -18 47 -138 103 -221 103 -65 0
-109 -20 -174 -79 -61 -56 -92 -66 -170 -56 l-54 6 6 58 c8 72 -7 121 -53 172
-51 56 -94 65 -205 44 -119 -24 -245 -16 -349 20 -42 14 -85 32 -95 39 -20 15
-15 31 31 95 49 67 19 86 -33 22 -41 -51 -70 -61 -94 -31 -30 37 -23 75 17
100 32 20 44 47 28 63 -3 4 -30 -7 -60 -24 -30 -17 -56 -30 -57 -28 -8 9 -66
171 -84 234 -11 39 -30 120 -42 180 -12 61 -30 128 -39 150 -10 22 -67 105
-127 184 -60 79 -119 158 -131 175 -24 38 -46 106 -32 106 11 0 391 -111 402
-117 4 -3 -8 -22 -28 -44 -53 -59 -44 -109 20 -109 22 0 76 29 186 99 302 192
366 218 561 231 169 12 300 36 327 61 29 27 27 32 -20 58 l-40 23 17 26 c71
112 168 222 194 222 4 0 10 -61 14 -135 8 -165 24 -218 87 -290 46 -53 120
-173 123 -199 0 -7 -67 -58 -151 -115 -208 -140 -324 -266 -246 -266 15 0 38
20 70 60 63 77 124 123 250 188 83 42 105 49 115 39 15 -15 31 -364 19 -410
-5 -20 -22 -35 -66 -57 -61 -31 -74 -48 -39 -53 62 -9 64 -11 64 -52 0 -34 -4
-42 -30 -55 -16 -8 -36 -15 -45 -15 -19 0 -19 -21 -1 -65 l15 -34 -77 -51
c-41 -28 -124 -78 -183 -111 -59 -34 -115 -69 -124 -79 -21 -23 -38 -150 -25
-184 11 -29 56 -66 81 -66 28 0 46 38 52 107 3 34 8 66 11 72 3 5 54 36 112
68 147 81 222 138 268 206 27 39 53 64 83 78 43 21 45 21 171 5 146 -18 196
-20 187 -6 -9 15 -69 29 -214 51 -74 10 -136 21 -137 22 -2 2 5 36 15 77 28
111 30 112 274 126 59 3 107 10 107 15 0 25 -47 31 -194 24 -122 -6 -154 -5
-163 6 -6 8 -13 82 -16 169 -9 239 -44 347 -179 551 -88 134 -90 141 -93 377
-3 225 -7 242 -68 242 -35 0 -95 -59 -313 -311 -78 -92 -151 -170 -161 -173
-9 -4 -64 -11 -122 -17 -124 -12 -265 -55 -349 -107 -96 -60 -183 -102 -211
-102 -14 0 -147 33 -296 74 -415 113 -409 112 -439 98 -31 -14 -40 -33 -32
-67 9 -37 131 -210 203 -290 124 -136 209 -292 239 -438 16 -79 67 -253 114
-391 40 -118 39 -130 -8 -160 -38 -24 -142 -139 -142 -157 0 -23 34 -3 109 66
64 59 88 75 112 75 37 0 76 -39 85 -86 l6 -34 162 -51 c88 -28 165 -54 169
-58 4 -4 -15 -32 -42 -61 l-50 -53 -128 6 c-70 3 -153 11 -183 17 -45 9 -79 8
-194 -8 -126 -18 -142 -19 -180 -5 -67 24 -193 28 -257 8 -151 -47 -172 -65
-131 -115 22 -28 79 -30 138 -5 49 20 117 19 192 -5 76 -24 134 -25 192 -5 50
18 141 19 259 4 73 -9 96 -8 151 6 126 32 120 34 162 -34 75 -123 167 -131
368 -31 61 30 73 32 200 36 147 5 138 8 236 -61 55 -39 59 -40 138 -40 73 0
89 4 147 33 51 26 85 35 159 43 92 10 383 14 398 6 4 -3 45 0 92 4 47 5 168
13 270 19 102 5 206 12 233 16 35 5 47 3 47 -6 0 -20 -172 -192 -345 -343 -88
-77 -164 -147 -169 -155 -13 -22 -12 -192 2 -232 6 -19 18 -79 26 -132 8 -54
20 -107 26 -118 20 -36 55 -42 144 -24 108 22 220 14 356 -25 131 -38 325 -70
495 -81 72 -5 146 -13 166 -18 19 -5 194 -10 388 -11 387 -1 506 -10 596 -41
69 -25 89 -26 535 -45 277 -12 614 -39 629 -51 1 -1 -13 -29 -33 -61 -42 -68
-45 -106 -14 -166 17 -34 22 -66 27 -169 3 -69 9 -130 14 -134 11 -11 587 -80
867 -104 333 -28 866 -104 946 -136 33 -13 70 -24 82 -24 38 0 70 42 112 148
22 57 52 126 66 153 29 58 87 125 115 134 11 4 26 20 34 36 26 50 66 63 169
55 49 -4 134 -16 188 -26 55 -11 127 -20 162 -20 69 0 331 -29 536 -59 263
-38 344 -43 483 -30 153 14 384 7 477 -15 187 -43 207 -46 383 -46 l177 0 10
26 c6 14 10 41 10 61 0 33 14 50 178 216 97 100 197 197 222 216 25 19 105 87
178 150 73 64 170 145 215 182 45 36 91 82 102 102 20 37 20 37 86 37 36 0 99
-9 140 -20 63 -17 107 -20 294 -20 213 0 605 -15 673 -26 18 -3 32 -10 30 -16
-2 -6 -49 -37 -103 -68 -228 -132 -285 -225 -285 -470 0 -185 9 -219 79 -289
101 -101 171 -136 456 -227 379 -122 512 -144 875 -144 141 0 216 5 302 20
300 52 530 183 605 346 22 49 24 64 23 211 -1 303 -21 355 -181 473 -106 79
-105 80 126 46 55 -8 199 -17 319 -21 121 -3 222 -8 226 -10 3 -2 139 -9 301
-15 358 -13 506 -25 624 -52 119 -26 199 -27 250 -2 59 28 55 56 -10 68 -27 4
-131 24 -230 44 -178 35 -184 35 -525 43 -190 3 -410 12 -490 18 -80 6 -242
18 -360 27 -118 9 -237 20 -264 25 -26 5 -109 18 -183 29 -74 11 -140 23 -146
27 -6 4 -72 10 -147 14 -155 8 -204 20 -227 55 -15 24 -14 48 10 372 15 191
32 424 37 517 14 240 27 375 50 528 33 219 40 385 43 1017 2 540 0 618 -16
725 -86 572 -134 752 -277 1051 -201 421 -475 700 -780 796 -103 32 -318 32
-425 0 l-69 -20 -38 29 c-106 85 -235 120 -371 101 -107 -14 -362 -94 -458
-143 -84 -43 -118 -47 -214 -24 -119 28 -323 14 -558 -40 -62 -14 -145 -32
-185 -40 -40 -8 -91 -24 -114 -36 -54 -27 -142 -111 -162 -154 -31 -64 -14
-231 35 -354 60 -153 138 -260 327 -449 158 -159 261 -280 374 -438 70 -99
102 -133 208 -222 69 -57 245 -184 391 -282 280 -188 306 -200 418 -200 35 0
57 7 82 24 19 14 62 39 96 56 90 45 109 75 138 218 50 252 64 404 45 485 -6
23 -21 151 -35 284 -18 179 -22 250 -14 270 5 16 41 57 79 93 79 75 86 97 97
283 l6 109 68 -4 c79 -6 137 -35 310 -155 252 -174 318 -267 433 -603 93 -269
128 -414 171 -700 77 -515 98 -870 76 -1270 -21 -377 -51 -813 -61 -870 -5
-30 -23 -226 -40 -435 -34 -422 -42 -478 -74 -510 -42 -42 -284 -71 -386 -46
-25 7 -157 16 -295 21 -137 5 -294 12 -347 15 -54 4 -150 6 -215 5 -192 -4
-231 -1 -383 26 -241 42 -231 35 -210 146 25 132 24 180 -1 212 -31 39 -72 54
-186 66 -178 20 -599 118 -637 149 -9 8 -15 55 -19 168 -9 239 -33 308 -150
433 -139 148 -202 176 -433 191 -183 12 -247 1 -371 -66 -46 -25 -85 -45 -88
-45 -20 0 13 243 85 610 27 140 56 298 64 350 20 122 116 979 116 1026 0 108
-109 164 -350 179 -58 4 -132 13 -165 21 -33 8 -166 19 -295 24 -130 6 -249
14 -265 18 -33 9 -38 20 -54 126 -18 123 -154 370 -258 467 -26 25 -81 64
-121 88 -39 23 -72 45 -72 50 0 9 105 41 215 66 149 33 498 163 615 228 90 50
403 267 419 290 9 12 59 68 113 125 108 114 122 136 132 203 6 38 16 54 61 99
39 38 55 62 55 80 0 42 -11 42 -42 0 -16 -21 -44 -48 -63 -60 -19 -12 -59 -54
-89 -94 -67 -89 -119 -136 -251 -228 -111 -77 -320 -209 -405 -254 -143 -77
-405 -176 -585 -220 -188 -45 -746 -106 -1065 -116 l-105 -3 -5 90 c-7 105
-29 156 -87 204 -95 79 -193 69 -463 -44 -142 -59 -155 -63 -259 -75 -42 -6
-113 -16 -158 -24 -73 -14 -87 -14 -140 1 -98 26 -100 26 -134 2 l-32 -23
-194 48 c-107 27 -245 68 -306 91 -62 23 -164 59 -227 78 -269 84 -494 241
-577 401 -33 65 -99 130 -208 203 -50 33 -102 74 -116 89 -63 71 -290 396
-327 471 -37 71 -72 189 -72 239 0 46 2 49 88 133 52 51 97 104 109 131 l21
45 -20 3 c-22 4 -25 2 -134 -91 -67 -56 -68 -57 -79 -35 -8 17 -8 116 1 368 6
190 12 346 13 348 3 6 66 0 151 -14 139 -24 477 -164 546 -225 11 -10 49 -33
84 -50 35 -17 90 -56 125 -89 100 -96 191 -123 230 -67 20 29 19 68 -5 156
-23 83 -60 160 -102 213 -68 87 -308 232 -506 307 -173 66 -251 81 -412 81
-120 0 -130 1 -130 19 0 102 -24 441 -35 495 -8 38 -34 112 -59 165 -56 120
-96 234 -96 269 0 15 12 70 25 121 28 105 31 151 13 169 -18 18 -63 14 -81 -6z
m49 -633 c10 -50 14 -128 13 -274 l-2 -204 -43 -7 c-57 -8 -74 -1 -74 33 0 38
59 513 66 537 6 18 7 18 16 3 5 -10 16 -49 24 -88z m-58 -625 c65 -25 66 -30
58 -339 -3 -151 -9 -288 -12 -305 -7 -35 -23 -38 -49 -10 -26 29 -41 98 -61
277 -16 139 -16 172 -5 263 14 112 17 130 25 130 3 0 23 -7 44 -16z m8388
-2327 c131 -67 198 -224 199 -462 0 -172 -9 -188 -183 -338 -38 -32 -38 -39
-12 -165 33 -165 71 -472 73 -587 2 -162 -31 -320 -63 -300 -4 3 -21 38 -36
78 -15 39 -49 116 -75 169 -27 53 -56 129 -65 170 -25 114 -72 200 -191 348
-131 164 -196 229 -384 388 -80 67 -167 147 -193 178 -78 90 -244 231 -343
292 -51 31 -93 59 -93 63 0 11 92 29 207 40 127 13 226 0 330 -41 47 -19 84
-28 96 -24 12 4 48 27 82 53 79 61 174 103 315 141 148 39 256 38 336 -3z
m593 -62 c78 -19 201 -79 285 -139 157 -113 357 -369 471 -601 140 -286 179
-412 239 -771 50 -303 60 -468 61 -1019 0 -499 -4 -577 -51 -985 -13 -118 -38
-453 -54 -745 -42 -735 -59 -994 -69 -1039 -15 -61 -38 -69 -108 -35 -77 37
-84 73 -58 309 9 74 26 267 40 430 14 162 40 426 59 585 19 160 39 371 45 470
6 99 18 284 26 410 22 299 16 637 -14 855 -12 85 -28 220 -36 300 -31 304 -72
533 -130 729 -161 536 -219 625 -568 855 -147 97 -214 130 -317 156 -47 12
-93 28 -102 37 -16 14 -58 123 -58 150 0 16 50 42 103 53 68 13 167 11 236 -5z
m-2065 -207 c43 -10 102 -31 130 -45 68 -34 156 -102 156 -120 0 -9 -15 -36
-34 -62 -88 -121 -130 -255 -124 -397 3 -85 6 -95 60 -204 44 -89 75 -135 135
-202 43 -48 97 -101 119 -118 67 -48 161 -78 281 -90 224 -21 280 -9 374 77
69 65 63 68 110 -52 18 -44 51 -123 75 -176 54 -123 81 -249 75 -362 0 -17
-13 -41 -31 -59 -28 -27 -36 -30 -79 -26 -65 6 -254 110 -369 202 -47 37 -144
113 -216 168 -178 137 -190 149 -338 348 -103 138 -166 210 -298 340 -178 176
-234 250 -326 430 -44 86 -49 102 -52 176 l-4 81 59 47 c64 51 130 76 183 69
19 -3 71 -14 114 -25z m-3536 -124 c57 -11 81 -121 38 -171 -21 -24 -32 -28
-95 -31 -104 -6 -111 -1 -67 53 31 37 37 51 34 82 -3 34 -6 38 -28 34 -14 -2
-43 -14 -66 -27 -27 -16 -56 -24 -85 -24 -42 1 -43 1 -24 16 84 65 189 89 293
68z m-378 -114 c0 -10 -52 -40 -70 -40 -16 0 -12 21 8 36 20 16 62 18 62 4z
m4383 -98 c34 -32 121 -110 192 -174 72 -63 168 -155 214 -204 87 -92 221
-263 221 -282 0 -15 -89 -78 -154 -108 -75 -34 -145 -40 -226 -20 -193 49
-325 169 -433 394 -54 112 -56 169 -9 288 33 82 92 164 119 164 8 0 42 -26 76
-58z m-2994 -175 c26 -19 88 -55 139 -81 129 -67 211 -156 289 -312 53 -106
57 -120 61 -199 l5 -85 -70 0 c-39 0 -128 11 -199 24 -71 14 -158 28 -194 31
-36 4 -108 15 -160 25 -64 13 -142 19 -240 19 -80 0 -157 2 -170 6 -14 3 -142
10 -285 15 -185 7 -290 15 -365 30 -58 11 -177 27 -265 35 -268 25 -256 23
-249 53 14 58 55 120 120 184 100 97 219 194 297 240 77 46 90 43 101 -24 4
-23 26 -78 49 -121 35 -67 51 -86 101 -120 159 -108 373 -119 573 -31 116 51
185 118 219 212 9 26 21 60 27 76 13 35 56 55 121 56 40 0 57 -6 95 -33z
m-547 7 c21 -4 38 -11 38 -16 0 -6 -17 -28 -39 -49 -37 -37 -42 -39 -100 -39
-34 0 -72 5 -84 11 -40 22 -97 71 -97 84 0 8 15 16 38 18 42 5 187 0 244 -9z
m-395 -66 c39 -66 112 -134 159 -147 18 -5 78 -7 134 -4 68 4 100 2 100 -5 0
-13 -15 -18 -103 -33 -86 -14 -146 -8 -185 20 -17 11 -40 21 -52 21 -58 0 -97
43 -118 131 -7 26 -15 54 -18 64 -6 14 -2 16 22 13 22 -2 35 -15 61 -60z m567
-12 c-6 -16 -24 -23 -24 -8 0 10 22 33 27 28 2 -2 1 -11 -3 -20z m-59 -76 c-3
-5 -13 -10 -21 -10 -8 0 -12 5 -9 10 3 6 13 10 21 10 8 0 12 -4 9 -10z m-2540
-386 c201 -40 273 -42 373 -10 101 32 178 33 305 6 118 -25 292 -47 482 -60
83 -5 175 -16 205 -25 110 -30 151 -34 480 -45 782 -26 963 -39 1140 -85 30
-8 114 -17 185 -19 494 -20 899 -46 1010 -67 61 -10 155 -23 210 -28 101 -9
155 -23 155 -40 0 -20 -67 -61 -125 -76 -82 -21 -243 -19 -400 5 -71 12 -210
25 -307 30 -98 5 -182 11 -187 14 -5 3 -172 12 -372 21 -388 16 -476 25 -1110
111 -460 63 -559 73 -679 74 -47 0 -146 9 -220 20 -109 16 -188 20 -410 20
-225 0 -299 4 -405 20 -95 15 -614 59 -697 60 -18 0 -6 29 29 70 l37 43 85 -7
c47 -3 145 -17 216 -32z m-64 -159 c107 -9 250 -23 319 -32 94 -13 209 -17
465 -18 222 -1 359 -5 394 -13 30 -7 143 -19 250 -27 108 -9 340 -36 516 -60
528 -74 698 -89 1405 -125 448 -23 531 -30 720 -65 74 -14 175 -29 223 -34 48
-6 92 -13 97 -16 17 -11 10 -227 -25 -775 -36 -556 -62 -809 -120 -1165 -48
-296 -54 -341 -65 -507 -5 -80 -14 -177 -19 -215 -6 -37 -24 -190 -40 -339
-17 -150 -36 -283 -42 -297 -6 -14 -23 -28 -37 -32 -14 -3 -138 -3 -276 1
-219 5 -275 4 -436 -15 -198 -22 -281 -19 -400 14 -30 8 -116 20 -190 25 -188
15 -381 51 -482 89 -53 20 -53 23 -30 264 12 122 39 359 61 527 28 219 46 407
61 665 11 198 27 403 35 455 18 119 19 206 3 217 -7 4 -101 8 -208 9 -153 1
-218 6 -300 22 -120 24 -367 46 -394 36 -27 -10 -34 -41 -29 -124 6 -83 -35
-393 -86 -655 -43 -220 -55 -341 -48 -495 5 -135 -24 -784 -36 -796 -3 -4 -55
1 -114 10 -134 20 -419 50 -663 71 -102 8 -203 20 -225 25 -22 6 -78 15 -125
20 -115 13 -617 112 -708 140 -40 12 -79 29 -87 37 -23 23 -19 125 20 489 126
1176 127 1191 130 1574 3 388 20 913 34 1028 5 40 14 79 21 87 17 20 175 20
431 0z m4629 -469 c0 -293 -68 -846 -134 -1082 -22 -80 -43 -218 -76 -499 -17
-143 -46 -386 -65 -540 -19 -154 -41 -370 -50 -480 -20 -249 -63 -563 -81
-592 -11 -17 -24 -23 -50 -23 l-35 0 6 47 c3 27 10 118 16 203 6 85 24 260 40
389 16 129 29 276 29 325 0 52 11 152 25 231 82 460 85 478 115 895 43 584 91
1146 101 1176 12 38 42 67 95 94 66 33 64 37 64 -144z m-2780 -1077 c93 -22
237 -38 343 -39 51 0 69 -4 73 -15 7 -17 -9 -316 -31 -575 -39 -466 -58 -667
-76 -800 -10 -79 -28 -250 -39 -380 -26 -296 -67 -715 -76 -758 l-7 -33 -291
3 c-283 3 -292 4 -345 27 l-53 24 6 51 c30 266 52 620 66 1111 13 452 19 512
74 786 25 123 54 296 66 384 29 220 29 219 70 226 68 12 136 9 220 -12z
m-2690 -500 c30 -6 81 -25 113 -40 52 -27 57 -32 57 -62 -1 -55 -48 -359 -58
-369 -6 -6 -22 26 -42 82 -19 52 -40 95 -51 100 -51 28 -114 -8 -129 -75 -6
-22 -13 -95 -16 -162 -4 -70 -11 -123 -17 -123 -16 0 -34 28 -93 143 -60 119
-85 142 -126 115 -19 -13 -27 -37 -48 -138 -14 -68 -30 -125 -37 -127 -13 -5
-53 95 -53 131 0 38 -21 86 -42 97 -27 14 -77 -7 -82 -35 -3 -11 -7 -54 -10
-94 -3 -43 -12 -84 -21 -98 -23 -36 -75 -64 -117 -64 -46 0 -98 41 -98 76 0
37 99 363 123 407 36 65 307 233 399 247 68 11 277 5 348 -11z m6023 -196 c86
-41 163 -117 206 -205 59 -119 76 -331 37 -458 -31 -100 -51 -122 -90 -96 -32
20 -75 107 -87 173 -15 83 -18 91 -39 98 -24 8 -56 -9 -71 -36 -6 -12 -17 -62
-24 -111 -9 -55 -21 -98 -31 -109 -16 -18 -18 -18 -37 -2 -40 37 -68 101 -75
170 -6 58 -10 69 -31 79 -45 23 -63 4 -112 -112 -59 -142 -75 -166 -108 -162
-22 3 -29 12 -45 58 -10 31 -20 91 -21 138 -3 88 -14 112 -50 112 -31 0 -51
-26 -88 -116 -25 -61 -38 -80 -55 -82 -35 -5 -37 34 -13 242 27 227 36 252
129 337 113 103 166 119 387 116 146 -2 152 -3 218 -34z m-9208 -327 c38 -16
52 -37 61 -95 6 -41 6 -41 -24 -41 -49 0 -81 17 -139 75 l-54 54 43 9 c61 14
75 14 113 -2z m3272 -173 c12 -18 12 -35 4 -98 -14 -100 -23 -115 -66 -115
-45 0 -50 12 -19 41 63 58 68 110 19 169 -49 59 -47 78 6 48 23 -13 48 -33 56
-45z m-2658 43 c22 -26 9 -69 -28 -93 -37 -25 -109 -31 -129 -11 -13 13 -16
57 -4 75 24 38 137 58 161 29z m1570 -13 c26 -65 23 -69 -108 -190 -68 -62
-163 -145 -212 -184 -48 -38 -91 -79 -94 -90 -11 -35 4 -87 34 -117 22 -21 56
-36 133 -57 98 -27 112 -29 288 -27 102 1 242 -4 312 -11 84 -9 155 -10 215
-5 48 5 142 6 208 3 113 -6 131 -4 300 30 l180 38 170 -23 c94 -12 211 -30
260 -40 130 -27 328 -55 585 -85 227 -26 780 -119 812 -136 10 -5 21 -21 24
-35 8 -30 -1 -158 -12 -175 -13 -21 -294 6 -579 56 -104 18 -307 48 -450 65
-143 17 -316 40 -385 51 -78 12 -220 24 -375 29 -137 6 -284 14 -325 19 -41 5
-198 19 -348 31 -301 24 -426 20 -566 -19 -50 -14 -77 -17 -100 -10 -57 17
-200 38 -326 49 -161 13 -309 29 -339 36 -22 5 -23 8 -18 55 10 79 33 114 151
222 154 141 274 262 325 327 80 102 192 220 211 220 10 0 22 -12 29 -27z
m-2365 -4 c51 -40 22 -89 -54 -89 -48 0 -90 26 -90 55 0 51 94 73 144 34z
m3089 -39 c24 -40 66 -68 116 -76 33 -5 41 -11 41 -28 0 -24 -44 -62 -107 -95
-35 -17 -60 -21 -147 -21 -57 0 -111 3 -120 6 -43 17 20 94 77 94 42 0 59 18
88 93 12 31 25 57 28 57 4 0 15 -13 24 -30z m-302 -107 c-25 -51 -88 -107
-136 -123 -43 -14 -241 -9 -270 7 -14 8 -9 17 42 62 43 38 63 50 78 45 11 -3
45 -8 75 -11 51 -5 62 -1 140 39 93 49 105 46 71 -19z m5989 -175 c0 -7 -14
-25 -31 -39 -26 -21 -31 -31 -25 -52 5 -20 19 -30 66 -49 33 -12 60 -26 60
-31 0 -18 -40 -84 -67 -108 -60 -56 -78 -62 -134 -49 l-51 12 6 42 c3 22 9 76
12 119 8 90 25 119 88 148 48 22 76 24 76 7z m1320 -58 c107 -22 216 -42 243
-46 l47 -5 -21 -31 c-12 -16 -73 -76 -137 -132 -200 -177 -421 -389 -481 -461
-106 -129 -220 -283 -234 -318 -27 -64 -38 -67 -269 -67 -146 0 -228 4 -278
15 -40 8 -76 12 -81 9 -14 -8 -284 14 -382 32 -86 15 -677 55 -1102 74 -215
10 -261 15 -332 36 -59 17 -124 27 -240 34 -167 11 -332 32 -396 50 l-39 11 7
77 c4 42 9 79 11 81 2 2 48 -1 101 -8 54 -6 185 -18 292 -26 106 -8 270 -26
363 -40 195 -29 294 -31 393 -9 53 12 123 15 290 15 246 -2 325 -7 706 -51
186 -21 338 -32 515 -37 l252 -6 43 25 c24 14 81 60 126 101 97 90 195 157
345 238 160 86 242 135 278 166 29 24 31 30 26 66 -9 52 -39 110 -72 136 -28
22 -42 26 -202 62 -97 21 -159 50 -147 68 6 11 133 -9 375 -59z m-636 21 c18
-20 18 -21 -4 -55 -49 -80 -90 -90 -252 -59 -69 13 -88 20 -88 34 0 37 25 41
93 17 83 -29 108 -21 161 49 41 56 51 57 90 14z m-7128 -12 c3 -5 36 -9 74 -9
38 0 71 -4 74 -9 10 -15 -40 -66 -107 -110 -48 -31 -73 -41 -103 -41 -45 0
-130 26 -141 43 -7 12 109 123 142 136 21 9 52 3 61 -10z m594 11 c32 0 64 -6
75 -14 18 -13 17 -15 -14 -54 -39 -50 -116 -108 -168 -126 -34 -12 -54 -11
-157 5 -65 10 -121 21 -124 24 -11 11 32 78 70 108 57 46 132 69 202 62 32 -3
84 -5 116 -5z m494 -11 c5 -5 10 -41 10 -81 l1 -73 -40 -14 c-47 -16 -308 -27
-343 -14 -22 9 -22 10 32 83 78 105 111 121 236 113 52 -3 99 -9 104 -14z
m6384 -123 c86 -19 171 -40 187 -46 l30 -12 -24 -19 c-30 -25 -44 -24 -251 11
-96 16 -178 30 -182 30 -17 0 -7 40 14 54 31 22 48 21 226 -18z m-672 -67 c59
-16 110 -32 113 -34 9 -9 -53 -85 -88 -108 -63 -42 -109 -50 -193 -32 -92 19
-108 33 -80 72 19 27 127 133 135 133 2 0 53 -14 113 -31z m1354 -73 c0 -120
-21 -169 -108 -251 -41 -38 -131 -127 -201 -197 -115 -115 -444 -409 -498
-445 -35 -23 -53 -10 -53 39 1 84 56 171 252 393 68 76 155 163 193 192 39 30
108 92 155 138 100 98 241 215 252 209 5 -3 8 -38 8 -78z m-835 -13 c103 -17
155 -31 155 -42 0 -5 -43 -37 -95 -71 l-95 -63 -48 19 c-32 12 -87 20 -174 24
-70 3 -130 9 -135 14 -4 4 20 34 55 66 90 83 126 89 337 53z m-1050 -112 c3
-5 1 -12 -5 -16 -5 -3 -10 1 -10 9 0 18 6 21 15 7z m318 -77 c26 -9 49 -19 51
-23 3 -4 -24 -30 -59 -59 -35 -29 -68 -66 -75 -82 -15 -35 -30 -41 -109 -41
-64 -1 -131 16 -131 32 0 5 7 26 16 47 47 113 183 169 307 126z m435 -60 c119
-8 124 -14 60 -79 -55 -54 -138 -85 -243 -92 -77 -5 -195 10 -195 26 0 16 132
150 153 155 12 2 45 3 72 1 28 -2 96 -7 153 -11z m3082 -30 c13 -34 13 -125
-1 -180 -16 -64 0 -111 55 -162 62 -57 138 -79 215 -62 58 13 111 54 111 87 1
10 2 79 4 154 1 74 6 141 10 148 13 20 100 6 251 -39 72 -21 158 -46 192 -54
84 -21 143 -52 236 -127 98 -78 139 -153 140 -251 1 -79 -16 -112 -101 -201
-117 -121 -170 -140 -451 -158 -206 -13 -339 -8 -451 16 -41 9 -176 34 -300
55 -337 59 -638 142 -716 199 -73 52 -94 143 -53 228 31 65 127 157 185 178
27 10 90 35 140 56 50 21 169 57 265 80 96 23 188 45 204 49 49 13 55 11 65
-16z m-10335 -34 c227 -35 254 -36 381 -9 76 16 134 20 252 20 84 0 158 -3
163 -7 6 -3 88 -10 182 -15 95 -4 215 -15 267 -23 61 -10 162 -16 284 -16 149
0 221 -5 345 -24 86 -13 203 -29 261 -36 200 -21 365 -42 450 -56 172 -29 357
-66 370 -74 19 -12 6 -37 -29 -55 -28 -14 -44 -14 -192 5 -188 23 -273 28
-664 40 -215 6 -304 12 -345 24 -138 40 -180 44 -600 50 -314 4 -436 10 -500
21 -47 9 -146 20 -220 25 -105 7 -170 18 -290 48 -268 69 -335 81 -435 76 -49
-3 -96 -1 -104 4 -62 43 158 44 424 2z m3328 -287 c6 -3 7 -41 3 -98 -13 -173
-3 -178 364 -181 194 -2 287 -7 345 -18 117 -23 157 -21 188 10 25 24 47 95
47 148 0 13 8 34 18 46 l18 22 199 -22 c110 -11 219 -24 243 -28 l42 -7 -80
-109 c-44 -61 -91 -129 -105 -151 -39 -68 -57 -75 -192 -75 -187 0 -742 46
-958 80 -186 29 -275 45 -405 71 -203 42 -200 41 -200 48 0 25 175 183 271
245 48 31 165 42 202 19z m1827 -173 c36 -5 146 -10 245 -10 99 0 216 -4 260
-10 44 -5 240 -21 435 -35 195 -14 503 -42 683 -60 190 -20 381 -35 453 -35
148 0 179 -11 189 -64 12 -63 6 -70 -65 -79 -68 -8 -169 0 -345 29 -104 17
-239 21 -510 15 -129 -3 -202 1 -377 22 -119 15 -238 31 -265 37 -26 5 -151
21 -278 35 -306 34 -542 70 -560 85 -9 7 -15 29 -15 53 l0 40 43 -7 c23 -3 71
-10 107 -16z m-277 -119 c9 -16 17 -38 17 -48 0 -19 -147 -224 -170 -238 -19
-12 -35 13 -35 53 0 31 15 58 80 150 43 61 82 112 85 112 3 0 13 -13 23 -29z
m4687 -116 c15 -8 104 -30 197 -49 92 -19 289 -62 438 -96 320 -73 405 -81
715 -68 274 11 344 20 449 63 46 19 87 33 89 30 10 -9 -29 -55 -61 -71 -17 -9
-57 -34 -88 -55 -171 -116 -256 -134 -594 -126 -280 7 -351 16 -575 72 -202
51 -354 101 -454 152 -79 40 -180 114 -196 144 -10 17 -7 19 20 19 17 0 44 -7
60 -15z m-6420 -30 c58 -14 150 -31 205 -39 112 -17 654 -67 995 -92 124 -9
231 -21 238 -27 7 -6 12 -35 12 -77 0 -67 0 -68 -31 -74 -17 -3 -175 12 -352
33 -177 22 -362 42 -412 46 -414 29 -802 78 -882 111 -33 13 -33 13 -33 85 l0
71 78 -7 c42 -3 124 -17 182 -30z"/>
<path d="M13860 5691 c-10 -19 -8 -21 19 -21 16 0 37 -7 46 -16 20 -21 38 -6
33 27 -2 20 -10 24 -45 27 -34 3 -44 -1 -53 -17z"/>
<path d="M13922 5618 c-19 -24 -25 -85 -10 -125 l13 -38 5 85 c3 47 5 86 4 88
-1 1 -6 -3 -12 -10z"/>
<path d="M14040 5352 c0 -5 7 -17 15 -28 20 -26 19 -48 -5 -75 l-20 -24 -20
25 c-16 21 -21 22 -29 11 -19 -29 23 -71 69 -71 11 0 32 11 45 25 47 47 23
145 -35 145 -11 0 -20 -4 -20 -8z"/>
<path d="M3047 9175 c-37 -19 -66 -55 -67 -80 -1 -84 145 -140 207 -79 22 22
25 32 20 72 -9 84 -86 126 -160 87z"/>
<path d="M3249 8811 c-34 -33 -39 -45 -39 -84 0 -39 5 -49 35 -75 64 -57 169
-52 200 9 27 51 15 112 -33 162 -21 22 -34 27 -75 27 -44 0 -54 -4 -88 -39z"/>
<path d="M4315 8705 c-14 -13 -25 -34 -25 -47 0 -32 41 -195 95 -378 43 -147
44 -155 28 -171 -27 -25 -252 -88 -393 -110 -348 -54 -406 -72 -477 -141 -90
-88 -107 -182 -69 -373 52 -256 153 -404 338 -494 213 -104 473 -135 685 -81
91 24 143 51 178 92 24 28 27 39 23 84 -3 37 -13 63 -32 89 -41 53 -132 121
-182 135 -24 7 -44 16 -44 19 0 4 21 20 46 36 51 32 68 64 59 107 -8 33 -42
46 -77 28 -73 -39 -252 -156 -268 -178 -20 -25 -19 -55 1 -76 5 -6 41 -13 79
-17 79 -9 158 -41 230 -94 71 -52 70 -68 -4 -101 -51 -22 -79 -28 -174 -32
-311 -13 -569 107 -680 315 -44 83 -72 198 -72 295 0 86 14 131 51 165 40 37
149 82 249 102 148 30 476 89 565 102 107 15 115 20 115 75 0 55 -114 539
-142 607 -30 70 -62 84 -103 42z"/>
<path d="M10810 7730 c-193 -11 -247 -22 -311 -66 -30 -20 -88 -45 -136 -58
-48 -14 -95 -34 -110 -47 -58 -54 -82 -161 -43 -197 37 -34 122 -47 280 -42
321 11 452 0 722 -56 173 -36 310 -79 429 -134 126 -59 202 -80 281 -80 52 0
62 4 94 33 31 28 37 42 41 84 10 101 -23 152 -159 245 -50 34 -101 78 -115 99
-32 49 -111 84 -367 160 -192 58 -207 61 -326 64 -69 2 -195 -1 -280 -5z"/>
<path d="M8322 7657 c-12 -13 -36 -62 -52 -108 -26 -75 -28 -90 -19 -125 17
-58 61 -141 112 -209 55 -73 78 -89 101 -72 15 11 13 20 -27 98 -62 123 -73
182 -55 308 8 59 11 106 6 116 -13 22 -41 19 -66 -8z"/>
<path d="M7046 7615 c-49 -24 -99 -53 -110 -65 l-20 -20 26 -26 c24 -25 28
-26 64 -14 67 21 134 79 153 132 7 21 6 28 -6 32 -18 7 -2 13 -107 -39z"/>
<path d="M7269 7557 c-77 -55 -90 -78 -69 -118 34 -63 180 57 180 149 0 35
-30 27 -111 -31z"/>
<path d="M13194 7444 c-21 -27 -67 -78 -101 -114 -66 -70 -78 -104 -47 -134
27 -28 47 -18 129 64 l81 81 107 24 c59 13 112 27 117 30 6 3 10 16 10 29 0
29 -29 43 -105 50 -33 3 -81 8 -106 12 -46 6 -46 6 -85 -42z"/>
<path d="M5164 7340 c-103 -21 -210 -104 -257 -197 -87 -172 -37 -441 97 -518
79 -45 249 -60 337 -30 145 50 241 242 210 421 -24 134 -108 266 -199 310 -42
20 -128 27 -188 14z m123 -131 c67 -25 115 -97 134 -201 22 -119 -29 -256
-111 -298 -87 -44 -226 -16 -270 55 -24 38 -50 149 -50 214 0 61 42 133 103
178 78 57 138 74 194 52z"/>
<path d="M11561 6647 c-84 -45 -160 -91 -168 -103 -12 -18 -11 -24 8 -47 11
-15 30 -27 41 -27 12 0 85 48 164 108 109 81 144 112 144 130 0 14 -6 22 -17
22 -10 0 -87 -37 -172 -83z"/>
<path d="M12236 6584 c-160 -93 -206 -128 -206 -159 0 -33 26 -55 65 -55 27 0
49 14 127 84 51 46 105 96 120 112 28 31 45 78 31 87 -4 3 -66 -29 -137 -69z"/>
<path d="M11869 6574 c-37 -19 -76 -44 -88 -55 -29 -27 -27 -65 4 -85 24 -16
28 -16 62 2 46 24 166 141 160 157 -8 26 -71 18 -138 -19z"/>
<path d="M5770 4440 c-146 -8 -180 -17 -224 -58 -32 -30 -162 -189 -219 -269
-49 -67 -117 -215 -117 -253 0 -38 39 -67 68 -51 11 6 41 45 68 88 202 328
261 389 405 419 112 22 230 64 256 90 48 48 41 49 -237 34z"/>
<path d="M6000 4016 c-192 -83 -224 -100 -277 -149 -69 -64 -197 -327 -208
-431 -4 -28 -8 -61 -11 -73 -4 -21 -1 -23 41 -23 37 0 45 3 45 18 0 22 133
285 167 330 44 58 105 111 223 192 156 107 202 147 198 174 -2 11 -10 22 -18
23 -8 1 -80 -26 -160 -61z"/>
<path d="M14362 3317 c-33 -35 -22 -62 39 -93 62 -31 120 -83 171 -152 56 -76
73 -118 109 -282 18 -80 36 -149 40 -154 17 -19 39 63 39 141 0 80 -20 229
-40 295 -15 51 -83 151 -133 194 -58 49 -91 65 -151 71 -45 4 -54 2 -74 -20z"/>
<path d="M13737 3183 c-9 -2 -24 -18 -33 -34 -14 -28 -14 -33 3 -62 20 -34 51
-47 158 -66 201 -36 353 -211 455 -526 34 -105 50 -132 70 -120 9 5 11 30 7
84 -3 60 -17 111 -64 241 -33 91 -70 185 -82 208 -30 60 -90 116 -158 150 -67
33 -317 133 -329 131 -5 -1 -17 -3 -27 -6z"/>
<path d="M3926 3110 c-94 -37 -122 -90 -68 -128 15 -11 37 -22 48 -26 62 -19
67 -70 12 -131 -44 -51 -96 -75 -163 -75 -59 0 -72 -14 -27 -31 56 -22 175 18
248 84 50 44 68 53 129 62 145 20 244 132 185 208 -37 47 -81 29 -45 -19 19
-26 19 -28 -11 -64 -52 -61 -153 -90 -200 -56 -15 12 -18 24 -16 63 9 129 9
128 -18 130 -14 1 -47 -6 -74 -17z"/>
<path d="M3595 3089 c-97 -23 -353 -113 -382 -135 -36 -27 -42 -44 -16 -44 9
0 114 31 232 70 119 38 236 75 261 81 l45 12 -30 13 c-35 15 -54 16 -110 3z"/>
</g>
</svg>
